<svg xmlns="http://www.w3.org/2000/svg" xmlns:xlink="http://www.w3.org/1999/xlink" width="100%" viewBox="0 0 723.919 142.058">
  <defs>
    <clipPath id="clip-path">
      <path id="Path_1491" data-name="Path 1491" d="M-13920.414-18264.457l-13.328,4.32-12.666-4.32-.646-29.031h26.662Z" transform="translate(13947.055 18293.488)" fill="none" stroke="#707070" stroke-width="1"/>
    </clipPath>
    <clipPath id="clip-path-4">
      <path id="Path_1491-4" data-name="Path 1491" d="M-13920.745-18264.812l-13.164,4.268-12.509-4.268-.634-28.672h26.332Z" transform="translate(13947.052 18293.484)" fill="none" stroke="#707070" stroke-width="1"/>
    </clipPath>
  </defs>
  <g id="Group_2127" data-name="Group 2127" transform="translate(-624 -10839.267)">
    <g id="Group_2126" data-name="Group 2126">
      <g id="Group_1798" data-name="Group 1798" transform="translate(624 10839.267)">
        <path id="Path_1521" data-name="Path 1521" d="M0,0H655.386" transform="translate(64.018 58.302)" fill="none" stroke="#484848" stroke-linecap="round" stroke-width="4"/>
        <path id="Path_1520" data-name="Path 1520" d="M368.734,0" transform="translate(294.405 58.301)" fill="none" stroke="#327495" stroke-linecap="round" stroke-width="4"/>
        <g id="Group_1715" data-name="Group 1715" transform="translate(0 0)">
          <rect id="Rectangle_1219" data-name="Rectangle 1219" width="149" height="100" transform="translate(5 7.734)" fill="#fff"/>
          <g id="noun_Computer_3323377">
            <g id="noun_PC_3323899">
              <path id="Path_1495" data-name="Path 1495" d="M150.6,8.175H18.816A13.416,13.416,0,0,0,5.4,21.591v88.481a13.416,13.416,0,0,0,13.416,13.416H65.592v17.8H58.467a4.472,4.472,0,1,0,0,8.944h52.47a4.472,4.472,0,1,0,0-8.944h-7.11v-17.8H150.6a13.416,13.416,0,0,0,13.416-13.416V21.591A13.416,13.416,0,0,0,150.6,8.175ZM94.883,141.289H74.521v-17.8H94.883Zm60.192-31.217a4.472,4.472,0,0,1-4.472,4.472H18.816a4.472,4.472,0,0,1-4.472-4.472V21.591a4.472,4.472,0,0,1,4.472-4.472h131.8a4.472,4.472,0,0,1,4.472,4.472Z" transform="translate(-5.4 -8.175)" fill="#484848"/>
            </g>
          </g>
          <g id="Group_1784" data-name="Group 1784" transform="translate(38.888 3.325)" opacity="0.8">
            <g id="Group_1711" data-name="Group 1711" transform="translate(0 19.679)">
              <g id="noun_Package_1898991_1_" data-name="noun_Package_1898991 (1)" transform="translate(22.333 0)">
                <g id="Group_1707" data-name="Group 1707" transform="translate(0 0)">
                  <path id="Path_1487" data-name="Path 1487" d="M33.978,18.756l4.232-5.014a.8.8,0,0,0,.151-.771.887.887,0,0,0-.529-.578L25.4,8.228a.826.826,0,0,0-.869.231l-4.081,4.859L16.37,8.5a.761.761,0,0,0-.869-.231L3.069,12.393a.81.81,0,0,0-.529.578.939.939,0,0,0,.151.771l4.232,5.014L2.691,23.77a.8.8,0,0,0-.151.771.887.887,0,0,0,.529.578l4.119,1.388v8.947a.869.869,0,0,0,.567.81L20.186,40.43a.926.926,0,0,0,.529,0l12.432-4.165a.833.833,0,0,0,.567-.81V26.508L37.87,25.12a.81.81,0,0,0,.529-.578.939.939,0,0,0-.151-.771Zm-23.352,0,9.824-3.278,9.824,3.278-9.824,3.278ZM25.4,10,36.17,13.588l-3.552,4.2L21.849,14.205Zm-9.9,0,3.552,4.2L8.283,17.792l-3.552-4.2ZM8.283,19.72l10.769,3.587-3.552,4.2L4.732,23.924ZM8.812,34.8V27.048l6.65,2.237a.55.55,0,0,0,.265.039.883.883,0,0,0,.6-.27l3.25-3.857V38.463Zm23.238,0L21.244,38.425V25.158l3.25,3.857a.745.745,0,0,0,.6.27.631.631,0,0,0,.265-.039l6.65-2.237V34.8ZM25.4,27.511l-3.552-4.2L32.618,19.72l3.552,4.2Z" transform="translate(-2.503 -8.182)" fill="#484848" stroke="#484848" stroke-width="0.4"/>
                </g>
              </g>
              <g id="Group_1708" data-name="Group 1708" transform="translate(0 32.228)">
                <path id="Path_1338" data-name="Path 1338" d="M1.5,62.782V80.776l13.63,5.3,13.631-5.3V62.782l-13.631-5.3ZM3.984,66.43l9.9,3.85V82.927l-9.9-3.85ZM26.276,79.077l-9.9,3.85V70.28l9.9-3.85ZM15.169,68.083H15.09L4.9,64.124,15.13,60.149l10.226,3.975Z" transform="translate(-1.5 -44.816)" fill="#484848"/>
                <path id="Path_1339" data-name="Path 1339" d="M79.2,57.484l-13.63,5.3V80.775l13.63,5.3,13.631-5.3V62.782ZM68.059,66.43l9.9,3.85V82.927l-9.9-3.85ZM90.351,79.077l-9.9,3.85V70.28l9.9-3.85ZM79.244,68.083h-.079L68.979,64.124,79.2,60.149l10.226,3.975Z" transform="translate(-12.524 -44.816)" fill="#484848"/>
                <rect id="Rectangle_1135" data-name="Rectangle 1135" width="2.484" height="2.484" transform="translate(30.62 25.592)" fill="#484848"/>
                <rect id="Rectangle_1136" data-name="Rectangle 1136" width="2.484" height="2.484" transform="translate(45.522 25.592)" fill="#484848"/>
                <rect id="Rectangle_1137" data-name="Rectangle 1137" width="2.483" height="2.484" transform="translate(40.555 25.592)" fill="#484848"/>
                <rect id="Rectangle_1138" data-name="Rectangle 1138" width="2.484" height="2.484" transform="translate(35.588 25.592)" fill="#484848"/>
                <rect id="Rectangle_1139" data-name="Rectangle 1139" width="2.484" height="2.484" transform="translate(23.647 10.538) rotate(45)" fill="#484848"/>
                <rect id="Rectangle_1140" data-name="Rectangle 1140" width="2.484" height="2.484" transform="translate(32.427 1.756) rotate(-45)" fill="#484848"/>
                <rect id="Rectangle_1141" data-name="Rectangle 1141" width="2.484" height="2.484" transform="translate(30.672 3.512) rotate(45)" fill="#484848"/>
                <rect id="Rectangle_1142" data-name="Rectangle 1142" width="2.484" height="2.484" transform="translate(27.159 10.539) rotate(-135)" fill="#484848"/>
                <rect id="Rectangle_1143" data-name="Rectangle 1143" width="2.484" height="2.484" transform="translate(61.319 12.295) rotate(135)" fill="#484848"/>
                <rect id="Rectangle_1144" data-name="Rectangle 1144" width="2.484" height="2.484" transform="translate(50.78 5.269) rotate(-45)" fill="#484848"/>
                <rect id="Rectangle_1145" data-name="Rectangle 1145" width="2.484" height="2.484" transform="translate(57.807 8.782) rotate(135)" fill="#484848"/>
                <rect id="Rectangle_1146" data-name="Rectangle 1146" width="2.484" height="2.484" transform="translate(47.267 1.756) rotate(-45)" fill="#484848"/>
              </g>
            </g>
            <g id="Mask_Group_62" data-name="Mask Group 62" transform="translate(26.974)" clip-path="url(#clip-path)">
              <g id="Rectangle_1254" data-name="Rectangle 1254" transform="translate(2.138 25.408)" fill="#fff" stroke="#707070" stroke-width="1">
                <rect width="23" height="8" stroke="none"/>
                <rect x="0.5" y="0.5" width="22" height="7" fill="none"/>
              </g>
              <path id="noun_identification_9042" d="M26.413,19.861A.861.861,0,0,0,25.551,19H2.862A.861.861,0,0,0,2,19.861v13.79a.862.862,0,0,0,.862.861h22.69a.862.862,0,0,0,.861-.861ZM10.9,29.681H4.034c-.228-.9.353-1.4,1.3-1.614.922-.212,1.571-.631.994-1.208-1.687-1.687-.426-3.741,1.137-3.741a2.085,2.085,0,0,1,1.151,3.741c-.577.577.058,1,.98,1.208C10.533,28.284,11.128,28.78,10.9,29.681Zm13.478,0H12.426V28.663H24.379Zm0-2.543H12.426V26.12H24.379Zm0-2.543H12.426V23.577H24.379Z" transform="translate(-0.469 2.638)" fill="#327495"/>
            </g>
          </g>
        </g>
        <g id="Group_1716" data-name="Group 1716" transform="translate(187.45 0)">
          <rect id="Rectangle_1219-2" data-name="Rectangle 1219" width="150" height="100" transform="translate(3.551 7.734)" fill="#fff"/>
          <g id="noun_Computer_3323377-2" data-name="noun_Computer_3323377">
            <g id="noun_PC_3323899-2" data-name="noun_PC_3323899">
              <path id="Path_1495-2" data-name="Path 1495" d="M150.6,8.175H18.816A13.416,13.416,0,0,0,5.4,21.591v88.481a13.416,13.416,0,0,0,13.416,13.416H65.592v17.8H58.467a4.472,4.472,0,1,0,0,8.944h52.47a4.472,4.472,0,1,0,0-8.944h-7.11v-17.8H150.6a13.416,13.416,0,0,0,13.416-13.416V21.591A13.416,13.416,0,0,0,150.6,8.175ZM94.883,141.289H74.521v-17.8H94.883Zm60.192-31.217a4.472,4.472,0,0,1-4.472,4.472H18.816a4.472,4.472,0,0,1-4.472-4.472V21.591a4.472,4.472,0,0,1,4.472-4.472h131.8a4.472,4.472,0,0,1,4.472,4.472Z" transform="translate(-5.4 -8.175)" fill="#484848"/>
            </g>
          </g>
          <g id="Group_1785" data-name="Group 1785" transform="translate(39.252 3.325)" opacity="0.8">
            <g id="Group_1711-2" data-name="Group 1711" transform="translate(0 19.679)">
              <g id="noun_Package_1898991_1_2" data-name="noun_Package_1898991 (1)" transform="translate(22.333 0)">
                <g id="Group_1707-2" data-name="Group 1707" transform="translate(0 0)">
                  <path id="Path_1487-2" data-name="Path 1487" d="M33.978,18.756l4.232-5.014a.8.8,0,0,0,.151-.771.887.887,0,0,0-.529-.578L25.4,8.228a.826.826,0,0,0-.869.231l-4.081,4.859L16.37,8.5a.761.761,0,0,0-.869-.231L3.069,12.393a.81.81,0,0,0-.529.578.939.939,0,0,0,.151.771l4.232,5.014L2.691,23.77a.8.8,0,0,0-.151.771.887.887,0,0,0,.529.578l4.119,1.388v8.947a.869.869,0,0,0,.567.81L20.186,40.43a.926.926,0,0,0,.529,0l12.432-4.165a.833.833,0,0,0,.567-.81V26.508L37.87,25.12a.81.81,0,0,0,.529-.578.939.939,0,0,0-.151-.771Zm-23.352,0,9.824-3.278,9.824,3.278-9.824,3.278ZM25.4,10,36.17,13.588l-3.552,4.2L21.849,14.205Zm-9.9,0,3.552,4.2L8.283,17.792l-3.552-4.2ZM8.283,19.72l10.769,3.587-3.552,4.2L4.732,23.924ZM8.812,34.8V27.048l6.65,2.237a.55.55,0,0,0,.265.039.883.883,0,0,0,.6-.27l3.25-3.857V38.463Zm23.238,0L21.244,38.425V25.158l3.25,3.857a.745.745,0,0,0,.6.27.631.631,0,0,0,.265-.039l6.65-2.237V34.8ZM25.4,27.511l-3.552-4.2L32.618,19.72l3.552,4.2Z" transform="translate(-2.503 -8.182)" fill="#484848" stroke="#484848" stroke-width="0.4"/>
                </g>
              </g>
              <g id="Group_1708-2" data-name="Group 1708" transform="translate(0 32.228)">
                <path id="Path_1338-2" data-name="Path 1338" d="M1.5,62.782V80.776l13.63,5.3,13.631-5.3V62.782l-13.631-5.3ZM3.984,66.43l9.9,3.85V82.927l-9.9-3.85ZM26.276,79.077l-9.9,3.85V70.28l9.9-3.85ZM15.169,68.083H15.09L4.9,64.124,15.13,60.149l10.226,3.975Z" transform="translate(-1.5 -44.816)" fill="#484848"/>
                <path id="Path_1339-2" data-name="Path 1339" d="M79.2,57.484l-13.63,5.3V80.775l13.63,5.3,13.631-5.3V62.782ZM68.059,66.43l9.9,3.85V82.927l-9.9-3.85ZM90.351,79.077l-9.9,3.85V70.28l9.9-3.85ZM79.244,68.083h-.079L68.979,64.124,79.2,60.149l10.226,3.975Z" transform="translate(-12.524 -44.816)" fill="#484848"/>
                <rect id="Rectangle_1135-2" data-name="Rectangle 1135" width="2.484" height="2.484" transform="translate(30.62 25.592)" fill="#484848"/>
                <rect id="Rectangle_1136-2" data-name="Rectangle 1136" width="2.484" height="2.484" transform="translate(45.522 25.592)" fill="#484848"/>
                <rect id="Rectangle_1137-2" data-name="Rectangle 1137" width="2.483" height="2.484" transform="translate(40.555 25.592)" fill="#484848"/>
                <rect id="Rectangle_1138-2" data-name="Rectangle 1138" width="2.484" height="2.484" transform="translate(35.588 25.592)" fill="#484848"/>
                <rect id="Rectangle_1139-2" data-name="Rectangle 1139" width="2.484" height="2.484" transform="translate(23.647 10.538) rotate(45)" fill="#484848"/>
                <rect id="Rectangle_1140-2" data-name="Rectangle 1140" width="2.484" height="2.484" transform="translate(32.427 1.756) rotate(-45)" fill="#484848"/>
                <rect id="Rectangle_1141-2" data-name="Rectangle 1141" width="2.484" height="2.484" transform="translate(30.672 3.512) rotate(45)" fill="#484848"/>
                <rect id="Rectangle_1142-2" data-name="Rectangle 1142" width="2.484" height="2.484" transform="translate(27.159 10.539) rotate(-135)" fill="#484848"/>
                <rect id="Rectangle_1143-2" data-name="Rectangle 1143" width="2.484" height="2.484" transform="translate(61.319 12.295) rotate(135)" fill="#484848"/>
                <rect id="Rectangle_1144-2" data-name="Rectangle 1144" width="2.484" height="2.484" transform="translate(50.78 5.269) rotate(-45)" fill="#484848"/>
                <rect id="Rectangle_1145-2" data-name="Rectangle 1145" width="2.484" height="2.484" transform="translate(57.807 8.782) rotate(135)" fill="#484848"/>
                <rect id="Rectangle_1146-2" data-name="Rectangle 1146" width="2.484" height="2.484" transform="translate(47.267 1.756) rotate(-45)" fill="#484848"/>
              </g>
            </g>
            <g id="Mask_Group_62-2" data-name="Mask Group 62" transform="translate(26.974)" clip-path="url(#clip-path)">
              <g id="Rectangle_1254-2" data-name="Rectangle 1254" transform="translate(2.325 25.408)" fill="#fff" stroke="#707070" stroke-width="1">
                <rect width="23" height="8" stroke="none"/>
                <rect x="0.5" y="0.5" width="22" height="7" fill="none"/>
              </g>
              <path id="noun_identification_9042-2" data-name="noun_identification_9042" d="M26.413,19.861A.861.861,0,0,0,25.551,19H2.862A.861.861,0,0,0,2,19.861v13.79a.862.862,0,0,0,.862.861h22.69a.862.862,0,0,0,.861-.861ZM10.9,29.681H4.034c-.228-.9.353-1.4,1.3-1.614.922-.212,1.571-.631.994-1.208-1.687-1.687-.426-3.741,1.137-3.741a2.085,2.085,0,0,1,1.151,3.741c-.577.577.058,1,.98,1.208C10.533,28.284,11.128,28.78,10.9,29.681Zm13.478,0H12.426V28.663H24.379Zm0-2.543H12.426V26.12H24.379Zm0-2.543H12.426V23.577H24.379Z" transform="translate(-0.469 2.638)" fill="#327495"/>
            </g>
          </g>
        </g>
        <g id="Group_1717" data-name="Group 1717" transform="translate(374.899 0)">
          <rect id="Rectangle_1219-3" data-name="Rectangle 1219" width="150" height="100" transform="translate(4.101 7.734)" fill="#fff"/>
          <g id="noun_Computer_3323377-3" data-name="noun_Computer_3323377" transform="translate(0)">
            <g id="noun_PC_3323899-3" data-name="noun_PC_3323899">
              <path id="Path_1495-3" data-name="Path 1495" d="M150.6,8.175H18.816A13.416,13.416,0,0,0,5.4,21.591v88.481a13.416,13.416,0,0,0,13.416,13.416H65.592v17.8H58.467a4.472,4.472,0,1,0,0,8.944h52.47a4.472,4.472,0,1,0,0-8.944h-7.11v-17.8H150.6a13.416,13.416,0,0,0,13.416-13.416V21.591A13.416,13.416,0,0,0,150.6,8.175ZM94.883,141.289H74.521v-17.8H94.883Zm60.192-31.217a4.472,4.472,0,0,1-4.472,4.472H18.816a4.472,4.472,0,0,1-4.472-4.472V21.591a4.472,4.472,0,0,1,4.472-4.472h131.8a4.472,4.472,0,0,1,4.472,4.472Z" transform="translate(-5.4 -8.175)" fill="#484848"/>
            </g>
          </g>
          <g id="Group_1786" data-name="Group 1786" transform="translate(39.614 3.325)" opacity="0.8">
            <g id="Group_1711-3" data-name="Group 1711" transform="translate(0 19.679)">
              <g id="noun_Package_1898991_1_3" data-name="noun_Package_1898991 (1)" transform="translate(22.333 0)">
                <g id="Group_1707-3" data-name="Group 1707" transform="translate(0 0)">
                  <path id="Path_1487-3" data-name="Path 1487" d="M33.978,18.756l4.232-5.014a.8.8,0,0,0,.151-.771.887.887,0,0,0-.529-.578L25.4,8.228a.826.826,0,0,0-.869.231l-4.081,4.859L16.37,8.5a.761.761,0,0,0-.869-.231L3.069,12.393a.81.81,0,0,0-.529.578.939.939,0,0,0,.151.771l4.232,5.014L2.691,23.77a.8.8,0,0,0-.151.771.887.887,0,0,0,.529.578l4.119,1.388v8.947a.869.869,0,0,0,.567.81L20.186,40.43a.926.926,0,0,0,.529,0l12.432-4.165a.833.833,0,0,0,.567-.81V26.508L37.87,25.12a.81.81,0,0,0,.529-.578.939.939,0,0,0-.151-.771Zm-23.352,0,9.824-3.278,9.824,3.278-9.824,3.278ZM25.4,10,36.17,13.588l-3.552,4.2L21.849,14.205Zm-9.9,0,3.552,4.2L8.283,17.792l-3.552-4.2ZM8.283,19.72l10.769,3.587-3.552,4.2L4.732,23.924ZM8.812,34.8V27.048l6.65,2.237a.55.55,0,0,0,.265.039.883.883,0,0,0,.6-.27l3.25-3.857V38.463Zm23.238,0L21.244,38.425V25.158l3.25,3.857a.745.745,0,0,0,.6.27.631.631,0,0,0,.265-.039l6.65-2.237V34.8ZM25.4,27.511l-3.552-4.2L32.618,19.72l3.552,4.2Z" transform="translate(-2.503 -8.182)" fill="#484848" stroke="#484848" stroke-width="0.4"/>
                </g>
              </g>
              <g id="Group_1708-3" data-name="Group 1708" transform="translate(0 32.228)">
                <path id="Path_1338-3" data-name="Path 1338" d="M1.5,62.782V80.776l13.63,5.3,13.631-5.3V62.782l-13.631-5.3ZM3.984,66.43l9.9,3.85V82.927l-9.9-3.85ZM26.276,79.077l-9.9,3.85V70.28l9.9-3.85ZM15.169,68.083H15.09L4.9,64.124,15.13,60.149l10.226,3.975Z" transform="translate(-1.5 -44.816)" fill="#484848"/>
                <path id="Path_1339-3" data-name="Path 1339" d="M79.2,57.484l-13.63,5.3V80.775l13.63,5.3,13.631-5.3V62.782ZM68.059,66.43l9.9,3.85V82.927l-9.9-3.85ZM90.351,79.077l-9.9,3.85V70.28l9.9-3.85ZM79.244,68.083h-.079L68.979,64.124,79.2,60.149l10.226,3.975Z" transform="translate(-12.524 -44.816)" fill="#484848"/>
                <rect id="Rectangle_1135-3" data-name="Rectangle 1135" width="2.484" height="2.484" transform="translate(30.62 25.592)" fill="#484848"/>
                <rect id="Rectangle_1136-3" data-name="Rectangle 1136" width="2.484" height="2.484" transform="translate(45.522 25.592)" fill="#484848"/>
                <rect id="Rectangle_1137-3" data-name="Rectangle 1137" width="2.483" height="2.484" transform="translate(40.555 25.592)" fill="#484848"/>
                <rect id="Rectangle_1138-3" data-name="Rectangle 1138" width="2.484" height="2.484" transform="translate(35.588 25.592)" fill="#484848"/>
                <rect id="Rectangle_1139-3" data-name="Rectangle 1139" width="2.484" height="2.484" transform="translate(23.647 10.538) rotate(45)" fill="#484848"/>
                <rect id="Rectangle_1140-3" data-name="Rectangle 1140" width="2.484" height="2.484" transform="translate(32.427 1.756) rotate(-45)" fill="#484848"/>
                <rect id="Rectangle_1141-3" data-name="Rectangle 1141" width="2.484" height="2.484" transform="translate(30.672 3.512) rotate(45)" fill="#484848"/>
                <rect id="Rectangle_1142-3" data-name="Rectangle 1142" width="2.484" height="2.484" transform="translate(27.159 10.539) rotate(-135)" fill="#484848"/>
                <rect id="Rectangle_1143-3" data-name="Rectangle 1143" width="2.484" height="2.484" transform="translate(61.319 12.295) rotate(135)" fill="#484848"/>
                <rect id="Rectangle_1144-3" data-name="Rectangle 1144" width="2.484" height="2.484" transform="translate(50.78 5.269) rotate(-45)" fill="#484848"/>
                <rect id="Rectangle_1145-3" data-name="Rectangle 1145" width="2.484" height="2.484" transform="translate(57.807 8.782) rotate(135)" fill="#484848"/>
                <rect id="Rectangle_1146-3" data-name="Rectangle 1146" width="2.484" height="2.484" transform="translate(47.267 1.756) rotate(-45)" fill="#484848"/>
              </g>
            </g>
            <g id="Mask_Group_62-3" data-name="Mask Group 62" transform="translate(26.974)" clip-path="url(#clip-path)">
              <g id="Rectangle_1254-3" data-name="Rectangle 1254" transform="translate(2.514 25.408)" fill="#fff" stroke="#707070" stroke-width="1">
                <rect width="23" height="8" stroke="none"/>
                <rect x="0.5" y="0.5" width="22" height="7" fill="none"/>
              </g>
              <path id="noun_identification_9042-3" data-name="noun_identification_9042" d="M26.413,19.861A.861.861,0,0,0,25.551,19H2.862A.861.861,0,0,0,2,19.861v13.79a.862.862,0,0,0,.862.861h22.69a.862.862,0,0,0,.861-.861ZM10.9,29.681H4.034c-.228-.9.353-1.4,1.3-1.614.922-.212,1.571-.631.994-1.208-1.687-1.687-.426-3.741,1.137-3.741a2.085,2.085,0,0,1,1.151,3.741c-.577.577.058,1,.98,1.208C10.533,28.284,11.128,28.78,10.9,29.681Zm13.478,0H12.426V28.663H24.379Zm0-2.543H12.426V26.12H24.379Zm0-2.543H12.426V23.577H24.379Z" transform="translate(-0.469 2.638)" fill="#327495"/>
            </g>
          </g>
        </g>
        <g id="Group_1718" data-name="Group 1718" transform="translate(565.301 0)">
          <rect id="Rectangle_1219-4" data-name="Rectangle 1219" width="149" height="100" transform="translate(7.699 7.734)" fill="#fff"/>
          <g id="noun_Computer_3323377-4" data-name="noun_Computer_3323377" transform="translate(0)">
            <g id="noun_PC_3323899-4" data-name="noun_PC_3323899">
              <path id="Path_1495-4" data-name="Path 1495" d="M150.6,8.175H18.816A13.416,13.416,0,0,0,5.4,21.591v88.481a13.416,13.416,0,0,0,13.416,13.416H65.592v17.8H58.467a4.472,4.472,0,1,0,0,8.944h52.47a4.472,4.472,0,1,0,0-8.944h-7.11v-17.8H150.6a13.416,13.416,0,0,0,13.416-13.416V21.591A13.416,13.416,0,0,0,150.6,8.175ZM94.883,141.289H74.521v-17.8H94.883Zm60.192-31.217a4.472,4.472,0,0,1-4.472,4.472H18.816a4.472,4.472,0,0,1-4.472-4.472V21.591a4.472,4.472,0,0,1,4.472-4.472h131.8a4.472,4.472,0,0,1,4.472,4.472Z" transform="translate(-5.4 -8.175)" fill="#d95868"/>
            </g>
          </g>
          <g id="Group_1965" data-name="Group 1965" transform="translate(42.511 4.243)">
            <g id="Group_1711-4" data-name="Group 1711" transform="translate(0 19.436)">
              <g id="noun_Package_1898991_1_4" data-name="noun_Package_1898991 (1)" transform="translate(22.057 0)">
                <g id="Group_1707-4" data-name="Group 1707" transform="translate(0 0)">
                  <path id="Path_1487-4" data-name="Path 1487" d="M33.588,18.625l4.18-4.952a.792.792,0,0,0,.149-.762.876.876,0,0,0-.522-.571L25.117,8.227a.816.816,0,0,0-.858.229l-4.03,4.8L16.2,8.494a.751.751,0,0,0-.858-.229L3.062,12.341a.8.8,0,0,0-.522.571.927.927,0,0,0,.149.762l4.18,4.952-4.18,4.952a.792.792,0,0,0-.149.762.876.876,0,0,0,.522.571L7.13,26.281v8.837a.858.858,0,0,0,.56.8l12.278,4.114a.915.915,0,0,0,.522,0l12.278-4.114a.822.822,0,0,0,.56-.8V26.281l4.105-1.371a.8.8,0,0,0,.522-.571.927.927,0,0,0-.149-.762Zm-23.063,0,9.7-3.238,9.7,3.238-9.7,3.238ZM25.117,9.979l10.636,3.542-3.508,4.152L21.609,14.131Zm-9.777,0,3.508,4.152L8.212,17.673,4.7,13.521Zm-7.128,9.6L18.848,23.12,15.34,27.271,4.7,23.729ZM8.734,34.47V26.814L15.3,29.024a.543.543,0,0,0,.261.038.872.872,0,0,0,.6-.267l3.209-3.809v13.1Zm22.951,0-10.673,3.58v-13.1l3.209,3.809a.736.736,0,0,0,.6.267.623.623,0,0,0,.261-.038l6.568-2.209V34.47Zm-6.568-7.2L21.609,23.12l10.636-3.542,3.508,4.152Z" transform="translate(-2.503 -8.182)" fill="#6c6c6c" stroke="#9a9a9a" stroke-width="0.4"/>
                </g>
              </g>
              <g id="Group_1708-4" data-name="Group 1708" transform="translate(0 31.83)">
                <path id="Path_1338-4" data-name="Path 1338" d="M1.5,62.717V80.488L14.961,85.72l13.462-5.232V62.717L14.961,57.485Zm2.453,3.6,9.781,3.8v12.49l-9.781-3.8ZM25.97,78.81l-9.782,3.8V70.122l9.782-3.8ZM15,67.952h-.078L4.862,64.042l10.1-3.926,10.1,3.926Z" transform="translate(-1.5 -44.973)" fill="#6c6c6c"/>
                <path id="Path_1339-4" data-name="Path 1339" d="M79.036,57.484,65.575,62.716V80.487l13.461,5.232L92.5,80.489V62.717ZM68.028,66.319l9.781,3.8v12.49l-9.781-3.8ZM90.045,78.81l-9.782,3.8V70.122l9.782-3.8ZM79.075,67.951H79l-10.06-3.909,10.1-3.926,10.1,3.926Z" transform="translate(-13.181 -44.973)" fill="#6c6c6c"/>
                <rect id="Rectangle_1135-4" data-name="Rectangle 1135" width="2.453" height="2.453" transform="translate(30.241 25.275)" fill="#6c6c6c"/>
                <rect id="Rectangle_1136-4" data-name="Rectangle 1136" width="2.453" height="2.453" transform="translate(44.959 25.275)" fill="#6c6c6c"/>
                <rect id="Rectangle_1137-4" data-name="Rectangle 1137" width="2.452" height="2.453" transform="translate(40.053 25.275)" fill="#6c6c6c"/>
                <rect id="Rectangle_1138-4" data-name="Rectangle 1138" width="2.453" height="2.453" transform="translate(35.147 25.275)" fill="#6c6c6c"/>
                <rect id="Rectangle_1139-4" data-name="Rectangle 1139" width="2.453" height="2.453" transform="translate(23.355 10.408) rotate(45)" fill="#6c6c6c"/>
                <rect id="Rectangle_1140-4" data-name="Rectangle 1140" width="2.453" height="2.453" transform="translate(32.026 1.735) rotate(-45)" fill="#6c6c6c"/>
                <rect id="Rectangle_1141-4" data-name="Rectangle 1141" width="2.453" height="2.453" transform="translate(30.292 3.469) rotate(45)" fill="#6c6c6c"/>
                <rect id="Rectangle_1142-4" data-name="Rectangle 1142" width="2.453" height="2.453" transform="translate(26.823 10.409) rotate(-135)" fill="#6c6c6c"/>
                <rect id="Rectangle_1143-4" data-name="Rectangle 1143" width="2.453" height="2.453" transform="translate(60.56 12.143) rotate(135)" fill="#6c6c6c"/>
                <rect id="Rectangle_1144-4" data-name="Rectangle 1144" width="2.453" height="2.453" transform="translate(50.152 5.204) rotate(-45)" fill="#6c6c6c"/>
                <rect id="Rectangle_1145-4" data-name="Rectangle 1145" width="2.453" height="2.453" transform="translate(57.091 8.673) rotate(135)" fill="#6c6c6c"/>
                <rect id="Rectangle_1146-4" data-name="Rectangle 1146" width="2.453" height="2.453" transform="translate(46.682 1.735) rotate(-45)" fill="#6c6c6c"/>
              </g>
            </g>
            <g id="Mask_Group_62-4" data-name="Mask Group 62" transform="translate(26.64)" clip-path="url(#clip-path-4)">
              <g id="Group_1712" data-name="Group 1712" transform="translate(4.992 13.083)">
                <path id="Subtraction_21" data-name="Subtraction 21" d="M14.876,20.842H1.538A1.54,1.54,0,0,1,.454,20.4,1.516,1.516,0,0,1,0,19.321V1.521A1.517,1.517,0,0,1,.454.447,1.539,1.539,0,0,1,1.538,0h9.77V3.891a1.327,1.327,0,0,0,1.332,1.32h3.774v14.11A1.517,1.517,0,0,1,15.96,20.4,1.54,1.54,0,0,1,14.876,20.842Zm1.006-16.39H12.638a.565.565,0,0,1-.567-.562V.561l3.81,3.891Z" fill="#c3e2f2"/>
              </g>
            </g>
          </g>
        </g>
      </g>
      <rect id="Rectangle_1300" data-name="Rectangle 1300" width="23" height="21" transform="translate(1162 10887)" fill="#fff"/>
    </g>
    <g id="Group_1964" data-name="Group 1964" transform="translate(1011.5 10339)">
      <line id="Line_384" data-name="Line 384" x1="13.926" y2="13.926" transform="translate(155.5 550.5)" fill="none" stroke="#d95868" stroke-linecap="round" stroke-width="3"/>
      <line id="Line_385" data-name="Line 385" x2="13.926" y2="13.926" transform="translate(155.5 550.5)" fill="none" stroke="#d95868" stroke-linecap="round" stroke-width="3"/>
    </g>
  </g>
</svg>
