<svg xmlns="http://www.w3.org/2000/svg" xmlns:xlink="http://www.w3.org/1999/xlink" width="412" viewBox="0 0 550.695 484.976">
  <defs>
    <clipPath id="clip-path">
      <path id="Path_1491" data-name="Path 1491" d="M-13838.953-18175.68l-54.094,17.539-51.395-17.539-2.613-117.809h108.2Z" transform="translate(13947.055 18293.488)" fill="none" stroke="#707070" stroke-width="1"/>
    </clipPath>
  </defs>
  <g id="Group_2125" data-name="Group 2125" transform="translate(-494.006 -10283.024)">
    <g id="Group_1782" data-name="Group 1782" transform="translate(660.073 10294.51)">
      <g id="Group_1711" data-name="Group 1711" transform="translate(0 79.857)">
        <g id="noun_Package_1898991_1_" data-name="noun_Package_1898991 (1)" transform="translate(90.627 0)">
          <g id="Group_1707" data-name="Group 1707" transform="translate(0 0)">
            <path id="Path_1487" data-name="Path 1487" d="M130.226,51.091,147.4,30.746a3.253,3.253,0,0,0,.613-3.13,3.6,3.6,0,0,0-2.147-2.347L95.419,8.366a3.353,3.353,0,0,0-3.527.939L75.332,29.024,58.772,9.462a3.087,3.087,0,0,0-3.527-.939L4.8,25.268a3.288,3.288,0,0,0-2.147,2.347,3.81,3.81,0,0,0,.613,3.13L20.438,51.091,3.265,71.436a3.253,3.253,0,0,0-.613,3.13A3.6,3.6,0,0,0,4.8,76.913l16.713,5.634v36.308a3.527,3.527,0,0,0,2.3,3.286l50.447,16.9a3.759,3.759,0,0,0,2.147,0l50.447-16.9a3.378,3.378,0,0,0,2.3-3.286V82.547l16.867-5.634a3.288,3.288,0,0,0,2.147-2.347,3.81,3.81,0,0,0-.613-3.13Zm-94.761,0,39.867-13.3,39.867,13.3-39.867,13.3ZM95.419,15.565l43.7,14.554L124.706,47.178l-43.7-14.554Zm-40.174,0L69.659,32.624l-43.7,14.554L11.545,30.12ZM25.958,55l43.7,14.554L55.245,86.616l-43.7-14.554Zm2.147,61.191V84.738l26.987,9.077a2.232,2.232,0,0,0,1.073.157,3.585,3.585,0,0,0,2.453-1.1l13.187-15.65v53.836Zm94.3,0L78.552,130.905V77.07l13.187,15.65a3.023,3.023,0,0,0,2.453,1.1,2.561,2.561,0,0,0,1.073-.157l26.987-9.077v31.613ZM95.419,86.616,81.006,69.558,124.706,55l14.413,17.058Z" transform="translate(-2.503 -8.182)" fill="#484848" stroke="#484848" stroke-width="2"/>
          </g>
        </g>
        <g id="Group_1708" data-name="Group 1708" transform="translate(0 130.782)">
          <path id="Path_1338" data-name="Path 1338" d="M1.5,78.981V152l55.309,21.5L112.121,152V78.981l-55.312-21.5Zm10.079,14.8,40.19,15.623v51.321l-40.19-15.623Zm90.462,51.321L61.848,160.729V109.407l40.193-15.623ZM56.97,100.491h-.323L15.312,84.427l41.5-16.13,41.5,16.13Z" transform="translate(-1.5 -6.076)" fill="#484848"/>
          <path id="Path_1339" data-name="Path 1339" d="M120.884,57.484,65.575,78.98V152l55.309,21.5L176.2,152.005V78.983Zm-45.229,36.3,40.19,15.623v51.321l-40.19-15.623Zm90.462,51.321-40.193,15.623V109.41l40.193-15.623Zm-45.071-44.615h-.322L79.387,84.43l41.5-16.13,41.5,16.13Z" transform="translate(149.703 -6.078)" fill="#484848"/>
          <rect id="Rectangle_1135" data-name="Rectangle 1135" width="10.079" height="10.079" transform="translate(124.255 103.852)" fill="#484848"/>
          <rect id="Rectangle_1136" data-name="Rectangle 1136" width="10.079" height="10.079" transform="translate(184.727 103.852)" fill="#484848"/>
          <rect id="Rectangle_1137" data-name="Rectangle 1137" width="10.076" height="10.079" transform="translate(164.572 103.852)" fill="#484848"/>
          <rect id="Rectangle_1138" data-name="Rectangle 1138" width="10.079" height="10.079" transform="translate(144.413 103.852)" fill="#484848"/>
          <rect id="Rectangle_1139" data-name="Rectangle 1139" width="10.079" height="10.079" transform="translate(95.959 42.763) rotate(45)" fill="#484848"/>
          <rect id="Rectangle_1140" data-name="Rectangle 1140" width="10.079" height="10.079" transform="translate(131.589 7.127) rotate(-45)" fill="#484848"/>
          <rect id="Rectangle_1141" data-name="Rectangle 1141" width="10.079" height="10.079" transform="translate(124.465 14.253) rotate(45)" fill="#484848"/>
          <rect id="Rectangle_1142" data-name="Rectangle 1142" width="10.079" height="10.079" transform="translate(110.209 42.767) rotate(-135)" fill="#484848"/>
          <rect id="Rectangle_1143" data-name="Rectangle 1143" width="10.079" height="10.079" transform="translate(248.83 49.892) rotate(135)" fill="#484848"/>
          <rect id="Rectangle_1144" data-name="Rectangle 1144" width="10.079" height="10.079" transform="translate(206.063 21.383) rotate(-45)" fill="#484848"/>
          <rect id="Rectangle_1145" data-name="Rectangle 1145" width="10.079" height="10.079" transform="translate(234.578 35.636) rotate(135)" fill="#484848"/>
          <rect id="Rectangle_1146" data-name="Rectangle 1146" width="10.079" height="10.079" transform="translate(191.809 7.127) rotate(-45)" fill="#484848"/>
        </g>
      </g>
      <g id="Mask_Group_62" data-name="Mask Group 62" transform="translate(109.458)" clip-path="url(#clip-path)">
        <g id="Rectangle_1254" data-name="Rectangle 1254" transform="translate(9.469 100.49)" fill="#fff" stroke="#707070" stroke-width="1">
          <rect width="94" height="40" stroke="none"/>
          <rect x="0.5" y="0.5" width="93" height="39" fill="none"/>
        </g>
        <path id="noun_identification_9042" d="M101.067,22.5a3.5,3.5,0,0,0-3.5-3.5H5.5A3.5,3.5,0,0,0,2,22.5V78.455a3.5,3.5,0,0,0,3.5,3.494H97.572a3.5,3.5,0,0,0,3.5-3.5ZM38.118,62.342H10.256c-.924-3.654,1.434-5.67,5.256-6.551,3.741-.861,6.373-2.559,4.032-4.9C12.7,44.042,17.815,35.71,24.159,35.71s11.518,8.333,4.672,15.179c-2.341,2.343.236,4.041,3.975,4.9C36.628,56.672,39.043,58.688,38.118,62.342Zm54.693,0H44.31V58.214h48.5Zm0-10.319H44.31V47.895h48.5Zm0-10.319H44.31V37.575h48.5Z" transform="translate(4.211 68.806)" fill="#327495"/>
      </g>
    </g>
    <text id="Bob_s_Document" data-name="Bob's Document" transform="translate(574 10308)" fill="#327495" font-size="25" font-family="Helvetica"><tspan x="34.622" y="19">Bob's </tspan><tspan x="8.53" y="49">Document</tspan></text>
    <text id="Block" transform="translate(556 10444)" fill="#707070" font-size="25" font-family="Helvetica"><tspan x="34.934" y="19">Block</tspan></text>
    <text id="Blockchain" transform="translate(758 10725)" fill="#707070" font-size="25" font-family="Helvetica-Bold, Helvetica" font-weight="700"><tspan x="1.313" y="19">Blockchain</tspan></text>
    <g id="Group_1963" data-name="Group 1963" transform="translate(13 530)">
      <line id="Line_380" data-name="Line 380" x1="442" transform="translate(589.5 10176.301)" fill="none" stroke="#707070" stroke-width="4"/>
      <line id="Line_381" data-name="Line 381" x2="60.554" transform="translate(1029.701 10175.623) rotate(-90)" fill="none" stroke="#707070" stroke-linecap="round" stroke-width="4"/>
      <line id="Line_447" data-name="Line 447" x2="60.554" transform="translate(591.698 10175.623) rotate(-90)" fill="none" stroke="#707070" stroke-linecap="round" stroke-width="4"/>
    </g>
    <g id="Group_1966" data-name="Group 1966" transform="translate(494.006 10283.024)">
      <g id="Group_1743" data-name="Group 1743">
        <path id="Path_1508" data-name="Path 1508" d="M69.068,61.732H60.074l-1.09-4.179A14.222,14.222,0,0,0,68.7,44.107V39.02a8.354,8.354,0,0,0,6.723-8.358,8.585,8.585,0,0,0-4.815-7.813q0-2.725-.273-6.268C69.249,4.589,58.984,2.5,46.265,2.5S23.19,4.589,22.282,16.581q-.273,3.543-.273,6.268a8.486,8.486,0,0,0-4.815,7.813,8.213,8.213,0,0,0,6.723,8.358v5.087a14.222,14.222,0,0,0,9.721,13.445l-1.09,4.179H23.554A14.384,14.384,0,0,0,9.2,76.085v8.994A3.741,3.741,0,0,0,12.925,88.8H79.606a3.741,3.741,0,0,0,3.725-3.725V76.085A14.249,14.249,0,0,0,69.068,61.732Zm-40.7-17.624V36.749a2,2,0,0,0-.818-1.726,2.079,2.079,0,0,0-1.908-.363H25.1c-1.908,0-3.452-1.817-3.452-4.088a4.038,4.038,0,0,1,2.271-3.725V27.3a2.18,2.18,0,0,0,4.361,0V22.849a9.587,9.587,0,0,1,1.363-4.815c4,1.544,9.9,2.544,16.625,2.544,6.632,0,12.628-1,16.625-2.544a9.856,9.856,0,0,1,1.363,4.815V27.3a2.18,2.18,0,1,0,4.361,0v-.454a3.893,3.893,0,0,1,2.271,3.725c0,2.271-1.544,4.088-3.452,4.088h-.545a2.379,2.379,0,0,0-1.908.363,2.237,2.237,0,0,0-.818,1.726v7.359a9.828,9.828,0,0,1-9.811,9.811H38.18A9.771,9.771,0,0,1,28.369,44.107ZM54.532,67.818l-5.9,4.451a3.821,3.821,0,0,1-4.724,0L38,67.818a3.946,3.946,0,0,1-1.454-4.179l1.363-5.269H54.441L55.8,63.639A3.578,3.578,0,0,1,54.532,67.818Z" transform="translate(-9.2 -2.5)" fill="#327495"/>
        <circle id="Ellipse_508" data-name="Ellipse 508" cx="3.906" cy="3.906" r="3.906" transform="translate(24.892 23.529)" fill="#327495"/>
        <circle id="Ellipse_509" data-name="Ellipse 509" cx="3.906" cy="3.906" r="3.906" transform="translate(41.244 23.529)" fill="#327495"/>
        <path id="Path_1509" data-name="Path 1509" d="M44.751,48.216c2.089-.273,3.27-1,3.906-2,.636,1,1.817,1.726,3.906,2a16.948,16.948,0,0,0,8.9-1.635,1.171,1.171,0,0,0-.182-2.18,40.46,40.46,0,0,1-8.721-3.543,3.385,3.385,0,0,0-3.816.363,3.385,3.385,0,0,0-3.816-.363A40.461,40.461,0,0,1,36.212,44.4a1.154,1.154,0,0,0-.182,2.18A15.99,15.99,0,0,0,44.751,48.216Z" transform="translate(-11.592 -5.973)" fill="#327495"/>
      </g>
    </g>
  </g>
</svg>
