<svg xmlns="http://www.w3.org/2000/svg" width="300" viewBox="0 0 360.585 365.999">
  <g id="Your_Icons" data-name="Your Icons" transform="translate(-3.91 -1.806)">
    <path id="Path_1599" data-name="Path 1599" d="M40.869,72.283,76.86,93.118l.36.28a4,4,0,0,0,2,.52h0a4,4,0,0,0,2-.52l.36-.28,35.991-20.835a4,4,0,0,0,2-3.479V26.855a4,4,0,0,0-2-3.439,2.559,2.559,0,0,0-.76-.32L80.819,2.342a4,4,0,0,0-4,0L40.869,23.336a4,4,0,0,0-2,3.479h0V68.8a4,4,0,0,0,2,3.479Zm70.981-5.718L83.378,82.921V50.209l28.473-16.436ZM79.379,10.58l28.552,16.476-4.6,2.639-23.954,13.6L50.867,26.815ZM46.868,33.774,75.38,50.209V82.921L46.868,66.565Z" transform="translate(104.843 0)" fill="#888"/>
    <path id="Path_1600" data-name="Path 1600" d="M117.939,91.866a2.8,2.8,0,0,0-.8-.32L81.149,70.832a4,4,0,0,0-4,0L40.839,91.786a4,4,0,0,0-2,3.479h0v42.029a4,4,0,0,0,2,3.439L76.83,161.568l.36.28a4,4,0,0,0,2,.56h0a4,4,0,0,0,2-.56l.36-.28,35.991-20.835a4,4,0,0,0,2-3.439V95.345A4,4,0,0,0,117.939,91.866ZM75.47,151.411,47.038,134.975V102.264L75.47,118.7Zm4-39.67L50.917,95.265,79.469,78.91l28.552,16.476ZM111.9,134.975,83.468,151.411V118.7L111.9,102.264Z" transform="translate(104.753 205.398)" fill="#888"/>
    <path id="Path_1601" data-name="Path 1601" d="M5.909,90.763,41.9,111.6a2.837,2.837,0,0,0,.36.28,4,4,0,0,0,2,.52h0a4,4,0,0,0,2-.52,2.837,2.837,0,0,0,.36-.28L82.609,90.763a4,4,0,0,0,2-3.479V45.335a4,4,0,0,0-2-3.439,3.359,3.359,0,0,0-.8-.32L45.819,20.862a4,4,0,0,0-4,0L5.909,41.816a4,4,0,0,0-2,3.479h0V87.284a4,4,0,0,0,2,3.479ZM76.931,85,48.458,101.4V68.689l28.473-16.4ZM44.259,28.94,72.812,45.415,44.459,61.771,15.907,45.3ZM11.908,52.294l28.353,16.4V101.4L11.908,85Z" transform="translate(0 55.541)" fill="#888"/>
    <path id="Path_1602" data-name="Path 1602" d="M84.929,118.314V76.365a4,4,0,0,0-2-3.439l-.8-.36L46.139,51.892a4,4,0,0,0-4,0L5.909,72.846a4,4,0,0,0-2,3.479h0v41.989a4,4,0,0,0,2,3.479L41.9,142.628a2.843,2.843,0,0,0,.36.28,4,4,0,0,0,2,.52h0a4,4,0,0,0,2-.52,2.843,2.843,0,0,0,.36-.28l35.991-20.835A4,4,0,0,0,84.929,118.314ZM40.26,132.431l-28.473-16.4V83.324l28.473,16.4Zm4-39.63L15.907,76.325,44.259,59.97,72.812,76.445Zm32.471,23.234-28.473,16.4V99.719l28.473-16.4Z" transform="translate(0 148.598)" fill="#888"/>
    <path id="Path_1603" data-name="Path 1603" d="M154.929,45.3a4,4,0,0,0-2-3.479l-36.35-20.954a4,4,0,0,0-4,0L76.589,41.576a2.8,2.8,0,0,0-.8.32,4,4,0,0,0-2,3.439V87.284a4,4,0,0,0,2,3.479L111.78,111.6l.32.28a4,4,0,0,0,2,.52h0a4,4,0,0,0,2-.52l.36-.28,35.991-20.835a4,4,0,0,0,2-3.479V45.335h0ZM110.34,101.281l-28.433-16.4V52.294l28.433,16.4Zm4-39.63L86.027,45.415,114.619,28.94,142.972,45.3Zm32.591,23.234L118.618,101.4V68.689l28.473-16.4Z" transform="translate(209.566 55.541)" fill="#888"/>
    <path id="Path_1604" data-name="Path 1604" d="M152.929,72.846l-36.35-20.954a4,4,0,0,0-4,0L76.589,72.566a4.836,4.836,0,0,0-.8.36,4,4,0,0,0-2,3.439v41.949a4,4,0,0,0,2,3.479l35.991,20.835.32.28a4,4,0,0,0,2,.52h0a4,4,0,0,0,2-.52l.36-.28,35.991-20.835a4,4,0,0,0,2-3.479V76.365h0a4,4,0,0,0-1.52-3.519ZM110.34,132.431l-28.433-16.4V83.324l28.433,16.4Zm4-39.63L86.027,76.445,114.619,59.97l28.353,16.356Zm32.591,23.234-28.313,16.4V99.719l28.473-16.4Z" transform="translate(209.566 148.598)" fill="#888"/>
    <path id="Path_1605" data-name="Path 1605" d="M68.954,21.429a1.879,1.879,0,0,0,1,.28,2,2,0,1,0-1-.28Z" transform="translate(192.128 47.695)" fill="#888"/>
    <path id="Path_1606" data-name="Path 1606" d="M63.773,18.429a1.72,1.72,0,0,0,1,.28,2,2,0,1,0-1.76-3,1.959,1.959,0,0,0,.76,2.719Z" transform="translate(176.435 38.698)" fill="#888"/>
    <path id="Path_1607" data-name="Path 1607" d="M75.884,25.429a1.8,1.8,0,0,0,1,.28,2,2,0,1,0-1-.28Z" transform="translate(212.911 59.691)" fill="#888"/>
    <path id="Path_1608" data-name="Path 1608" d="M72.363,23.428a1.88,1.88,0,0,0,1,.28,2,2,0,1,0-1.72-2.839,2.039,2.039,0,0,0,.72,2.559Z" transform="translate(202.556 53.694)" fill="#888"/>
    <path id="Path_1609" data-name="Path 1609" d="M67.372,20.506a1.8,1.8,0,0,0,1,.28,2.29,2.29,0,1,0-1-.28Z" transform="translate(186.792 44.619)" fill="#888"/>
    <path id="Path_1610" data-name="Path 1610" d="M74.3,24.506a1.72,1.72,0,0,0,1,.28,2.29,2.29,0,1,0-1-.28Z" transform="translate(207.575 56.615)" fill="#888"/>
    <path id="Path_1611" data-name="Path 1611" d="M70.618,22.352a1.879,1.879,0,0,0,1,.28,2.079,2.079,0,0,0,1.76-1,2.039,2.039,0,0,0-.76-2.719,2,2,0,0,0-2,3.439Z" transform="translate(197.583 50.771)" fill="#888"/>
    <path id="Path_1612" data-name="Path 1612" d="M62.043,17.44a1.879,1.879,0,0,0,1,.28,1.919,1.919,0,0,0,1.72-1,2,2,0,1,0-2.719.72Z" transform="translate(171.327 35.689)" fill="#888"/>
    <path id="Path_1613" data-name="Path 1613" d="M65.642,19.506a1.8,1.8,0,0,0,1,.28,2.29,2.29,0,1,0-1-.28Z" transform="translate(181.604 41.62)" fill="#888"/>
    <path id="Path_1614" data-name="Path 1614" d="M77.614,26.429a1.8,1.8,0,0,0,1,.28,2,2,0,1,0-1-.28Z" transform="translate(218.099 62.69)" fill="#888"/>
    <path id="Path_1615" data-name="Path 1615" d="M60.294,16.429a1.88,1.88,0,0,0,1,.28,2,2,0,1,0-1-.28Z" transform="translate(166.157 32.7)" fill="#888"/>
    <path id="Path_1616" data-name="Path 1616" d="M85.439,49.889a2,2,0,0,0,2-2.039,1.959,1.959,0,0,0-2-1.96,2,2,0,0,0-2,1.96A2.039,2.039,0,0,0,85.439,49.889Z" transform="translate(238.506 132.205)" fill="#888"/>
    <path id="Path_1617" data-name="Path 1617" d="M85.439,47.879a1.959,1.959,0,0,0,2-1.959,2,2,0,0,0-2-2.039,2.039,2.039,0,0,0-2,2.039A2,2,0,0,0,85.439,47.879Z" transform="translate(238.506 126.178)" fill="#888"/>
    <path id="Path_1618" data-name="Path 1618" d="M85.439,53.879a2,2,0,1,0-2-2A2,2,0,0,0,85.439,53.879Z" transform="translate(238.506 144.171)" fill="#888"/>
    <path id="Path_1619" data-name="Path 1619" d="M85.168,51.889a2.039,2.039,0,1,0-1.638-2A2.039,2.039,0,0,0,85.168,51.889Z" transform="translate(238.778 138.203)" fill="#888"/>
    <path id="Path_1620" data-name="Path 1620" d="M60.335,81.133a2,2,0,0,0,1,3.719,1.879,1.879,0,0,0,1-.28,2,2,0,0,0-2-3.439Z" transform="translate(166.277 237.365)" fill="#888"/>
    <path id="Path_1621" data-name="Path 1621" d="M72.47,74.287a1.96,1.96,0,0,0-.72,2.719,2,2,0,0,0,1.76,1,1.68,1.68,0,0,0,.96-.28,2,2,0,1,0-2-3.439Z" transform="translate(202.608 216.219)" fill="#888"/>
    <path id="Path_1622" data-name="Path 1622" d="M62.065,80.133a2,2,0,0,0,1,3.719,1.8,1.8,0,0,0,1-.28,2,2,0,0,0-2-3.439Z" transform="translate(171.465 234.366)" fill="#888"/>
    <path id="Path_1623" data-name="Path 1623" d="M70.735,75.287a2,2,0,0,0,1,3.719,1.8,1.8,0,0,0,1-.28,2,2,0,1,0-2-3.439Z" transform="translate(197.466 219.218)" fill="#888"/>
    <path id="Path_1624" data-name="Path 1624" d="M75.952,72.287a2,2,0,0,0-.76,2.719,2.039,2.039,0,0,0,1.76,1,1.879,1.879,0,0,0,1-.28,2,2,0,1,0-2-3.439Z" transform="translate(213.003 210.221)" fill="#888"/>
    <path id="Path_1625" data-name="Path 1625" d="M74.195,73.195a2,2,0,0,0,1,3.719,1.68,1.68,0,0,0,.96-.28,1.979,1.979,0,1,0-1.96-3.439Z" transform="translate(207.842 213.312)" fill="#888"/>
    <path id="Path_1626" data-name="Path 1626" d="M67.265,77.133a2,2,0,0,0,1,3.719,1.88,1.88,0,0,0,1-.28,2,2,0,0,0-2-3.439Z" transform="translate(187.06 225.37)" fill="#888"/>
    <path id="Path_1627" data-name="Path 1627" d="M68.995,76.133a2,2,0,0,0,1,3.719,1.879,1.879,0,0,0,1-.28,2,2,0,0,0-2-3.439Z" transform="translate(192.248 222.371)" fill="#888"/>
    <path id="Path_1628" data-name="Path 1628" d="M65.573,78.2a1.96,1.96,0,0,0-.76,2.719,2,2,0,0,0,1.76,1,1.88,1.88,0,0,0,1-.28,1.989,1.989,0,1,0-2-3.439Z" transform="translate(181.833 228.302)" fill="#888"/>
    <path id="Path_1629" data-name="Path 1629" d="M63.795,79.287a2,2,0,0,0,1,3.719,1.8,1.8,0,0,0,1-.28,2,2,0,1,0-2-3.439Z" transform="translate(176.653 231.214)" fill="#888"/>
    <path id="Path_1630" data-name="Path 1630" d="M77.655,71.133a2,2,0,0,0,1,3.719,1.8,1.8,0,0,0,1-.28,2,2,0,0,0-2-3.439Z" transform="translate(218.219 207.376)" fill="#888"/>
    <path id="Path_1631" data-name="Path 1631" d="M30.381,75.287a2,2,0,1,0-2,3.439,1.679,1.679,0,0,0,.96.28,2,2,0,0,0,1.04-3.719Z" transform="translate(69.863 219.218)" fill="#888"/>
    <path id="Path_1632" data-name="Path 1632" d="M32.141,76.287a2,2,0,1,0-2,3.439,1.8,1.8,0,0,0,1,.28,2,2,0,0,0,1-3.719Z" transform="translate(75.141 222.217)" fill="#888"/>
    <path id="Path_1633" data-name="Path 1633" d="M23.481,71.287a2,2,0,1,0-2,3.439,1.8,1.8,0,0,0,1,.28,2,2,0,0,0,1-3.719Z" transform="translate(49.171 207.222)" fill="#888"/>
    <path id="Path_1634" data-name="Path 1634" d="M33.871,77.287a2,2,0,1,0-2,3.439,1.8,1.8,0,0,0,1,.28,2,2,0,0,0,1-3.719Z" transform="translate(80.33 225.216)" fill="#888"/>
    <path id="Path_1635" data-name="Path 1635" d="M28.671,74.287a2,2,0,1,0-2,3.439,1.88,1.88,0,0,0,1,.28,2.039,2.039,0,0,0,1.76-1,1.96,1.96,0,0,0-.76-2.719Z" transform="translate(64.735 216.219)" fill="#888"/>
    <path id="Path_1636" data-name="Path 1636" d="M26.941,73.287a2,2,0,1,0-2,3.439,1.879,1.879,0,0,0,1,.28,2,2,0,0,0,1-3.719Z" transform="translate(59.547 213.22)" fill="#888"/>
    <path id="Path_1637" data-name="Path 1637" d="M35.6,78.287a2,2,0,1,0-2,3.439,1.88,1.88,0,0,0,1,.28,2,2,0,0,0,1-3.719Z" transform="translate(85.518 228.215)" fill="#888"/>
    <path id="Path_1638" data-name="Path 1638" d="M25.211,72.287a2,2,0,1,0-2,3.439,1.8,1.8,0,0,0,1,.28,2,2,0,0,0,1-3.719Z" transform="translate(54.359 210.221)" fill="#888"/>
    <path id="Path_1639" data-name="Path 1639" d="M39.071,80.287a2,2,0,1,0-2,3.439,1.72,1.72,0,0,0,1,.28,2,2,0,0,0,1-3.719Z" transform="translate(95.924 234.213)" fill="#888"/>
    <path id="Path_1640" data-name="Path 1640" d="M37.381,79.287a2,2,0,1,0-2,3.439,1.879,1.879,0,0,0,1,.28,2,2,0,0,0,1-3.719Z" transform="translate(90.856 231.214)" fill="#888"/>
    <path id="Path_1641" data-name="Path 1641" d="M40.8,81.287a2,2,0,1,0-2,3.439,1.8,1.8,0,0,0,1,.28,2,2,0,0,0,1-3.719Z" transform="translate(101.112 237.212)" fill="#888"/>
    <circle id="Ellipse_541" data-name="Ellipse 541" cx="1.999" cy="1.999" r="1.999" transform="translate(42.42 185.893)" fill="#888"/>
    <circle id="Ellipse_542" data-name="Ellipse 542" cx="1.999" cy="1.999" r="1.999" transform="translate(42.42 169.898)" fill="#888"/>
    <circle id="Ellipse_543" data-name="Ellipse 543" cx="1.999" cy="1.999" r="1.999" transform="translate(42.42 193.891)" fill="#888"/>
    <circle id="Ellipse_544" data-name="Ellipse 544" cx="1.999" cy="1.999" r="1.999" transform="translate(42.42 177.896)" fill="#888"/>
    <path id="Path_1642" data-name="Path 1642" d="M22.319,26.709a2.319,2.319,0,0,0,1.04-.24,2.039,2.039,0,0,0,.72-2.759,2,2,0,1,0-1.76,3Z" transform="translate(49.294 62.69)" fill="#888"/>
    <path id="Path_1643" data-name="Path 1643" d="M24.054,25.7a2.159,2.159,0,0,0,1-.24,2.028,2.028,0,1,0-1,.24Z" transform="translate(54.476 59.701)" fill="#888"/>
    <path id="Path_1644" data-name="Path 1644" d="M34.5,19.731a2.359,2.359,0,0,0,1-.28,2,2,0,0,0,.72-2.719,2.039,2.039,0,0,0-2.719-.76,2.079,2.079,0,0,0-.76,2.759,2.039,2.039,0,0,0,1.76,1Z" transform="translate(85.736 41.756)" fill="#888"/>
    <path id="Path_1645" data-name="Path 1645" d="M31,21.719a2.279,2.279,0,0,0,1-.24,2.039,2.039,0,0,0,.72-2.759,2,2,0,1,0-1.72,3Z" transform="translate(75.204 47.725)" fill="#888"/>
    <path id="Path_1646" data-name="Path 1646" d="M36.2,18.806a1.88,1.88,0,0,0,1-.28,2,2,0,1,0-2-3.439,1.959,1.959,0,0,0-.76,2.719,2,2,0,0,0,1.76,1Z" transform="translate(90.755 38.681)" fill="#888"/>
    <path id="Path_1647" data-name="Path 1647" d="M32.727,20.694a2.279,2.279,0,0,0,1-.24,2,2,0,1,0-2.759-.76,2.079,2.079,0,0,0,1.76,1Z" transform="translate(80.395 44.751)" fill="#888"/>
    <path id="Path_1648" data-name="Path 1648" d="M29.237,22.659a1.88,1.88,0,0,0,1-.28,1.959,1.959,0,1,0-1,.28Z" transform="translate(70.048 50.784)" fill="#888"/>
    <path id="Path_1649" data-name="Path 1649" d="M25.791,24.723a1.8,1.8,0,0,0,1-.28,2.039,2.039,0,0,0,.76-2.719,2.079,2.079,0,0,0-2.759-.76,2.039,2.039,0,0,0-.72,2.759,2,2,0,0,0,1.72,1Z" transform="translate(59.657 56.718)" fill="#888"/>
    <path id="Path_1650" data-name="Path 1650" d="M39.67,16.721a2.119,2.119,0,0,0,.96-.24,2.079,2.079,0,0,0,.76-2.759A2.039,2.039,0,0,0,38.63,13a1.959,1.959,0,0,0-.72,2.719A2,2,0,0,0,39.67,16.721Z" transform="translate(101.124 32.769)" fill="#888"/>
    <path id="Path_1651" data-name="Path 1651" d="M27.477,23.659a1.8,1.8,0,0,0,1-.28,1.959,1.959,0,1,0-1,.28Z" transform="translate(64.77 53.783)" fill="#888"/>
    <path id="Path_1652" data-name="Path 1652" d="M37.918,17.669a1.68,1.68,0,0,0,.96-.28,1.959,1.959,0,1,0-.96.28Z" transform="translate(95.958 35.82)" fill="#888"/>
    <path id="Path_1653" data-name="Path 1653" d="M27.1,37.158a2.008,2.008,0,0,0-1.04,3.879h.52a2.079,2.079,0,0,0,1.959-1.48,2.039,2.039,0,0,0-1.44-2.4Z" transform="translate(62.028 105.827)" fill="#888"/>
    <path id="Path_1654" data-name="Path 1654" d="M38.717,40.37a1.96,1.96,0,0,0-2.479,1.4,2,2,0,0,0,1.44,2.439h.48a2.019,2.019,0,1,0,.56-4Z" transform="translate(96.758 115.172)" fill="#888"/>
    <path id="Path_1655" data-name="Path 1655" d="M31.867,42.649h.52a2,2,0,1,0-1.919-2.6,2.079,2.079,0,0,0,1.4,2.6Z" transform="translate(79.375 110.493)" fill="#888"/>
    <path id="Path_1656" data-name="Path 1656" d="M33.8,43.219h.56a2.03,2.03,0,1,0-1.959-2.6,2.079,2.079,0,0,0,1.4,2.6Z" transform="translate(85.163 112.002)" fill="#888"/>
    <path id="Path_1657" data-name="Path 1657" d="M28.006,41.6h.52a2.079,2.079,0,0,0,1.959-1.48,2,2,0,0,0-1.44-2.439,1.959,1.959,0,0,0-2.439,1.4,2,2,0,0,0,1.4,2.519Z" transform="translate(67.8 107.347)" fill="#888"/>
    <path id="Path_1658" data-name="Path 1658" d="M29.936,42.116a1.28,1.28,0,0,0,.52,0,2.039,2.039,0,0,0,1.959-1.48,2,2,0,0,0-1.44-2.439,1.959,1.959,0,0,0-2.439,1.4,2,2,0,0,0,1.4,2.519Z" transform="translate(73.588 108.907)" fill="#888"/>
    <path id="Path_1659" data-name="Path 1659" d="M36.787,39.769a2.039,2.039,0,0,0-2.479,1.44,2,2,0,0,0,1.44,2.439h.52a2,2,0,0,0,1.92-1.48,2.079,2.079,0,0,0-1.4-2.4Z" transform="translate(90.97 113.653)" fill="#888"/>
    <path id="Path_1660" data-name="Path 1660" d="M50.5,29.34a2,2,0,0,0,0,4h0a2,2,0,0,0,0-4Z" transform="translate(133.723 82.573)" fill="#888"/>
    <path id="Path_1661" data-name="Path 1661" d="M50.5,33.34a2,2,0,0,0,0,4h0a2,2,0,1,0,0-4Z" transform="translate(133.723 94.569)" fill="#888"/>
    <path id="Path_1662" data-name="Path 1662" d="M50.529,25.34a2.04,2.04,0,0,0-2.039,2,2,2,0,0,0,2,2h0a2,2,0,0,0,0-4Z" transform="translate(133.693 70.577)" fill="#888"/>
    <path id="Path_1663" data-name="Path 1663" d="M50.5,31.34a2,2,0,0,0,0,4h0a2,2,0,1,0,0-4Z" transform="translate(133.723 88.571)" fill="#888"/>
    <path id="Path_1664" data-name="Path 1664" d="M50.5,27.34a2,2,0,0,0,0,4h0a2,2,0,1,0,0-4Z" transform="translate(133.723 76.575)" fill="#888"/>
    <path id="Path_1665" data-name="Path 1665" d="M50.5,68.839a1.96,1.96,0,0,0,2-1.96,2,2,0,1,0-2,1.96Z" transform="translate(133.723 189.156)" fill="#888"/>
    <path id="Path_1666" data-name="Path 1666" d="M50.5,70.869a2,2,0,1,0-2-2A2,2,0,0,0,50.5,70.869Z" transform="translate(133.723 195.123)" fill="#888"/>
    <path id="Path_1667" data-name="Path 1667" d="M50.5,72.869a1.959,1.959,0,0,0,2-1.959,2,2,0,1,0-2,1.959Z" transform="translate(133.723 201.121)" fill="#888"/>
    <path id="Path_1668" data-name="Path 1668" d="M50.5,64.869a2,2,0,1,0,0-4,2,2,0,1,0,0,4Z" transform="translate(133.722 177.129)" fill="#888"/>
    <path id="Path_1669" data-name="Path 1669" d="M50.5,66.839a1.959,1.959,0,0,0,2-1.959,2,2,0,1,0-2,1.959Z" transform="translate(133.723 183.158)" fill="#888"/>
    <path id="Path_1670" data-name="Path 1670" d="M50.5,62.869h0a2,2,0,1,0-2-2A2,2,0,0,0,50.5,62.869Z" transform="translate(133.723 171.132)" fill="#888"/>
    <path id="Path_1671" data-name="Path 1671" d="M25.525,56.722a1.959,1.959,0,0,0-1.24,2.519,1.92,1.92,0,0,0,1.88,1.36h.64a2.079,2.079,0,0,0,1.28-2.559,2.039,2.039,0,0,0-2.559-1.32Z" transform="translate(60.764 164.402)" fill="#888"/>
    <path id="Path_1672" data-name="Path 1672" d="M37.571,54.827a2,2,0,0,0-2.519-1.24,1.96,1.96,0,0,0-1.28,2.519,2,2,0,0,0,1.92,1.36h.6a2.079,2.079,0,0,0,1.28-2.639Z" transform="translate(89.227 154.98)" fill="#888"/>
    <path id="Path_1673" data-name="Path 1673" d="M38.441,56.771a2,2,0,1,0-1.24-3.8,2.022,2.022,0,1,0,.6,4,1.64,1.64,0,0,0,.64-.2Z" transform="translate(94.675 153.076)" fill="#888"/>
    <path id="Path_1674" data-name="Path 1674" d="M39.741,56.143a1.76,1.76,0,0,0,.64,0,2.039,2.039,0,0,0,1.28-2.519,2,2,0,0,0-2.519-1.28,2.022,2.022,0,1,0,.6,4Z" transform="translate(100.493 151.265)" fill="#888"/>
    <path id="Path_1675" data-name="Path 1675" d="M27.689,56.072a2.025,2.025,0,1,0,.64,4,1.879,1.879,0,0,0,.64,0,2,2,0,0,0,1.24-2.559,1.959,1.959,0,0,0-2.519-1.44Z" transform="translate(66.197 162.453)" fill="#888"/>
    <path id="Path_1676" data-name="Path 1676" d="M35.657,55.476a2.039,2.039,0,0,0-2.519-1.28,2.079,2.079,0,0,0-1.28,2.559,2,2,0,0,0,1.919,1.36,1.6,1.6,0,0,0,.6,0,2,2,0,0,0,1.28-2.639Z" transform="translate(83.543 156.85)" fill="#888"/>
    <path id="Path_1677" data-name="Path 1677" d="M29.589,55.452a2.025,2.025,0,0,0,.64,4h.6a1.96,1.96,0,0,0,1.28-2.519,2,2,0,0,0-2.519-1.48Z" transform="translate(71.896 160.634)" fill="#888"/>
    <path id="Path_1678" data-name="Path 1678" d="M33.781,56.168a2,2,0,1,0-3.8,1.24,2.039,2.039,0,0,0,1.919,1.4h.6a1.959,1.959,0,0,0,1.28-2.639Z" transform="translate(77.82 158.678)" fill="#888"/>
    <path id="Path_1679" data-name="Path 1679" d="M70.64,40.13a2,2,0,0,0,1.919,1.48h.52a2,2,0,0,0,1.44-2.439,2.066,2.066,0,1,0-4,1.04Z" transform="translate(199.56 107.414)" fill="#888"/>
    <path id="Path_1680" data-name="Path 1680" d="M68.624,40.609a2,2,0,0,0,1.92,1.48,1.08,1.08,0,0,0,.52,0,2,2,0,1,0-2.439-1.4Z" transform="translate(193.858 109.014)" fill="#888"/>
    <path id="Path_1681" data-name="Path 1681" d="M66.161,39.31a2.039,2.039,0,0,0-1.4,2.479,1.959,1.959,0,0,0,1.919,1.44h.52a2.066,2.066,0,0,0-1.04-4Z" transform="translate(182.285 112.032)" fill="#888"/>
    <path id="Path_1682" data-name="Path 1682" d="M68.1,38.79a2,2,0,0,0-1.4,2.439,1.96,1.96,0,0,0,1.92,1.48h.52a2.066,2.066,0,0,0-1.04-4Z" transform="translate(188.104 110.473)" fill="#888"/>
    <path id="Path_1683" data-name="Path 1683" d="M75.05,41.069a2,2,0,0,0,1.4-2.439,2.066,2.066,0,1,0-4,1.04,2,2,0,0,0,1.92,1.48Z" transform="translate(205.348 105.795)" fill="#888"/>
    <path id="Path_1684" data-name="Path 1684" d="M64.751,43.667h.52a1.959,1.959,0,0,0,1.4-2.439,2,2,0,0,0-2.439-1.44,2.039,2.039,0,0,0-1.4,2.479A2,2,0,0,0,64.751,43.667Z" transform="translate(176.497 113.714)" fill="#888"/>
    <path id="Path_1685" data-name="Path 1685" d="M123.876,60.873a2.039,2.039,0,0,0,1.4-2.479,1.959,1.959,0,0,0-3.719-.24,3.679,3.679,0,0,0-1.32-1.28,2.8,2.8,0,0,0-.8-.32L83.446,35.84a4,4,0,0,0-1.64-.48h-.68a3.559,3.559,0,0,0-1.68.48L43.137,56.794a4.6,4.6,0,0,0-1.28,1.2,1.96,1.96,0,0,0-1.24-1,2.039,2.039,0,0,0-2.479,1.4,2,2,0,0,0,1.44,2.439,1.2,1.2,0,0,0,.52,0,1.919,1.919,0,0,0,1.04-.36V102.3a4,4,0,0,0,2,3.439l35.991,20.835.36.28a4,4,0,0,0,2,.56h0a4,4,0,0,0,2-.56l.36-.28,35.991-20.835a4,4,0,0,0,2-3.439V60.513a1.92,1.92,0,0,0,1.12.4ZM77.768,116.419,49.335,99.983V67.272L77.768,83.707Zm4-39.67L53.214,60.273,81.767,43.918l28.552,16.476ZM114.2,99.983,85.766,116.419V83.707L114.2,67.272Z" transform="translate(102.456 100.627)" fill="#888"/>
    <path id="Path_1686" data-name="Path 1686" d="M63.346,44.259a2.066,2.066,0,0,0-1.04-4,1.959,1.959,0,0,0-1.4,2.439,2,2,0,0,0,1.919,1.48Z" transform="translate(170.703 115.121)" fill="#888"/>
    <path id="Path_1687" data-name="Path 1687" d="M74.976,58.685a2.093,2.093,0,1,0-4-1.24,2.039,2.039,0,0,0,1.28,2.519h.64a1.96,1.96,0,0,0,2.079-1.28Z" transform="translate(200.863 162.439)" fill="#888"/>
    <path id="Path_1688" data-name="Path 1688" d="M72.916,57.963a1.96,1.96,0,0,0-1.28-2.519,2,2,0,0,0-2.519,1.28,2.039,2.039,0,0,0,1.28,2.519,1.8,1.8,0,0,0,.64,0A2,2,0,0,0,72.916,57.963Z" transform="translate(195.285 160.562)" fill="#888"/>
    <path id="Path_1689" data-name="Path 1689" d="M64.011,53.03a2,2,0,0,0-1.24,3.8,1.56,1.56,0,0,0,.6,0,2.025,2.025,0,1,0,.64-4Z" transform="translate(172.597 153.018)" fill="#888"/>
    <path id="Path_1690" data-name="Path 1690" d="M69.786,54.91a2.079,2.079,0,0,0-2.559,1.28,2.039,2.039,0,0,0,1.28,2.519,1.8,1.8,0,0,0,.64,0,2.025,2.025,0,1,0,.64-4Z" transform="translate(189.617 158.656)" fill="#888"/>
    <path id="Path_1691" data-name="Path 1691" d="M76.727,59.246a1.959,1.959,0,0,0-1.28-2.519,2,2,0,0,0-2.519,1.24,2.079,2.079,0,0,0,1.28,2.559h.64a1.959,1.959,0,0,0,1.879-1.28Z" transform="translate(206.71 164.397)" fill="#888"/>
    <path id="Path_1692" data-name="Path 1692" d="M62.235,52.321a2.093,2.093,0,1,0-1.24,4,1.639,1.639,0,0,0,.64,0,2.022,2.022,0,0,0,.6-4Z" transform="translate(166.776 151.208)" fill="#888"/>
    <path id="Path_1693" data-name="Path 1693" d="M65.972,53.66a1.959,1.959,0,0,0-2.519,1.24,2,2,0,0,0,1.28,2.559h.6a2.025,2.025,0,1,0,.64-4Z" transform="translate(178.235 154.908)" fill="#888"/>
    <path id="Path_1694" data-name="Path 1694" d="M67.874,54.2a2,2,0,0,0-2.519,1.28A1.959,1.959,0,0,0,66.594,58h.64a2,2,0,0,0,1.92-1.36A2.079,2.079,0,0,0,67.874,54.2Z" transform="translate(183.931 156.843)" fill="#888"/>
  </g>
</svg>
