<svg xmlns="http://www.w3.org/2000/svg" width="100%" viewBox="0 0 66.156 61.373">
    <g id="prefix___5ebeb884c7ce7920fe08d8dd_noun_date_1828460" data-name="5ebeb884c7ce7920fe08d8dd_noun_date_1828460" transform="translate(.35 .35)">
        <path id="prefix__Path_1717" fill="#888" stroke="#f9f9f9" stroke-width="0.7px" d="M61.151 60a2.786 2.786 0 0 0-2.786 2.786v2.741h-4.84a8.987 8.987 0 0 0-8.977 8.973v37.2a8.987 8.987 0 0 0 8.977 8.977h47.5A8.987 8.987 0 0 0 110 111.7V74.5a8.987 8.987 0 0 0-8.977-8.977h-4.145v-2.737a2.786 2.786 0 0 0-5.572 0v2.741H63.937v-2.741A2.786 2.786 0 0 0 61.151 60zm43.281 51.7a3.409 3.409 0 0 1-3.405 3.405h-47.5a3.409 3.409 0 0 1-3.407-3.405V88.37h54.312zM91.306 71.1v2.74a2.786 2.786 0 1 0 5.572 0V71.1h4.149a3.409 3.409 0 0 1 3.405 3.405V82.8H50.12v-8.3a3.409 3.409 0 0 1 3.405-3.4h4.84v2.74a2.786 2.786 0 1 0 5.572 0V71.1z" data-name="Path 1717" transform="translate(-44.548 -60)"/>
    </g>
</svg>
