<svg xmlns="http://www.w3.org/2000/svg" width="34" viewBox="0 0 38.839 49">
  <g id="Group_2055" data-name="Group 2055" transform="translate(-12.5 -2.5)">
    <path id="Path_1713" data-name="Path 1713" d="M50.565,26.072H46.9A16.317,16.317,0,0,0,33.286,16.014v-5h6.551a1.2,1.2,0,0,0,1.186-1.186V5.7a1.2,1.2,0,0,0-1.186-1.186H33.286V3.944a1.444,1.444,0,0,0-2.888,0V16.065A16.226,16.226,0,0,0,16.781,26.123H13.119a.627.627,0,0,0-.619.619V28.7a.627.627,0,0,0,.619.619h37.5a.627.627,0,0,0,.619-.619v-1.96A.683.683,0,0,0,50.565,26.072Z" transform="translate(0)" fill="#888"/>
    <path id="Path_1714" data-name="Path 1714" d="M50.662,75.8H47.619V60.019A.627.627,0,0,0,47,59.4H45.04a.627.627,0,0,0-.619.619V75.854H40.6V60.019a.627.627,0,0,0-.619-.619h-1.96a.627.627,0,0,0-.619.619V75.854H33.589V60.019a.627.627,0,0,0-.619-.619h-1.96a.627.627,0,0,0-.619.619V75.854H26.575V60.019a.627.627,0,0,0-.619-.619H24a.627.627,0,0,0-.619.619V75.854H19.56V60.019a.627.627,0,0,0-.619-.619h-1.96a.627.627,0,0,0-.619.619V75.854H13.319a.627.627,0,0,0-.619.619v1.96a.627.627,0,0,0,.619.619h37.5a.627.627,0,0,0,.619-.619v-1.96A.873.873,0,0,0,50.662,75.8Z" transform="translate(-0.097 -27.552)" fill="#888"/>
  </g>
</svg>
