<svg xmlns="http://www.w3.org/2000/svg" width="105.897" height="110" viewBox="0 0 105.897 110">
  <path id="noun_Stamp_831862" d="M153.994,61.767a11.309,11.309,0,0,0,0,13.506,11.309,11.309,0,0,1-5.763,17.572,11.309,11.309,0,0,0-7.938,10.874,11.287,11.287,0,0,1-14.919,10.874,11.309,11.309,0,0,0-12.831,4.176,11.309,11.309,0,0,1-18.442,0,11.309,11.309,0,0,0-12.831-4.176,11.287,11.287,0,0,1-14.919-10.874A11.309,11.309,0,0,0,58.3,92.845a11.309,11.309,0,0,1-5.7-17.529,11.309,11.309,0,0,0,0-13.506,11.309,11.309,0,0,1,5.7-17.594A11.309,11.309,0,0,0,66.24,33.342,11.287,11.287,0,0,1,81.159,22.468a11.309,11.309,0,0,0,12.831-4.176,11.309,11.309,0,0,1,18.442,0,11.309,11.309,0,0,0,12.831,4.176,11.287,11.287,0,0,1,14.919,10.874,11.309,11.309,0,0,0,7.938,10.874,11.309,11.309,0,0,1,5.872,17.551Zm-34.079-6.111a6.655,6.655,0,0,0-9.417,0l-11.57,11.57-2.762-2.762a6.659,6.659,0,1,0-9.417,9.417l2.762,2.762,4.719,4.719a6.677,6.677,0,0,0,9.417,0l4.676-4.719,11.57-11.57a6.655,6.655,0,0,0,.022-9.417Z" transform="translate(-50.338 -13.53)" fill="#fff"/>
</svg>
