<svg xmlns="http://www.w3.org/2000/svg" width="73" viewBox="0 0 102.11 99.701">
  <g id="noun_Compare_2794347" transform="translate(-30.772 -36.076)">
    <g id="Group_1744" data-name="Group 1744" transform="translate(30.772 36.097)">
      <g id="Group_1743" data-name="Group 1743" transform="translate(0 0)">
        <path id="Path_1504" data-name="Path 1504" d="M36.117,62.265l7.018-7.018L54.217,44.165l2.545-2.545H52.321l7.018,7.018L70.421,59.719l2.545,2.545a3.14,3.14,0,1,0,4.441-4.441L70.39,50.806,59.308,39.724l-2.545-2.545a3.181,3.181,0,0,0-4.441,0L45.3,44.2,34.221,55.278l-2.545,2.545a3.14,3.14,0,1,0,4.441,4.441Z" transform="translate(-30.772 -36.275)" fill="#53aa56"/>
      </g>
    </g>
    <g id="Group_1746" data-name="Group 1746" transform="translate(51.395 36.076)">
      <g id="Group_1745" data-name="Group 1745" transform="translate(0 0)">
        <path id="Path_1505" data-name="Path 1505" d="M227.66,39.221v73.541c0,1-.01,2,0,3v.126a3.142,3.142,0,0,0,6.285,0V42.343c0-1,.01-2,0-3v-.126a3.142,3.142,0,0,0-6.285,0Z" transform="translate(-227.656 -36.076)" fill="#53aa56"/>
      </g>
    </g>
    <g id="Group_1748" data-name="Group 1748" transform="translate(85.351 108.863)">
      <g id="Group_1747" data-name="Group 1747">
        <path id="Path_1506" data-name="Path 1506" d="M540.343,736.317l7.018,7.018,11.082,11.082,2.545,2.545a3.181,3.181,0,0,0,4.441,0l7.018-7.018,11.082-11.082,2.545-2.545a3.14,3.14,0,0,0-4.441-4.441l-7.018,7.018-11.082,11.082-2.545,2.545h4.441l-7.018-7.018L547.33,734.421l-2.545-2.545a3.14,3.14,0,0,0-4.441,4.441Z" transform="translate(-539.447 -730.972)" fill="#feb143"/>
      </g>
    </g>
    <g id="Group_1750" data-name="Group 1750" transform="translate(105.966 52.825)">
      <g id="Group_1749" data-name="Group 1749" transform="translate(0)">
        <path id="Path_1507" data-name="Path 1507" d="M742.545,275.784V202.243c0-1,.01-2,0-3v-.126a3.142,3.142,0,0,0-6.285,0v73.541c0,1-.01,2,0,3v.126a3.142,3.142,0,0,0,6.285,0Z" transform="translate(-736.256 -195.976)" fill="#feb143"/>
      </g>
    </g>
  </g>
</svg>
