<svg xmlns="http://www.w3.org/2000/svg" width="110" viewBox="0 0 151.778 207">
  <g id="Group_1948" data-name="Group 1948" transform="translate(-16724.999 -4943)">
    <g id="Rectangle_1258" data-name="Rectangle 1258" transform="translate(16725 4964)" fill="#fff" stroke="#888" stroke-width="7">
      <rect width="151" height="186" rx="9" stroke="none"/>
      <rect x="3.5" y="3.5" width="144" height="179" rx="5.5" fill="none"/>
    </g>
    <g id="Group_1843" data-name="Group 1843" transform="translate(16725 4943)">
      <g id="noun_credential_1655181" transform="translate(-0.001 0)">
        <path id="Path_1530" data-name="Path 1530" d="M41.49,134.146H64.967a3.442,3.442,0,0,0,0-6.884H41.49a3.442,3.442,0,1,0,0,6.884Z" transform="translate(-20.744 39.85)" fill="#888"/>
        <path id="Path_1531" data-name="Path 1531" d="M41.49,144.768h64.781a3.442,3.442,0,1,0,0-6.884H41.49a3.442,3.442,0,1,0,0,6.884Z" transform="translate(-20.744 43.853)" fill="#888"/>
        <circle id="Ellipse_523" data-name="Ellipse 523" cx="4.906" cy="4.906" r="4.906" transform="translate(97.126 178.81)" fill="#888"/>
        <circle id="Ellipse_524" data-name="Ellipse 524" cx="4.906" cy="4.906" r="4.906" transform="translate(110.894 178.81)" fill="#888"/>
        <circle id="Ellipse_525" data-name="Ellipse 525" cx="4.906" cy="4.906" r="4.906" transform="translate(124.662 178.81)" fill="#888"/>
        <path id="Path_1532" data-name="Path 1532" d="M115.107,130.7a3.441,3.441,0,0,0-3.442-3.442H65.542a3.442,3.442,0,0,0,0,6.884h46.123A3.442,3.442,0,0,0,115.107,130.7Z" transform="translate(-11.682 39.85)" fill="#888"/>
        <path id="Path_1533" data-name="Path 1533" d="M127.332,127.262H106.376a3.442,3.442,0,1,0,0,6.884h20.956a3.442,3.442,0,1,0,0-6.884Z" transform="translate(3.704 39.85)" fill="#888"/>
        <path id="Path_1535" data-name="Path 1535" d="M165.073,20.711H116.319l.911,9.638h47.844a2.553,2.553,0,0,1,2.547,2.561v161.7a2.553,2.553,0,0,1-2.547,2.561H37.678a2.556,2.556,0,0,1-2.561-2.561V32.909a2.556,2.556,0,0,1,2.561-2.561H81.034l.911-9.638H37.678a12.2,12.2,0,0,0-12.2,12.2v161.7a12.2,12.2,0,0,0,12.2,12.2H165.073a12.2,12.2,0,0,0,12.185-12.2V32.909A12.2,12.2,0,0,0,165.073,20.711Z" transform="translate(-25.48 -0.297)" fill="#888"/>
        <path id="Path_1536" data-name="Path 1536" d="M151.773,38.631H41.492a3.443,3.443,0,0,0-3.442,3.442V150.33a3.443,3.443,0,0,0,3.442,3.442H151.773a3.434,3.434,0,0,0,3.442-3.442V42.073A3.434,3.434,0,0,0,151.773,38.631Zm-3.442,108.257H44.934V45.515h103.4Z" transform="translate(-20.744 6.455)" fill="#888"/>
        <path id="Path_1537" data-name="Path 1537" d="M71.368,44.756H94.162a2.461,2.461,0,0,0,2.44-2.7L93.392,8.119a2.458,2.458,0,0,0-2.44-2.235H74.577a2.458,2.458,0,0,0-2.44,2.235L68.928,42.055A2.462,2.462,0,0,0,71.368,44.756Zm11.4-32.224a5.874,5.874,0,1,1-5.832,5.873A5.852,5.852,0,0,1,82.765,12.533Z" transform="translate(-9.113 -5.884)" fill="#888"/>
      </g>
      <g id="noun_Happy_2199103" transform="translate(41.304 56.449)">
        <g id="Group_1749" data-name="Group 1749" transform="translate(0 0)">
          <g id="Group_1748" data-name="Group 1748">
            <circle id="Ellipse_510" data-name="Ellipse 510" cx="3.683" cy="3.683" r="3.683" transform="translate(23.538 24.706)" fill="#484848"/>
            <circle id="Ellipse_511" data-name="Ellipse 511" cx="3.683" cy="3.683" r="3.683" transform="translate(38.991 24.706)" fill="#484848"/>
            <path id="Path_1510" data-name="Path 1510" d="M49.056,52.129a10.535,10.535,0,0,0,8.894-4.492,2.081,2.081,0,1,0-3.5-2.246,6.153,6.153,0,0,1-5.39,2.516,6.494,6.494,0,0,1-5.39-2.516,2.081,2.081,0,0,0-3.5,2.246A10.535,10.535,0,0,0,49.056,52.129Z" transform="translate(-14.018 -6.759)" fill="#484848"/>
            <path id="Path_1511" data-name="Path 1511" d="M67.52,62.333H59.075L58,58.2c9.433.809,16.531.359,14.554-19.5,1.258-1.348,1.887-3.234,1.887-5.929,0-3.324-.809-5.66-2.426-7.187A9.4,9.4,0,0,0,70.3,24.511C65.453,2.141,49.1,2.5,46.138,2.5S26.732,2.23,21.971,24.6a5.589,5.589,0,0,0-1.8,1.078c-1.617,1.437-2.426,3.773-2.426,7.187q0,4.043,1.887,5.929C17.658,58.47,24.756,59.009,34.1,58.2l-1.078,4.133H24.576A13.458,13.458,0,0,0,11.1,75.809v8.445a3.587,3.587,0,0,0,3.5,3.594H77.492A3.528,3.528,0,0,0,81,84.254V75.809A13.458,13.458,0,0,0,67.52,62.333ZM27,39.065a2.685,2.685,0,0,0-2.426-2.426c-1.527-.18-2.7-.27-2.7-3.773,0-2.7.629-3.683.988-4.043a.96.96,0,0,1,.449-.27,2.115,2.115,0,0,0,1.707,1.617,2.068,2.068,0,0,0,2.426-1.707,32.54,32.54,0,0,1,1.527-5.48c3.5.359,8.8-.809,14.285-3.414a45.863,45.863,0,0,0,7.277-4.4c.809.809,1.707,1.707,2.7,2.516,3.5,2.875,7.187,4.762,9.882,5.211a31.263,31.263,0,0,1,1.617,5.57A2.115,2.115,0,0,0,66.8,30.171h.359a2.115,2.115,0,0,0,1.707-1.617.96.96,0,0,1,.449.27c.359.359.988,1.348.988,4.043,0,3.5-1.168,3.594-2.7,3.773a2.685,2.685,0,0,0-2.426,2.426c-.539,5.39-3.953,10.242-9.972,14.464a15.962,15.962,0,0,1-18.148,0C30.865,49.217,27.541,44.365,27,39.065ZM53.864,68.083l-5.57,4.133a3.774,3.774,0,0,1-4.492,0l-5.57-4.133a3.584,3.584,0,0,1-1.348-3.953l1.437-5.211a18.912,18.912,0,0,0,7.726,1.617,20.5,20.5,0,0,0,7.726-1.617l1.437,5.211A3.835,3.835,0,0,1,53.864,68.083Z" transform="translate(-11.1 -2.5)" fill="#484848"/>
          </g>
        </g>
      </g>
    </g>
  </g>
</svg>
