<svg xmlns="http://www.w3.org/2000/svg" width="34" viewBox="0 0 42.565 51">
  <g id="_5ebeb1049a30f304ff3e7bab_noun_certified_467725" data-name="5ebeb1049a30f304ff3e7bab_noun_certified_467725" transform="translate(-28.192 -19.461)">
    <path id="Path_1715" data-name="Path 1715" d="M61.685,49.509V31.014L51.35,19.461H33.795a5.61,5.61,0,0,0-5.6,5.6V55.646a5.609,5.609,0,0,0,5.6,5.6H49.786a10.526,10.526,0,1,0,11.9-11.739Zm-9.531-24.78,4.819,5.385H52.154ZM31.1,55.646V25.064a2.694,2.694,0,0,1,2.691-2.691H49.242V33.026h9.531V49.509A10.441,10.441,0,0,0,55.362,50.6v-.056H34.516V53.46h17.42a10.477,10.477,0,0,0-2.114,4.876H33.795A2.694,2.694,0,0,1,31.1,55.646Zm29.125,11.9a7.615,7.615,0,1,1,7.616-7.616A7.623,7.623,0,0,1,60.229,67.549Z" fill="#888"/>
    <path id="Path_1716" data-name="Path 1716" d="M91.811,93.739l-4.709,4.8L84.663,96.2l-2.02,2.1,4.517,4.348,6.729-6.863Z" transform="translate(-28.023 -38.227)" fill="#888"/>
    <rect id="Rectangle_1313" data-name="Rectangle 1313" width="20.845" height="2.912" transform="translate(34.516 43.591)" fill="#888"/>
    <rect id="Rectangle_1314" data-name="Rectangle 1314" width="20.845" height="2.912" transform="translate(34.516 36.606)" fill="#888"/>
  </g>
</svg>
