<svg xmlns="http://www.w3.org/2000/svg" height="50" viewBox="0 0 52.479 66.641">
  <g id="Group_1015" data-name="Group 1015" transform="translate(-2716.083 -1218.565)">
    <g id="Group_977" data-name="Group 977" transform="translate(2716.083 1218.565)">
      <path id="Subtraction_21" data-name="Subtraction 21" d="M47.562,66.641H4.917a4.923,4.923,0,0,1-3.467-1.429A4.848,4.848,0,0,1,0,61.777V4.864A4.849,4.849,0,0,1,1.451,1.428,4.922,4.922,0,0,1,4.917,0H36.156V12.44a4.242,4.242,0,0,0,4.258,4.221H52.479V61.777a4.85,4.85,0,0,1-1.451,3.436A4.923,4.923,0,0,1,47.562,66.641Zm3.217-52.4H40.41a1.806,1.806,0,0,1-1.813-1.8V1.794L50.778,14.236Z" transform="translate(0 0)" fill="#fff"/>
    </g>
  </g>
</svg>
