<svg xmlns="http://www.w3.org/2000/svg" width="328" viewBox="0 0 445.156 351.083">
  <g id="Group_2004" data-name="Group 2004" transform="translate(-809.844 -8325)">
    <g id="noun_organization_1984271" transform="translate(825 8384)">
      <circle id="Ellipse_536" data-name="Ellipse 536" cx="19.5" cy="19.5" r="19.5" transform="translate(96 164)" fill="#484848"/>
      <circle id="Ellipse_537" data-name="Ellipse 537" cx="19.5" cy="19.5" r="19.5" transform="translate(7 164)" fill="#484848"/>
      <circle id="Ellipse_538" data-name="Ellipse 538" cx="19.5" cy="19.5" r="19.5" transform="translate(184 164)" fill="#484848"/>
      <path id="Path_1582" data-name="Path 1582" d="M14.912,99.947a4.912,4.912,0,0,0,4.912-4.912V77.679h78.6V95.035a4.912,4.912,0,1,0,9.825,0V77.679h78.6V95.035a4.912,4.912,0,1,0,9.825,0V72.767a4.912,4.912,0,0,0-4.912-4.912H108.245V45.912a4.912,4.912,0,0,0-9.825,0V67.854H14.912A4.912,4.912,0,0,0,10,72.766V95.035a4.912,4.912,0,0,0,4.912,4.912Z" transform="translate(11.649 56.789)" fill="#484848"/>
      <path id="Path_1583" data-name="Path 1583" d="M48.015,91.893a4.925,4.925,0,0,0-.686-1.206A13.2,13.2,0,0,0,36.824,86H16.3a13.2,13.2,0,0,0-10.5,4.682,4.923,4.923,0,0,0-.686,1.206L2.34,98.944a4.913,4.913,0,0,0,4.573,6.709h39.3a4.913,4.913,0,0,0,4.573-6.709Z" transform="translate(0 122.311)" fill="#484848"/>
      <path id="Path_1584" data-name="Path 1584" d="M84.014,91.893a4.925,4.925,0,0,0-.686-1.206A13.2,13.2,0,0,0,72.824,86H52.3a13.2,13.2,0,0,0-10.5,4.682,4.923,4.923,0,0,0-.686,1.206L38.34,98.944a4.913,4.913,0,0,0,4.573,6.709h39.3a4.913,4.913,0,0,0,4.573-6.709Z" transform="translate(52.421 122.311)" fill="#484848"/>
      <path id="Path_1585" data-name="Path 1585" d="M122.784,98.944l-2.769-7.052a4.924,4.924,0,0,0-.686-1.206A13.2,13.2,0,0,0,108.824,86H88.3a13.2,13.2,0,0,0-10.5,4.682,4.923,4.923,0,0,0-.686,1.206L74.34,98.944a4.913,4.913,0,0,0,4.573,6.709h39.3a4.913,4.913,0,0,0,4.573-6.709Z" transform="translate(104.842 122.311)" fill="#484848"/>
      <text id="Organization_s_ENS_Domain" data-name="Organization's
ENS Domain" transform="translate(172 -4)" fill="#9a9a9a" font-size="35" font-family="Helvetica-Bold, Helvetica" font-weight="700"><tspan x="0" y="27">Organization's</tspan><tspan x="0" y="69">ENS Domain</tspan></text>
      <g id="Ebene_2" data-name="Ebene 2" transform="translate(60 -59)">
        <g id="Dritte_Generation" data-name="Dritte Generation" transform="translate(0 0)">
          <rect id="Rectangle_1273" data-name="Rectangle 1273" width="9.8" height="53.99" transform="translate(0 44.189)" fill="#484848"/>
          <rect id="Rectangle_1274" data-name="Rectangle 1274" width="9.8" height="53.99" transform="translate(44.189 44.189)" fill="#484848"/>
          <rect id="Rectangle_1275" data-name="Rectangle 1275" width="9.8" height="53.99" transform="translate(21.412 44.189)" fill="#484848"/>
          <rect id="Rectangle_1276" data-name="Rectangle 1276" width="9.8" height="53.99" transform="translate(0 98.178) rotate(-90)" fill="#484848"/>
          <path id="Path_1586" data-name="Path 1586" d="M31.213,1546.92v9.8h-9.8v-9.66H9.8v9.66H0v-9.8Z" transform="translate(0 -1426.07)" fill="#484848"/>
          <rect id="Rectangle_1277" data-name="Rectangle 1277" width="9.8" height="9.8" transform="translate(44.189 120.85)" fill="#484848"/>
          <rect id="Rectangle_1278" data-name="Rectangle 1278" width="9.8" height="9.8" transform="translate(65.601 120.85)" fill="#484848"/>
          <rect id="Rectangle_1279" data-name="Rectangle 1279" width="9.8" height="9.8" transform="translate(88.378 120.85)" fill="#484848"/>
          <rect id="Rectangle_1280" data-name="Rectangle 1280" width="9.8" height="53.99" transform="translate(0 53.99) rotate(-90)" fill="#484848"/>
          <rect id="Rectangle_1281" data-name="Rectangle 1281" width="9.8" height="53.99" transform="translate(0 76.084) rotate(-90)" fill="#484848"/>
          <rect id="Rectangle_1282" data-name="Rectangle 1282" width="9.8" height="53.99" transform="translate(44.189 44.189)" fill="#484848"/>
          <rect id="Rectangle_1283" data-name="Rectangle 1283" width="9.8" height="53.99" transform="translate(0 0)" fill="#484848"/>
          <rect id="Rectangle_1284" data-name="Rectangle 1284" width="9.8" height="53.99" transform="translate(21.412 0)" fill="#484848"/>
          <rect id="Rectangle_1285" data-name="Rectangle 1285" width="9.8" height="53.99" transform="translate(0 53.99) rotate(-90)" fill="#484848"/>
          <rect id="Rectangle_1286" data-name="Rectangle 1286" width="9.8" height="53.99" transform="translate(0 9.8) rotate(-90)" fill="#484848"/>
          <rect id="Rectangle_1287" data-name="Rectangle 1287" width="9.8" height="53.99" transform="translate(0 31.895) rotate(-90)" fill="#484848"/>
          <rect id="Rectangle_1288" data-name="Rectangle 1288" width="9.8" height="53.99" transform="translate(44.189 0)" fill="#484848"/>
          <rect id="Rectangle_1289" data-name="Rectangle 1289" width="9.8" height="53.99" transform="translate(88.378 44.189)" fill="#484848"/>
          <rect id="Rectangle_1290" data-name="Rectangle 1290" width="9.8" height="53.99" transform="translate(65.601 44.189)" fill="#484848"/>
          <rect id="Rectangle_1291" data-name="Rectangle 1291" width="9.8" height="22.095" transform="translate(0 98.178)" fill="#484848"/>
          <rect id="Rectangle_1292" data-name="Rectangle 1292" width="9.8" height="42.848" transform="translate(21.412 98.178)" fill="#484848"/>
          <rect id="Rectangle_1293" data-name="Rectangle 1293" width="9.8" height="42.848" transform="translate(44.189 98.178)" fill="#484848"/>
          <rect id="Rectangle_1294" data-name="Rectangle 1294" width="9.8" height="42.848" transform="translate(88.378 98.178)" fill="#484848"/>
          <rect id="Rectangle_1295" data-name="Rectangle 1295" width="9.8" height="42.848" transform="translate(65.601 98.178)" fill="#484848"/>
          <rect id="Rectangle_1296" data-name="Rectangle 1296" width="9.8" height="53.99" transform="translate(44.189 98.179) rotate(-90)" fill="#484848"/>
          <rect id="Rectangle_1297" data-name="Rectangle 1297" width="9.8" height="53.99" transform="translate(44.189 53.99) rotate(-90)" fill="#484848"/>
          <rect id="Rectangle_1298" data-name="Rectangle 1298" width="9.8" height="53.99" transform="translate(44.189 76.085) rotate(-90)" fill="#484848"/>
          <path id="Path_1587" data-name="Path 1587" d="M0,1414.09v30.555H9.8v-20.037H21.412v20.037H53.989V1414.09Zm44.189,20.178H31.213v-9.8H44.189Z" transform="translate(0 -1303.617)" fill="#484848"/>
          <path id="Path_1588" data-name="Path 1588" d="M565.64,1414.09v30.555h53.989V1414.09Zm9.8,20.178v-9.8h11.611v9.8Zm34.388,0H596.852v-9.8h12.976Z" transform="translate(-521.451 -1303.617)" fill="#484848"/>
        </g>
      </g>
    </g>
    <text id="User_1" data-name="User 1" transform="translate(823 8633)" fill="#9a9a9a" font-size="20" font-family="Helvetica-Bold, Helvetica" font-weight="700"><tspan x="0" y="0">User 1</tspan></text>
    <text id="User_1-2" data-name="User 1" transform="translate(911 8633)" fill="#9a9a9a" font-size="20" font-family="Helvetica-Bold, Helvetica" font-weight="700"><tspan x="0" y="0">User 1</tspan></text>
    <text id="User_1-3" data-name="User 1" transform="translate(1002 8633)" fill="#9a9a9a" font-size="20" font-family="Helvetica-Bold, Helvetica" font-weight="700"><tspan x="0" y="0">User 1</tspan></text>
    <path id="Path_1591" data-name="Path 1591" d="M11.066,0A11.062,11.062,0,0,0,3.241,18.885a11.075,11.075,0,0,0,12.307,2.3L28.43,34.062a.678.678,0,0,0,.487.2.257.257,0,0,0,.075-.007l4.173-.493a.691.691,0,0,0,.6-.6l.493-4.166a.666.666,0,0,0-.192-.562l-2.7-2.7a.678.678,0,0,0-.973,0l-.7.7-1.576-1.583.7-.7a.678.678,0,0,0,.2-.486.663.663,0,0,0-.2-.48l-2.042-2.042a.682.682,0,0,0-.966,0l-.7.7-1.583-1.576.7-.7a.685.685,0,0,0,.206-.487.7.7,0,0,0-.206-.486L21.18,15.548a10.93,10.93,0,0,0,.946-4.481A11.066,11.066,0,0,0,11.066,0Zm1.172,12.238a3.388,3.388,0,0,1-5.783-2.4,3.388,3.388,0,0,1,6.777,0A3.392,3.392,0,0,1,12.238,12.238Z" transform="translate(809.844 8676.083) rotate(-90)" fill="#484848"/>
    <path id="Path_1594" data-name="Path 1594" d="M11.066,0A11.062,11.062,0,0,0,3.241,18.885a11.075,11.075,0,0,0,12.307,2.3L28.43,34.062a.678.678,0,0,0,.487.2.257.257,0,0,0,.075-.007l4.173-.493a.691.691,0,0,0,.6-.6l.493-4.166a.666.666,0,0,0-.192-.562l-2.7-2.7a.678.678,0,0,0-.973,0l-.7.7-1.576-1.583.7-.7a.678.678,0,0,0,.2-.486.663.663,0,0,0-.2-.48l-2.042-2.042a.682.682,0,0,0-.966,0l-.7.7-1.583-1.576.7-.7a.685.685,0,0,0,.206-.487.7.7,0,0,0-.206-.486L21.18,15.548a10.93,10.93,0,0,0,.946-4.481A11.066,11.066,0,0,0,11.066,0Zm1.172,12.238a3.388,3.388,0,0,1-5.783-2.4,3.388,3.388,0,0,1,6.777,0A3.392,3.392,0,0,1,12.238,12.238Z" transform="translate(901.844 8676.083) rotate(-90)" fill="#484848"/>
    <path id="Path_1596" data-name="Path 1596" d="M11.066,0A11.062,11.062,0,0,0,3.241,18.885a11.075,11.075,0,0,0,12.307,2.3L28.43,34.062a.678.678,0,0,0,.487.2.257.257,0,0,0,.075-.007l4.173-.493a.691.691,0,0,0,.6-.6l.493-4.166a.666.666,0,0,0-.192-.562l-2.7-2.7a.678.678,0,0,0-.973,0l-.7.7-1.576-1.583.7-.7a.678.678,0,0,0,.2-.486.663.663,0,0,0-.2-.48l-2.042-2.042a.682.682,0,0,0-.966,0l-.7.7-1.583-1.576.7-.7a.685.685,0,0,0,.206-.487.7.7,0,0,0-.206-.486L21.18,15.548a10.93,10.93,0,0,0,.946-4.481A11.066,11.066,0,0,0,11.066,0Zm1.172,12.238a3.388,3.388,0,0,1-5.783-2.4,3.388,3.388,0,0,1,6.777,0A3.392,3.392,0,0,1,12.238,12.238Z" transform="translate(993.844 8676.083) rotate(-90)" fill="#484848"/>
    <path id="Path_1592" data-name="Path 1592" d="M11.067,34.261a11.063,11.063,0,1,1,4.481-21.18L28.43.2a.678.678,0,0,1,.487-.2.257.257,0,0,1,.075.007L33.165.5a.691.691,0,0,1,.6.6l.493,4.166a.666.666,0,0,1-.192.562l-2.7,2.7a.678.678,0,0,1-.973,0l-.7-.7L28.115,9.415l.7.7a.678.678,0,0,1,.2.486.663.663,0,0,1-.2.48l-2.042,2.042a.682.682,0,0,1-.966,0l-.7-.7L23.524,14l.7.7a.685.685,0,0,1,.206.487.7.7,0,0,1-.206.486l-3.042,3.042a10.93,10.93,0,0,1,.946,4.481,11.066,11.066,0,0,1-11.06,11.066Zm1.172-12.238a3.388,3.388,0,0,0-5.783,2.4,3.388,3.388,0,0,0,6.777,0A3.392,3.392,0,0,0,12.238,22.023Z" transform="translate(885.105 8640.822) rotate(90)" fill="#9a9a9a"/>
    <path id="Path_1593" data-name="Path 1593" d="M11.067,34.261a11.063,11.063,0,1,1,4.481-21.18L28.43.2a.678.678,0,0,1,.487-.2.257.257,0,0,1,.075.007L33.165.5a.691.691,0,0,1,.6.6l.493,4.166a.666.666,0,0,1-.192.562l-2.7,2.7a.678.678,0,0,1-.973,0l-.7-.7L28.115,9.415l.7.7a.678.678,0,0,1,.2.486.663.663,0,0,1-.2.48l-2.042,2.042a.682.682,0,0,1-.966,0l-.7-.7L23.524,14l.7.7a.685.685,0,0,1,.206.487.7.7,0,0,1-.206.486l-3.042,3.042a10.93,10.93,0,0,1,.946,4.481,11.066,11.066,0,0,1-11.06,11.066Zm1.172-12.238a3.388,3.388,0,0,0-5.783,2.4,3.388,3.388,0,0,0,6.777,0A3.392,3.392,0,0,0,12.238,22.023Z" transform="translate(977.105 8640.822) rotate(90)" fill="#9a9a9a"/>
    <path id="Path_1595" data-name="Path 1595" d="M11.067,34.261a11.063,11.063,0,1,1,4.481-21.18L28.43.2a.678.678,0,0,1,.487-.2.257.257,0,0,1,.075.007L33.165.5a.691.691,0,0,1,.6.6l.493,4.166a.666.666,0,0,1-.192.562l-2.7,2.7a.678.678,0,0,1-.973,0l-.7-.7L28.115,9.415l.7.7a.678.678,0,0,1,.2.486.663.663,0,0,1-.2.48l-2.042,2.042a.682.682,0,0,1-.966,0l-.7-.7L23.524,14l.7.7a.685.685,0,0,1,.206.487.7.7,0,0,1-.206.486l-3.042,3.042a10.93,10.93,0,0,1,.946,4.481,11.066,11.066,0,0,1-11.06,11.066Zm1.172-12.238a3.388,3.388,0,0,0-5.783,2.4,3.388,3.388,0,0,0,6.777,0A3.392,3.392,0,0,0,12.238,22.023Z" transform="translate(1069.105 8640.822) rotate(90)" fill="#9a9a9a"/>
  </g>
</svg>
