<svg xmlns="http://www.w3.org/2000/svg" width="198.194" height="137.974" viewBox="0 0 198.194 137.974">
  <g id="Group_2117" data-name="Group 2117" transform="translate(-860.837 -5243.026)">
    <g id="Group_1984" data-name="Group 1984" transform="translate(88 1635)">
      <g id="Group_1914" data-name="Group 1914" transform="translate(772.837 3608.027)" opacity="0.1">
        <path id="noun_identification_9042" d="M200.194,25.993A6.993,6.993,0,0,0,193.2,19H8.995A6.993,6.993,0,0,0,2,25.993V137.945a6.994,6.994,0,0,0,6.995,6.99H193.2a6.994,6.994,0,0,0,6.993-6.993ZM74.258,105.71H18.516C16.668,98.4,21.386,94.367,29.031,92.6c7.484-1.722,12.75-5.12,8.066-9.806-13.7-13.7-3.458-30.367,9.235-30.367S69.373,69.1,55.677,82.8c-4.684,4.686.473,8.085,7.953,9.806C71.277,94.367,76.108,98.4,74.258,105.71Zm109.419,0H86.645V97.452h97.032Zm0-20.645H86.645V76.806h97.032Zm0-20.645H86.645V56.161h97.032Z" transform="translate(-2 -19)" fill="#327495"/>
      </g>
      <text id="_6C7D_2CDB_FE3D_79A9_EE82_90B1_FB99_BB41_F97C_DB2C_0488_91DC_EC82_4F8C_2184_1337_825D_FFE4_77C6_662B_BB8D_8A6C_72EA_D0919D42_4FB4_1867_C696_91C0_F8BA" data-name="6C7D 2CDB FE3D 79A9 EE82 
90B1 FB99 BB41 F97C DB2C 
0488 91DC  EC82 4F8C 2184 
1337 825D FFE4 77C6 662B 
BB8D 8A6C 72EA D0919D42 
4FB4 1867 C696 91C0 F8BA" transform="translate(791 3632)" fill="#9bcfe9" font-size="12" font-family="Helvetica-Bold, Helvetica" font-weight="700"><tspan x="0" y="0">6C7D 2CDB FE3D 79A9 EE82 </tspan><tspan x="0" y="14">90B1 FB99 BB41 F97C DB2C </tspan><tspan x="0" y="28" xml:space="preserve">0488 91DC  EC82 4F8C 2184 </tspan><tspan x="0" y="42">1337 825D FFE4 77C6 662B </tspan><tspan x="0" y="56">BB8D 8A6C 72EA D0919D42 </tspan><tspan x="0" y="70">4FB4 1867 C696 91C0 F8BA</tspan></text>
    </g>
    <text id="_" data-name="?" transform="translate(960 5352)" fill="#707070" font-size="128" font-family="Helvetica-Bold, Helvetica" font-weight="700"><tspan x="-39.094" y="0">?</tspan></text>
  </g>
</svg>
