<svg xmlns="http://www.w3.org/2000/svg" width="100%" viewBox="0 0 1007 221">
  <g id="Group_2120" data-name="Group 2120" transform="translate(-457 -7030)">
    <g id="Rectangle_1271" data-name="Rectangle 1271" transform="translate(457 7030)" fill="#fff" stroke="#327495" stroke-width="3">
      <rect width="1007" height="221" rx="15" stroke="none"/>
      <rect x="1.5" y="1.5" width="1004" height="218" rx="13.5" fill="none"/>
    </g>
    <text id="Original_Document" data-name="Original Document" transform="translate(573 7076)" fill="#707070" font-size="25" font-family="Helvetica-Bold, Helvetica" font-weight="700"><tspan x="0" y="0">Original Document</tspan></text>
    <text id="Document_Copy" data-name="Document Copy" transform="translate(1147 7076)" fill="#707070" font-size="25" font-family="Helvetica-Bold, Helvetica" font-weight="700"><tspan x="0" y="0">Document Copy</tspan></text>
    <g id="Group_1937" data-name="Group 1937" transform="translate(934 6661)">
      <g id="Group_1817" data-name="Group 1817" transform="translate(107 436)">
        <rect id="Rectangle_1124" data-name="Rectangle 1124" width="133" height="123" transform="translate(5)" fill="#f2f2f2"/>
        <rect id="Rectangle_1125" data-name="Rectangle 1125" width="5" height="123" fill="#327495"/>
      </g>
      <g id="noun_up_688138" transform="translate(336.737 480.517) rotate(90)">
        <g id="Group_1505" data-name="Group 1505">
          <path id="Path_1331" data-name="Path 1331" d="M15.895,0a2.674,2.674,0,0,0-1.64.646L.74,13.365a2.731,2.731,0,0,0-.2,3.478,2.484,2.484,0,0,0,3.478-.025l9.49-8.943V61.21a2.385,2.385,0,0,0,4.77,0V7.875l9.49,8.943a2.628,2.628,0,0,0,3.478.025,2.7,2.7,0,0,0-.2-3.478L17.534.646A2.294,2.294,0,0,0,15.895,0Z" fill="#327495"/>
        </g>
      </g>
      <g id="Rectangle_1256" data-name="Rectangle 1256" transform="translate(368 436)" fill="#f2f2f2" stroke="#327495" stroke-width="1">
        <rect width="139" height="126" stroke="none"/>
        <rect x="0.5" y="0.5" width="138" height="125" fill="none"/>
      </g>
      <text id="_6C7D_2CDB_FE3D_79A9_EE82_90B1_FB99_BB41_F97C_DF5C_0488_91DC_EC82_4F8C_2184_1337_825D_FFE4_32C6_662B_BB8D_8A6C_72EA_D091_91C0_F8BA_CC25_8FCB" data-name="6C7D 2CDB FE3D 79A9
EE82 90B1 FB99 BB41
F97C DF5C 0488 91DC
EC82 4F8C 2184 1337
825D FFE4 32C6 662B
BB8D 8A6C 72EA D091
91C0 F8BA CC25 8FCB" transform="translate(437.701 455.949)" fill="#327495" font-size="11" font-family="Helvetica"><tspan x="-61.749" y="0">6C7D 2CDB FE3D 79A9 </tspan><tspan x="-57.484" y="13">EE82 90B1 FB99 BB41</tspan><tspan x="-60.221" y="26">F97C </tspan><tspan y="26" fill="#d95868">DF5C </tspan><tspan y="26">0488 91DC </tspan><tspan x="-56.262" y="39">EC82 4F8C 2184 1337</tspan><tspan x="-58.701" y="52">825D FFE4 </tspan><tspan y="52" fill="#d95868">32C6 </tspan><tspan y="52">662B </tspan><tspan x="-60.54" y="65">BB8D 8A6C 72EA D091 </tspan><tspan x="-59.308" y="78">91C0 F8BA CC25 8FCB</tspan></text>
      <text id="hash" transform="translate(276 492)" fill="#327495" font-size="10" font-family="Helvetica-Bold, Helvetica" font-weight="700"><tspan x="0" y="0">hash</tspan></text>
      <text id="function" transform="translate(276 508)" fill="#327495" font-size="10" font-family="Helvetica-Bold, Helvetica" font-weight="700"><tspan x="0" y="0">function</tspan></text>
      <path id="noun_identification_9042" d="M83.879,21.889A2.889,2.889,0,0,0,80.989,19H4.89A2.889,2.889,0,0,0,2,21.889v46.25a2.889,2.889,0,0,0,2.89,2.888h76.1a2.889,2.889,0,0,0,2.889-2.889ZM31.852,54.822H8.823c-.763-3.02,1.186-4.686,4.344-5.414,3.092-.711,5.268-2.115,3.332-4.051-5.658-5.659-1.429-12.545,3.815-12.545s9.519,6.887,3.861,12.545c-1.935,1.936.2,3.34,3.285,4.051C30.62,50.136,32.616,51.8,31.852,54.822Zm45.2,0H36.969V51.41H77.055Zm0-8.529H36.969V42.881H77.055Zm0-8.529H36.969V34.352H77.055Z" transform="translate(133.618 454.362)" fill="#327495" opacity="0.44"/>
    </g>
    <g id="Group_1942" data-name="Group 1942" transform="translate(0 510)">
      <g id="noun_Compare_2794347" transform="translate(1025.688 6589.348) rotate(90)">
        <g id="Group_1744" data-name="Group 1744" transform="translate(30.772 36.088)">
          <g id="Group_1743" data-name="Group 1743" transform="translate(0 0)">
            <path id="Path_1504" data-name="Path 1504" d="M33.7,50.521l3.847-3.847L43.624,40.6l1.4-1.4H42.584l3.847,3.847,6.075,6.075,1.4,1.4a1.721,1.721,0,0,0,2.434-2.434L52.489,44.24l-6.075-6.075-1.4-1.4a1.744,1.744,0,0,0-2.434,0l-3.847,3.847-6.075,6.075-1.4,1.4A1.721,1.721,0,0,0,33.7,50.521Z" transform="translate(-30.772 -36.275)" fill="#d95868"/>
          </g>
        </g>
        <g id="Group_1746" data-name="Group 1746" transform="translate(42.077 36.076)">
          <g id="Group_1745" data-name="Group 1745" transform="translate(0 0)">
            <path id="Path_1505" data-name="Path 1505" d="M227.658,37.8V78.112c0,.545-.006,1.1,0,1.642v.069a1.722,1.722,0,0,0,3.445,0V39.511c0-.545.006-1.1,0-1.642V37.8a1.722,1.722,0,0,0-3.445,0Z" transform="translate(-227.656 -36.076)" fill="#d95868"/>
          </g>
        </g>
        <g id="Group_1748" data-name="Group 1748" transform="translate(49.727 75.974)">
          <g id="Group_1747" data-name="Group 1747">
            <path id="Path_1506" data-name="Path 1506" d="M539.938,733.9l3.847,3.847,6.075,6.075,1.4,1.4a1.744,1.744,0,0,0,2.434,0l3.847-3.847,6.075-6.075,1.4-1.4a1.721,1.721,0,0,0-2.435-2.434l-3.847,3.847-6.075,6.075-1.4,1.4h2.434l-3.847-3.847-6.075-6.075-1.4-1.4a1.721,1.721,0,0,0-2.434,2.434Z" transform="translate(-539.447 -730.972)" fill="#d95868"/>
          </g>
        </g>
        <g id="Group_1750" data-name="Group 1750" transform="translate(61.027 45.257)">
          <g id="Group_1749" data-name="Group 1749" transform="translate(0)">
            <path id="Path_1507" data-name="Path 1507" d="M739.7,239.723V199.411c0-.545.006-1.1,0-1.642V197.7a1.723,1.723,0,0,0-3.445,0v40.312c0,.545-.006,1.1,0,1.642v.069a1.723,1.723,0,0,0,3.445,0Z" transform="translate(-736.256 -195.976)" fill="#d95868"/>
          </g>
        </g>
      </g>
      <text id="Doesn_t_Match" data-name="Doesn&apos;t Match" transform="translate(919 6578)" fill="#d95868" font-size="12" font-family="Helvetica-Bold, Helvetica" font-weight="700"><tspan x="0" y="0">Doesn&apos;t Match</tspan></text>
      <text id="Hash-2" data-name="Hash" transform="translate(939 6564)" fill="#d95868" font-size="18" font-family="Helvetica-Bold, Helvetica" font-weight="700"><tspan x="0" y="0">Hash</tspan></text>
      <g id="Group_1936" data-name="Group 1936" transform="translate(794.062 6039.392)">
        <rect id="Rectangle_1074" data-name="Rectangle 1074" width="35" height="34" rx="17" transform="translate(148.938 543.608)" fill="#d95868"/>
      </g>
      <text id="Document_has_been_altered" data-name="Document has
been altered" transform="translate(897 6671)" fill="#d95868" font-size="13" font-family="Helvetica-Bold, Helvetica" font-weight="700" opacity="0.73"><tspan x="18.214" y="10">Document has </tspan><tspan x="24.708" y="26">been altered</tspan></text>
      <g id="Group_1939" data-name="Group 1939" transform="translate(798.5 6043)">
        <line id="Line_384" data-name="Line 384" x1="13.926" y2="13.926" transform="translate(155.5 550.5)" fill="none" stroke="#fff" stroke-linecap="round" stroke-width="3"/>
        <line id="Line_385" data-name="Line 385" x2="13.926" y2="13.926" transform="translate(155.5 550.5)" fill="none" stroke="#fff" stroke-linecap="round" stroke-width="3"/>
      </g>
    </g>
    <g id="Group_1941" data-name="Group 1941" transform="translate(384 6661)">
      <g id="Group_1817-2" data-name="Group 1817" transform="translate(107 436)">
        <rect id="Rectangle_1124-2" data-name="Rectangle 1124" width="133" height="123" transform="translate(5)" fill="#f2f2f2"/>
        <rect id="Rectangle_1125-2" data-name="Rectangle 1125" width="5" height="123" fill="#327495"/>
      </g>
      <g id="noun_up_688138-2" data-name="noun_up_688138" transform="translate(336.737 480.517) rotate(90)">
        <g id="Group_1505-2" data-name="Group 1505">
          <path id="Path_1331-2" data-name="Path 1331" d="M15.895,0a2.674,2.674,0,0,0-1.64.646L.74,13.365a2.731,2.731,0,0,0-.2,3.478,2.484,2.484,0,0,0,3.478-.025l9.49-8.943V61.21a2.385,2.385,0,0,0,4.77,0V7.875l9.49,8.943a2.628,2.628,0,0,0,3.478.025,2.7,2.7,0,0,0-.2-3.478L17.534.646A2.294,2.294,0,0,0,15.895,0Z" fill="#327495"/>
        </g>
      </g>
      <g id="Rectangle_1256-2" data-name="Rectangle 1256" transform="translate(368 436)" fill="#f2f2f2" stroke="#327495" stroke-width="1">
        <rect width="139" height="126" stroke="none"/>
        <rect x="0.5" y="0.5" width="138" height="125" fill="none"/>
      </g>
      <text id="_6C7D_2CDB_FE3D_79A9_EE82_90B1_FB99_BB41_F97C_DB2C_0488_91DC_EC82_4F8C_2184_1337_825D_FFE4_77C6_662B_BB8D_8A6C_72EA_D091_91C0_F8BA_CC25_8FCB" data-name="6C7D 2CDB FE3D 79A9
EE82 90B1 FB99 BB41
F97C DB2C 0488 91DC
EC82 4F8C 2184 1337
825D FFE4 77C6 662B
BB8D 8A6C 72EA D091
91C0 F8BA CC25 8FCB" transform="translate(437.701 455.949)" fill="#327495" font-size="11" font-family="Helvetica"><tspan x="-61.749" y="0">6C7D 2CDB FE3D 79A9 </tspan><tspan x="-57.484" y="13">EE82 90B1 FB99 BB41</tspan><tspan x="-60.53" y="26">F97C DB2C 0488 91DC </tspan><tspan x="-56.262" y="39">EC82 4F8C 2184 1337</tspan><tspan x="-58.701" y="52">825D FFE4 77C6 662B </tspan><tspan x="-60.54" y="65">BB8D 8A6C 72EA D091 </tspan><tspan x="-59.308" y="78">91C0 F8BA CC25 8FCB</tspan></text>
      <text id="hash-3" data-name="hash" transform="translate(276 492)" fill="#327495" font-size="10" font-family="Helvetica-Bold, Helvetica" font-weight="700"><tspan x="0" y="0">hash</tspan></text>
      <text id="function-2" data-name="function" transform="translate(276 508)" fill="#327495" font-size="10" font-family="Helvetica-Bold, Helvetica" font-weight="700"><tspan x="0" y="0">function</tspan></text>
      <path id="noun_identification_9042-2" data-name="noun_identification_9042" d="M83.879,21.889A2.889,2.889,0,0,0,80.989,19H4.89A2.889,2.889,0,0,0,2,21.889v46.25a2.889,2.889,0,0,0,2.89,2.888h76.1a2.889,2.889,0,0,0,2.889-2.889ZM31.852,54.822H8.823c-.763-3.02,1.186-4.686,4.344-5.414,3.092-.711,5.268-2.115,3.332-4.051-5.658-5.659-1.429-12.545,3.815-12.545s9.519,6.887,3.861,12.545c-1.935,1.936.2,3.34,3.285,4.051C30.62,50.136,32.616,51.8,31.852,54.822Zm45.2,0H36.969V51.41H77.055Zm0-8.529H36.969V42.881H77.055Zm0-8.529H36.969V34.352H77.055Z" transform="translate(133.618 454.362)" fill="#327495"/>
    </g>
  </g>
</svg>
