<svg xmlns="http://www.w3.org/2000/svg" width="35.619" height="35.619" viewBox="0 0 35.619 35.619">
    <path id="prefix__noun_Information_189702" d="M22.809 5a17.81 17.81 0 1 0 17.81 17.809A17.808 17.808 0 0 0 22.809 5zm0 6.566a2.776 2.776 0 1 1-2.776 2.776 2.777 2.777 0 0 1 2.776-2.776zm0 7.4a2.663 2.663 0 0 1 1.83.732 2.429 2.429 0 0 1 .738 1.759v10.1a2.43 2.43 0 0 1-.751 1.772 2.65 2.65 0 0 1-3.658-.026 2.431 2.431 0 0 1-.728-1.746V21.46a2.431 2.431 0 0 1 .741-1.759 2.658 2.658 0 0 1 1.828-.732z" transform="translate(-5 -5)" style="fill:#327495"/>
</svg>
