<svg xmlns="http://www.w3.org/2000/svg" width="34" viewBox="0 0 49.033 40.861">
  <g id="noun_Select_Type_Cursor_878660" data-name="noun_Select Type Cursor_878660" transform="translate(0 -2)">
    <path id="Path_1554" data-name="Path 1554" d="M43.924,32.646H26.56a2.043,2.043,0,0,1,0-4.086H43.926a1.025,1.025,0,0,0,1.022-1.024V17.325A1.025,1.025,0,0,0,43.924,16.3H26.56a2.043,2.043,0,0,1,0-4.086H43.924a5.116,5.116,0,0,1,5.11,5.11V27.536A5.116,5.116,0,0,1,43.924,32.646Zm-33.708,0H5.11A5.116,5.116,0,0,1,0,27.536V17.325a5.116,5.116,0,0,1,5.11-5.11h5.106a2.043,2.043,0,1,1,0,4.086H5.11a1.025,1.025,0,0,0-1.024,1.024V27.536A1.025,1.025,0,0,0,5.11,28.56h5.106a2.043,2.043,0,1,1,0,4.086Zm8.172,10.215a2.042,2.042,0,0,1-2.043-2.043V4.043a2.043,2.043,0,1,1,4.086,0V40.818A2.042,2.042,0,0,1,18.388,42.861ZM24.517,6.086H12.258a2.043,2.043,0,1,1,0-4.086H24.517a2.043,2.043,0,1,1,0,4.086Zm0,36.775H12.258a2.043,2.043,0,0,1,0-4.086H24.517a2.043,2.043,0,0,1,0,4.086Z" fill="#888"/>
  </g>
</svg>
