<svg xmlns="http://www.w3.org/2000/svg" width="71.24" height="71.232" viewBox="0 0 71.24 71.232">
    <path id="prefix___5ec800093f708f495e5c94dd_noun_Key_677345" fill="#888" d="M36.1 51.35l3.348 3.35a3.788 3.788 0 0 0 2.818 1.167h3.962v3.348a4.545 4.545 0 0 0 4.545 4.545h3.348v3.955a4 4 0 0 0 1.145 2.785l2.634 2.63a3.712 3.712 0 0 0 2.621 1.076h10.435a3.265 3.265 0 0 0 3.258-3.258V60.509a3.7 3.7 0 0 0-1.091-2.636L51.35 36.1A24.89 24.89 0 1 0 36.1 51.35zM13.486 13.471a20.341 20.341 0 0 1 33.121 22.311 2.273 2.273 0 0 0 .485 2.492L69.66 60.85v8.81h-8.81l-2.22-2.22v-5.355a2.924 2.924 0 0 0-2.924-2.924h-4.932v-4.917a2.924 2.924 0 0 0-2.924-2.924H42.5l-4.227-4.227a2.273 2.273 0 0 0-2.492-.485 20.341 20.341 0 0 1-22.3-33.121zM23 31.342a8.333 8.333 0 1 0-8.333-8.333A8.333 8.333 0 0 0 23 31.342zm0-12.061a1.569 1.569 0 1 1 0-.008z" data-name="5ec800093f708f495e5c94dd_noun_Key_677345" transform="translate(-2.974 -2.974)"/>
</svg>
