<svg xmlns="http://www.w3.org/2000/svg" width="100%" height="100%" viewBox="0 0 1047.674 593.177">
  <g id="Group_1999" data-name="Group 1999" transform="translate(-446 -2727.823)">
    <g id="Group_1901" data-name="Group 1901" transform="translate(331 -565)">
      <text id="Are_meant_to_be_shared_with_anyone_that_needs_access_to_your_encrypted_document._It_can_be_used_to_not_only_verify_the_owner_s_signature_but_also_to_decrypt_the_file." data-name="Are meant to be shared with anyone that needs access to your encrypted document. It can be used to not only verify the owner's signature, but also to decrypt the file." transform="translate(675 3353.673)" fill="#707070" font-size="25" font-family="Helvetica">
        <tspan x="17.86" y="19">Are meant to be shared with anyone that </tspan>
        <tspan x="4.67" y="49">needs access to your encrypted document. </tspan>
        <tspan x="2.979" y="79">It can be used to not only verify the owner's </tspan>
        <tspan x="38.715" y="109">signature, but also to decrypt the file.</tspan>
      </text>
      <g id="Group_1904" data-name="Group 1904" transform="translate(-13.326 39)">
        <g id="Group_1900" data-name="Group 1900" transform="translate(687.326 3544.353)">
          <g id="Group_1877" data-name="Group 1877" transform="translate(0 36.149)">
            <g id="noun_Happy_2199103" transform="translate(0)">
              <g id="Group_1749" data-name="Group 1749" transform="translate(0 0)">
                <g id="Group_1748" data-name="Group 1748">
                  <circle id="Ellipse_510" data-name="Ellipse 510" cx="5.057" cy="5.057" r="5.057" transform="translate(32.313 33.916)" fill="#484848" />
                  <circle id="Ellipse_511" data-name="Ellipse 511" cx="5.057" cy="5.057" r="5.057" transform="translate(53.525 33.916)" fill="#484848" />
                  <path id="Path_1510" data-name="Path 1510" d="M52.5,55a14.463,14.463,0,0,0,12.21-6.167,2.857,2.857,0,1,0-4.81-3.083C58.541,47.971,55.7,49.2,52.5,49.2a8.915,8.915,0,0,1-7.4-3.453,2.857,2.857,0,0,0-4.81,3.083A14.463,14.463,0,0,0,52.5,55Z" transform="translate(-4.399 7.281)" fill="#484848" />
                  <path id="Path_1511" data-name="Path 1511" d="M88.551,84.638H76.958l-1.48-5.673c12.95,1.11,22.693.493,19.979-26.763,1.727-1.85,2.59-4.44,2.59-8.14,0-4.563-1.11-7.77-3.33-9.866a12.9,12.9,0,0,0-2.343-1.48C85.715,2.007,63.269,2.5,59.2,2.5S32.559,2.13,26.023,32.839a7.672,7.672,0,0,0-2.467,1.48c-2.22,1.973-3.33,5.18-3.33,9.866q0,5.55,2.59,8.14C20.1,79.335,29.846,80.075,42.673,78.965l-1.48,5.673H29.6a18.475,18.475,0,0,0-18.5,18.5v11.593a4.924,4.924,0,0,0,4.81,4.933h86.331a4.844,4.844,0,0,0,4.81-4.933V103.138A18.475,18.475,0,0,0,88.551,84.638ZM32.929,52.7a3.685,3.685,0,0,0-3.33-3.33c-2.1-.247-3.7-.37-3.7-5.18,0-3.7.863-5.057,1.357-5.55a1.318,1.318,0,0,1,.617-.37,2.9,2.9,0,0,0,2.343,2.22,2.839,2.839,0,0,0,3.33-2.343,44.67,44.67,0,0,1,2.1-7.523c4.81.493,12.086-1.11,19.61-4.687a62.959,62.959,0,0,0,9.99-6.043c1.11,1.11,2.343,2.343,3.7,3.453,4.81,3.947,9.866,6.537,13.566,7.153a42.918,42.918,0,0,1,2.22,7.646,2.9,2.9,0,0,0,2.837,2.343h.493a2.9,2.9,0,0,0,2.343-2.22,1.318,1.318,0,0,1,.617.37c.493.493,1.357,1.85,1.357,5.55,0,4.81-1.6,4.933-3.7,5.18a3.685,3.685,0,0,0-3.33,3.33c-.74,7.4-5.427,14.06-13.69,19.856a21.912,21.912,0,0,1-24.913,0C38.233,66.632,33.669,59.972,32.929,52.7ZM69.805,92.531,62.159,98.2a5.18,5.18,0,0,1-6.167,0l-7.646-5.673A4.92,4.92,0,0,1,46.5,87.1l1.973-7.153a25.962,25.962,0,0,0,10.606,2.22,28.147,28.147,0,0,0,10.606-2.22L71.655,87.1A5.264,5.264,0,0,1,69.805,92.531Z" transform="translate(-11.1 -2.5)" fill="#484848" />
                </g>
              </g>
            </g>
          </g>
          <text id="Julia_Notary_" data-name="Julia
(Notary)" transform="translate(53.674 230.647)" fill="#484848" font-size="25" font-family="Helvetica">
            <tspan x="-29.181" y="0">Julia</tspan>
            <tspan y="0" font-family="Helvetica-Bold, Helvetica" font-weight="700"></tspan>
            <tspan font-family="Helvetica-Bold, Helvetica" font-weight="700">
              <tspan x="-47.919" y="33">(Notary)</tspan>
            </tspan>
          </text>
          <text id="Public_Key_Bob_s_" data-name="Public Key
(Bob's)
" transform="translate(204.674 230.647)" fill="#327495" font-size="25" font-family="Helvetica">
            <tspan x="-59.058" y="0">Public Key</tspan>
            <tspan font-family="Helvetica-Bold, Helvetica" font-weight="700">
              <tspan x="-42.548" y="33">(Bob's)</tspan>
            </tspan>
            <tspan font-family="SegoeUI-Bold, Segoe UI" font-weight="700">
              <tspan x="0" y="66"></tspan>
            </tspan>
          </text>
          <text id="Signed_Document_Decrypted_" data-name="Signed Document
(Decrypted)" transform="translate(388.674 230.647)" fill="#327495" font-size="25" font-family="Helvetica">
            <tspan x="-99.365" y="0">Signed Document</tspan>
            <tspan font-family="Helvetica-Bold, Helvetica" font-weight="700">
              <tspan x="-69.458" y="33">(Decrypted)</tspan>
            </tspan>
          </text>
          <line id="Line_461" data-name="Line 461" x2="179.455" transform="translate(39.458 187.676)" fill="none" stroke="#484848" stroke-width="2" />
          <line id="Line_462" data-name="Line 462" x2="179.455" transform="translate(218.913 187.676)" fill="none" stroke="#327495" stroke-width="2" />
          <g id="Ellipse_529" data-name="Ellipse 529" transform="translate(36.674 182.647)" fill="#fff" stroke="#484848" stroke-width="2">
            <circle cx="5.5" cy="5.5" r="5.5" stroke="none" />
            <circle cx="5.5" cy="5.5" r="4.5" fill="none" />
          </g>
          <g id="Ellipse_530" data-name="Ellipse 530" transform="translate(200.674 182.647)" fill="#327495" stroke="#327495" stroke-width="2">
            <circle cx="5.5" cy="5.5" r="5.5" stroke="none" />
            <circle cx="5.5" cy="5.5" r="4.5" fill="none" />
          </g>
          <g id="Ellipse_531" data-name="Ellipse 531" transform="translate(392.674 182.647)" fill="#fff" stroke="#327495" stroke-width="2">
            <circle cx="5.5" cy="5.5" r="5.5" stroke="none" />
            <circle cx="5.5" cy="5.5" r="4.5" fill="none" />
          </g>
          <g id="Group_1896" data-name="Group 1896" transform="translate(126.195 2)">
            <g id="Group_1880" data-name="Group 1880" transform="translate(2.564)">
              <text id="Public" transform="translate(82.597 55.685)" fill="#6ac" font-size="16" font-family="Helvetica">
                <tspan x="0" y="0">Public</tspan>
              </text>
              <g id="noun_Key_3192361" transform="translate(0 74.178) rotate(-45)">
                <path id="Path_1345" data-name="Path 1345" d="M33.885,0A33.871,33.871,0,0,0,9.924,57.825a33.912,33.912,0,0,0,37.682,7.028L87.052,104.3a2.077,2.077,0,0,0,1.49.609.786.786,0,0,0,.231-.021l12.778-1.511a2.116,2.116,0,0,0,1.825-1.846l1.511-12.757a2.038,2.038,0,0,0-.587-1.721l-8.267-8.267a2.077,2.077,0,0,0-2.979,0l-2.14,2.14-4.826-4.847,2.14-2.14a2.077,2.077,0,0,0,.608-1.49,2.03,2.03,0,0,0-.608-1.469l-6.253-6.252a2.089,2.089,0,0,0-2.958,0l-2.14,2.14-4.847-4.826,2.14-2.14a2.1,2.1,0,0,0,.629-1.49,2.134,2.134,0,0,0-.629-1.49l-9.316-9.316a33.467,33.467,0,0,0,2.9-13.722A33.883,33.883,0,0,0,33.885,0Zm3.588,37.473a10.375,10.375,0,0,1-17.708-7.343,10.375,10.375,0,0,1,20.75,0A10.387,10.387,0,0,1,37.473,37.473Z" transform="translate(0 0)" fill="#6ac" />
              </g>
            </g>
            <g id="Group_1894" data-name="Group 1894" transform="translate(0 118.303)">
              <rect id="Rectangle_1269" data-name="Rectangle 1269" width="158" height="34" rx="12" transform="translate(0.479 0.344)" fill="#6ac" />
              <text id="r9Htf3LKm..." transform="translate(78.479 26.344)" fill="#fff" font-size="21" font-family="Helvetica-Bold, Helvetica" font-weight="700">
                <tspan x="-62.426" y="0">r9Htf3LKm...</tspan>
              </text>
            </g>
          </g>
          <g id="Group_1899" data-name="Group 1899" transform="translate(297.959 25.537)">
            <g id="Group_1898" data-name="Group 1898" transform="translate(0 0)">
              <g id="Group_1888" data-name="Group 1888" transform="translate(0 31.385)">
                <rect id="Rectangle_1264" data-name="Rectangle 1264" width="134" height="102" rx="18" transform="translate(-0.285 -0.274)" fill="#fff" />
                <path id="noun_identification_9042" d="M91.2,22.147A3.148,3.148,0,0,0,88.056,19H5.148A3.148,3.148,0,0,0,2,22.147V72.535a3.148,3.148,0,0,0,3.148,3.146H88.057A3.148,3.148,0,0,0,91.2,72.535ZM34.522,58.027H9.434c-.832-3.29,1.292-5.105,4.732-5.9,3.368-.775,5.739-2.3,3.63-4.414-6.164-6.165-1.556-13.668,4.156-13.668s10.371,7.5,4.207,13.668c-2.108,2.109.213,3.639,3.579,4.414C33.181,52.922,35.355,54.736,34.522,58.027Zm49.248,0H40.1V54.31H83.77Zm0-9.292H40.1V45.018H83.77Zm0-9.292H40.1V35.726H83.77Z" transform="translate(16.8 3.218)" fill="#327495" />
              </g>
              <g id="Group_1889" data-name="Group 1889" transform="translate(54.569)">
                <g id="Path_1570" data-name="Path 1570" transform="translate(5.636 22.289)" fill="#fff">
                  <path d="M 6.858459949493408 14.93116474151611 C 3.352390050888062 14.93116474151611 0.4999999403953552 11.69426441192627 0.4999999403953552 7.715584278106689 C 0.4999999403953552 3.736904382705688 3.352390050888062 0.5000042915344238 6.858459949493408 0.5000042915344238 C 10.36452960968018 0.5000042915344238 13.21691989898682 3.736904382705688 13.21691989898682 7.715584278106689 C 13.21691989898682 11.69426441192627 10.36452960968018 14.93116474151611 6.858459949493408 14.93116474151611 Z" stroke="none" />
                  <path d="M 6.858459949493408 1.000003814697266 C 3.628089904785156 1.000003814697266 1 4.012604713439941 1 7.715584278106689 C 1 11.41856384277344 3.628089904785156 14.4311637878418 6.858459949493408 14.4311637878418 C 10.08882999420166 14.4311637878418 12.71691989898682 11.41856384277344 12.71691989898682 7.715584278106689 C 12.71691989898682 4.012604713439941 10.08882999420166 1.000003814697266 6.858459949493408 1.000003814697266 M 6.858459949493408 3.814697265625e-06 C 10.64628028869629 3.814697265625e-06 13.71691989898682 3.454383850097656 13.71691989898682 7.715584278106689 C 13.71691989898682 11.97678375244141 10.64628028869629 15.43116474151611 6.858459949493408 15.43116474151611 C 3.070639610290527 15.43116474151611 0 11.97678375244141 0 7.715584278106689 C 0 3.454383850097656 3.070639610290527 3.814697265625e-06 6.858459949493408 3.814697265625e-06 Z" stroke="none" fill="#707070" />
                </g>
                <g id="Group_1516" data-name="Group 1516" transform="translate(0)">
                  <path id="Path_1350" data-name="Path 1350" d="M248.781,1491.637a13.17,13.17,0,0,1,9.2-12.537l0,0c.083-.026.167-.05.251-.075l.089-.026.175-.048.16-.042.115-.028.216-.05.069-.016c.085-.018.171-.038.256-.054l.039-.008c.094-.019.189-.036.283-.052l.021,0q.149-.026.3-.048l.015,0c.1-.015.2-.029.3-.042l.023,0,.294-.032.045,0,.272-.023.083-.005.237-.015.144-.005.179-.006q.163,0,.327,0t.328,0c.054,0,.108,0,.162.006l.162.006.218.014.1.006.252.021.066.006c.091.01.182.019.273.031l.045.005c.093.011.187.025.28.038l.039.005c.092.013.183.029.275.044l.046.007.258.049.065.012c.076.015.153.032.229.048l.1.021.187.045.145.036.129.034.208.057.056.016a13.169,13.169,0,0,1,9.475,12.657,13.1,13.1,0,0,1-26.193-.037Zm10.95-.568a2.652,2.652,0,0,0,.581.581v4.1a1.566,1.566,0,1,0,3.132,0v-4.1a2.657,2.657,0,1,0-3.713-.581Z" transform="translate(-248.781 -1461.905)" fill="#327495" />
                  <path id="Path_1351" data-name="Path 1351" d="M173.471,1293.922a7.877,7.877,0,1,1,15.753,0v9.366h0a.04.04,0,0,0,0,0v0s0,0,0,0a13.069,13.069,0,0,0-2.847-1.655v-7.721a5.03,5.03,0,0,0-10.059,0v7.448h0v4.426h-2.848v-2.556l0,0Z" transform="translate(-156.536 -1286.045)" fill="#327495" />
                </g>
              </g>
            </g>
            <g id="noun_signature_1745296" transform="translate(36.746 119.403)">
              <g id="Group_1876" data-name="Group 1876" transform="translate(0 0)">
                <g id="Group_1875" data-name="Group 1875" transform="translate(0)">
                  <path id="Path_1569" data-name="Path 1569" d="M75.508,48.891A37.446,37.446,0,0,1,64.4,50.343c0-.342.085-.684.085-1.025a2.2,2.2,0,0,0-3.247-1.88c-1.025.6-1.965,1.2-2.991,1.795.085-.427.085-.855.171-1.282.256-1.795-1.965-2.393-3.247-1.88-3.076,1.367-5.725,4.1-8.887,5.3.085-.94.256-1.88.342-2.735.256-2.136-1.795-3.5-3.589-2.051a39.031,39.031,0,0,1-4.871,3.5c.342-.6.6-1.282.94-1.88.855-1.709-1.025-4.273-2.905-2.905-2.222,1.624-4.444,3.162-6.751,4.615a43.5,43.5,0,0,0,2.82-9.486c.342-1.88-2.051-3.845-3.589-2.051a118.362,118.362,0,0,1-17.6,17.006c-2.136,1.709.855,4.7,2.991,2.991A118.206,118.206,0,0,0,25.517,48.121a35.3,35.3,0,0,1-3.589,6.58c-1.282,1.88,1.111,3.931,2.905,2.905,2.307-1.282,4.529-2.649,6.665-4.016-.085.171-.171.256-.256.427a2.149,2.149,0,0,0,2.905,2.905,45.038,45.038,0,0,0,7.435-4.187c0,.256-.085.513-.085.684-.171,1.282.513,2.82,2.051,2.735,3.931-.256,6.751-2.393,9.827-4.358-.085.342-.085.769-.171,1.111-.256,1.795,1.965,2.393,3.247,1.88,1.025-.513,2.051-1.025,2.991-1.538A2.329,2.329,0,0,0,61.408,54.7c5.042-.171,10.084,0,14.955-1.624C79.183,52.138,78.072,48.036,75.508,48.891Z" transform="translate(-10.34 -37.672)" fill="#327495" />
                </g>
              </g>
            </g>
          </g>
        </g>
        <text id="PUBLIC_KEY" data-name="PUBLIC KEY" transform="translate(901 3520)" fill="#6ac" font-size="25" font-family="Helvetica-Bold, Helvetica" font-weight="700">
          <tspan x="-75.702" y="0">PUBLIC KEY</tspan>
        </text>
        <text id="Julia_decrypts_his_document_using_his_" data-name="Julia decrypts his document using his " transform="translate(901.141 3488.198)" fill="#9dc9de" font-size="20" font-family="Helvetica-Bold, Helvetica" font-weight="700" opacity="0.87">
          <tspan x="-184.482" y="0">Julia decrypts his document using his </tspan>
        </text>
      </g>
      <g id="Group_2080" data-name="Group 2080" transform="translate(38.156)">
        <text id="Public_Keys_" data-name="Public Keys " transform="translate(806 3331)" fill="#6ac" font-size="35" font-family="Helvetica-Bold, Helvetica" font-weight="700">
          <tspan x="0" y="0">Public Keys </tspan>
        </text>
        <path id="Path_1573" data-name="Path 1573" d="M11.066,0A11.062,11.062,0,0,0,3.241,18.885a11.075,11.075,0,0,0,12.307,2.3L28.43,34.062a.678.678,0,0,0,.487.2.257.257,0,0,0,.075-.007l4.173-.493a.691.691,0,0,0,.6-.6l.493-4.166a.666.666,0,0,0-.192-.562l-2.7-2.7a.678.678,0,0,0-.973,0l-.7.7-1.576-1.583.7-.7a.678.678,0,0,0,.2-.486.663.663,0,0,0-.2-.48l-2.042-2.042a.682.682,0,0,0-.966,0l-.7.7-1.583-1.576.7-.7a.685.685,0,0,0,.206-.487.7.7,0,0,0-.206-.486L21.18,15.548a10.93,10.93,0,0,0,.946-4.481A11.066,11.066,0,0,0,11.066,0Zm1.172,12.238a3.388,3.388,0,0,1-5.783-2.4,3.388,3.388,0,0,1,6.777,0A3.392,3.392,0,0,1,12.238,12.238Z" transform="translate(756.844 3334.083) rotate(-90)" fill="#6ac" />
      </g>
    </g>
    <g id="Group_1903" data-name="Group 1903" transform="translate(8 70)">
      <g id="Group_1902" data-name="Group 1902" transform="translate(-230 17)">
        <g id="Group_1897" data-name="Group 1897" transform="translate(668 2882.198)">
          <g id="Group_1886" data-name="Group 1886" transform="translate(0 75.826)">
            <g id="Group_1882" data-name="Group 1882" transform="translate(334.165 2.949)">
              <g id="Rectangle_1264-2" data-name="Rectangle 1264" transform="translate(-0.171 31.027)" fill="#fff" stroke="#327495" stroke-width="3">
                <rect width="138" height="104" rx="18" stroke="none" />
                <rect x="1.5" y="1.5" width="135" height="101" rx="16.5" fill="none" />
              </g>
              <path id="noun_identification_9042-2" data-name="noun_identification_9042" d="M93.2,22.217A3.218,3.218,0,0,0,89.977,19H5.218A3.218,3.218,0,0,0,2,22.217V73.731a3.218,3.218,0,0,0,3.218,3.217h84.76A3.218,3.218,0,0,0,93.2,73.73ZM35.248,58.9H9.6c-.85-3.364,1.32-5.219,4.838-6.03,3.444-.792,5.867-2.356,3.711-4.512-6.3-6.3-1.591-13.973,4.249-13.973S33,42.053,26.7,48.355c-2.155,2.156.218,3.72,3.659,4.512C33.877,53.679,36.1,55.534,35.248,58.9Zm50.347,0H40.948V55.1H85.6Zm0-9.5H40.948V45.6H85.6Zm0-9.5H40.948V36.1H85.6Z" transform="translate(17.648 35.016)" fill="#327495" />
              <g id="Group_1878" data-name="Group 1878" transform="translate(55.511 0)">
                <g id="Ellipse_451" data-name="Ellipse 451" transform="translate(6.317 21.027)" fill="#fff" stroke="#707070" stroke-width="1">
                  <ellipse cx="7" cy="8" rx="7" ry="8" stroke="none" />
                  <ellipse cx="7" cy="8" rx="6.5" ry="7.5" fill="none" />
                </g>
                <g id="noun_locked_809428" transform="translate(0 0)">
                  <path id="Path_1347" data-name="Path 1347" d="M40.321,18.584V8.662a8.342,8.342,0,0,0-16.684,0v9.921a13.869,13.869,0,1,0,16.684,0ZM33.638,29.715v4.343a1.658,1.658,0,1,1-3.317,0V29.715a2.814,2.814,0,1,1,3.317,0Zm3.668-12.859a13.893,13.893,0,0,0-10.653,0V8.662a5.327,5.327,0,0,1,10.654,0v8.194Z" transform="translate(-18.11 -0.321)" fill="#327495" />
                </g>
              </g>
            </g>
            <text id="Bob_Owner_" data-name="Bob
(Owner)" transform="translate(61.994 202.976)" fill="#327495" font-size="25" font-family="Helvetica">
              <tspan x="-25.714" y="0">Bob</tspan>
              <tspan y="0" font-family="Helvetica-Bold, Helvetica" font-weight="700"></tspan>
              <tspan font-family="Helvetica-Bold, Helvetica" font-weight="700">
                <tspan x="-47.223" y="35">(Owner)</tspan>
              </tspan>
            </text>
            <text id="Private_Key_Signature_" data-name="Private Key
(Signature)" transform="translate(217.994 202.976)" fill="#327495" font-size="25" font-family="Helvetica">
              <tspan x="-63.916" y="0">Private Key</tspan>
              <tspan y="0" font-family="Helvetica-Bold, Helvetica" font-weight="700"></tspan>
              <tspan font-family="Helvetica-Bold, Helvetica" font-weight="700">
                <tspan x="-65.973" y="35">(Signature)</tspan>
              </tspan>
            </text>
            <text id="Signed_Document_Encrypted_" data-name="Signed Document
(Encrypted)" transform="translate(404.994 202.976)" fill="#327495" font-size="25" font-family="Helvetica">
              <tspan x="-99.365" y="0">Signed Document</tspan>
              <tspan font-family="Helvetica-Bold, Helvetica" font-weight="700">
                <tspan x="-69.452" y="35">(Encrypted)</tspan>
              </tspan>
            </text>
            <g id="noun_person_2200675" transform="translate(0 0)">
              <g id="Group_1744" data-name="Group 1744">
                <g id="Group_1743" data-name="Group 1743">
                  <path id="Path_1508" data-name="Path 1508" d="M105.072,97.354H90.67l-1.746-6.692a22.775,22.775,0,0,0,15.567-21.531V60.984c6.11-1.018,10.766-6.692,10.766-13.384a13.748,13.748,0,0,0-7.711-12.511q0-4.364-.436-10.038C105.363,5.846,88.924,2.5,68.557,2.5S31.6,5.846,30.149,25.05q-.436,5.674-.436,10.038A13.589,13.589,0,0,0,22,47.6c0,6.838,4.655,12.511,10.766,13.384v8.147A22.775,22.775,0,0,0,48.335,90.662l-1.746,6.692h-14.4A23.035,23.035,0,0,0,9.2,120.34v14.4a5.991,5.991,0,0,0,5.965,5.965H121.948a5.991,5.991,0,0,0,5.965-5.965v-14.4A22.818,22.818,0,0,0,105.072,97.354ZM39.9,69.131V57.347a3.2,3.2,0,0,0-1.309-2.764A3.33,3.33,0,0,0,35.532,54h-.873c-3.055,0-5.528-2.91-5.528-6.547a6.466,6.466,0,0,1,3.637-5.965v.727a3.492,3.492,0,1,0,6.983,0V35.088a15.352,15.352,0,0,1,2.182-7.711c6.4,2.473,15.858,4.073,26.623,4.073,10.62,0,20.222-1.6,26.623-4.073a15.783,15.783,0,0,1,2.182,7.711v7.129a3.492,3.492,0,0,0,6.983,0v-.727a6.234,6.234,0,0,1,3.637,5.965c0,3.637-2.473,6.547-5.528,6.547h-.873a3.81,3.81,0,0,0-3.055.582,3.583,3.583,0,0,0-1.309,2.764V69.131A15.739,15.739,0,0,1,81.5,84.843h-25.9A15.647,15.647,0,0,1,39.9,69.131ZM81.8,107.1l-9.456,7.129a6.118,6.118,0,0,1-7.565,0L55.318,107.1a6.318,6.318,0,0,1-2.328-6.692l2.182-8.438H81.65l2.182,8.438A5.73,5.73,0,0,1,81.8,107.1Z" transform="translate(-9.2 -2.5)" fill="#327495" />
                  <circle id="Ellipse_508" data-name="Ellipse 508" cx="6.256" cy="6.256" r="6.256" transform="translate(39.862 37.68)" fill="#327495" />
                  <circle id="Ellipse_509" data-name="Ellipse 509" cx="6.256" cy="6.256" r="6.256" transform="translate(66.049 37.68)" fill="#327495" />
                  <path id="Path_1509" data-name="Path 1509" d="M50.415,52.9c3.346-.436,5.237-1.6,6.256-3.2,1.018,1.6,2.91,2.764,6.256,3.2a27.141,27.141,0,0,0,14.257-2.619,1.876,1.876,0,0,0-.291-3.492c-5.674-1.309-11.348-4.364-13.966-5.674a5.422,5.422,0,0,0-6.11.582,5.421,5.421,0,0,0-6.11-.582c-2.619,1.309-8.292,4.364-13.966,5.674a1.848,1.848,0,0,0-.291,3.492A25.606,25.606,0,0,0,50.415,52.9Z" transform="translate(2.686 14.754)" fill="#327495" />
                </g>
              </g>
            </g>
            <g id="noun_signature_1745296-2" data-name="noun_signature_1745296" transform="translate(368.665 122.487)">
              <g id="Group_1876-2" data-name="Group 1876" transform="translate(0 0)">
                <g id="Group_1875-2" data-name="Group 1875">
                  <path id="Path_1569-2" data-name="Path 1569" d="M76.963,49.141a38.282,38.282,0,0,1-11.357,1.485c0-.349.087-.7.087-1.048a2.251,2.251,0,0,0-3.32-1.922c-1.048.612-2.009,1.223-3.058,1.835.087-.437.087-.874.175-1.31.262-1.835-2.009-2.446-3.32-1.922-3.145,1.4-5.853,4.193-9.086,5.416.087-.961.262-1.922.349-2.8.262-2.184-1.835-3.582-3.669-2.1a39.9,39.9,0,0,1-4.98,3.582c.349-.612.612-1.31.961-1.922.874-1.747-1.048-4.368-2.97-2.97-2.271,1.66-4.543,3.232-6.9,4.718a44.475,44.475,0,0,0,2.883-9.7c.349-1.922-2.1-3.931-3.669-2.1a121,121,0,0,1-18,17.385c-2.184,1.747.874,4.8,3.058,3.058A120.846,120.846,0,0,0,25.856,48.355a36.087,36.087,0,0,1-3.669,6.727c-1.31,1.922,1.136,4.019,2.97,2.97,2.359-1.31,4.63-2.708,6.814-4.106-.087.175-.175.262-.262.437a2.2,2.2,0,0,0,2.97,2.97,46.044,46.044,0,0,0,7.6-4.281c0,.262-.087.524-.087.7-.175,1.31.524,2.883,2.1,2.8,4.019-.262,6.9-2.446,10.047-4.455-.087.349-.087.786-.175,1.136-.262,1.835,2.009,2.446,3.32,1.922,1.048-.524,2.1-1.048,3.058-1.573a2.381,2.381,0,0,0,2.009,1.485c5.154-.175,10.309,0,15.288-1.66C80.719,52.461,79.584,48.267,76.963,49.141Z" transform="translate(-10.34 -37.672)" fill="#327495" />
                </g>
              </g>
            </g>
            <line id="Line_460" data-name="Line 460" x2="372.165" transform="translate(46.733 161.363)" fill="none" stroke="#327495" stroke-width="2" />
            <g id="Ellipse_526" data-name="Ellipse 526" transform="translate(44.994 156.976)" fill="#fff" stroke="#327495" stroke-width="2">
              <circle cx="5" cy="5" r="5" stroke="none" />
              <circle cx="5" cy="5" r="4" fill="none" />
            </g>
            <g id="Ellipse_527" data-name="Ellipse 527" transform="translate(227.994 156.976)" fill="#327495" stroke="#327495" stroke-width="2">
              <ellipse cx="5.5" cy="5" rx="5.5" ry="5" stroke="none" />
              <ellipse cx="5.5" cy="5" rx="4.5" ry="4" fill="none" />
            </g>
          </g>
          <g id="Ellipse_528" data-name="Ellipse 528" transform="translate(412.994 232.802)" fill="#fff" stroke="#327495" stroke-width="2">
            <ellipse cx="5.5" cy="5" rx="5.5" ry="5" stroke="none" />
            <ellipse cx="5.5" cy="5" rx="4.5" ry="4" fill="none" />
          </g>
          <text id="PRIVATE_KEY" data-name="PRIVATE KEY" transform="translate(232.993 24.802)" fill="#327495" font-size="25" font-family="Helvetica-Bold, Helvetica" font-weight="700">
            <tspan x="-81.506" y="0">PRIVATE KEY</tspan>
          </text>
          <text id="Bob_encrypts_his_document_using_his_" data-name="Bob encrypts his document using his " transform="translate(233.135 -7)" fill="#327495" font-size="20" font-family="Helvetica-Bold, Helvetica" font-weight="700" opacity="0.5">
            <tspan x="-181.133" y="0">Bob encrypts his document using his </tspan>
          </text>
          <g id="Group_1895" data-name="Group 1895" transform="translate(151.537 49.413)">
            <g id="Group_1880-2" data-name="Group 1880" transform="translate(3.09 0)">
              <text id="Private" transform="translate(80.367 56.389)" fill="#327495" font-size="16" font-family="Helvetica">
                <tspan x="0" y="0">Private</tspan>
              </text>
              <g id="noun_Key_3192361-2" data-name="noun_Key_3192361" transform="translate(75.836 0) rotate(45)">
                <path id="Path_1345-2" data-name="Path 1345" d="M34.641,107.249a34.631,34.631,0,1,1,14.028-66.3L88.995.622A2.124,2.124,0,0,1,90.518,0a.8.8,0,0,1,.236.021l13.063,1.544a2.163,2.163,0,0,1,1.866,1.888l1.544,13.041a2.084,2.084,0,0,1-.6,1.759L98.175,26.7a2.124,2.124,0,0,1-3.046,0l-2.188-2.188-4.933,4.955L90.2,31.66a2.123,2.123,0,0,1,.622,1.523,2.075,2.075,0,0,1-.622,1.5L83.8,41.076a2.136,2.136,0,0,1-3.024,0l-2.188-2.188-4.955,4.933,2.188,2.188a2.144,2.144,0,0,1,.643,1.523,2.181,2.181,0,0,1-.643,1.523L66.3,58.579a34.214,34.214,0,0,1,2.96,14.028,34.64,34.64,0,0,1-34.62,34.641Zm3.668-38.309a10.607,10.607,0,0,0-18.1,7.507,10.607,10.607,0,0,0,21.214,0A10.619,10.619,0,0,0,38.309,68.939Z" transform="translate(0 0)" fill="#327495" />
              </g>
            </g>
            <g id="Group_1894-2" data-name="Group 1894" transform="translate(0 120.732)">
              <rect id="Rectangle_1269-2" data-name="Rectangle 1269" width="163" height="35" rx="12" transform="translate(0.457 -0.343)" fill="#327495" />
              <text id="x0Bl2kJMx..." transform="translate(80.457 26.657)" fill="#fff" font-size="21" font-family="Helvetica-Bold, Helvetica" font-weight="700">
                <tspan x="-63.036" y="0">x0Bl2kJMx...</tspan>
              </text>
            </g>
          </g>
        </g>
        <text id="Are_personal_and_shouldn_t_be_shared_with_anyone._Because_of_this_these_keys_can_be_used_as_the_user_s_digital_signature_when_encrypting_a_document." data-name="Are personal and shouldn't be shared with anyone. Because of this, these keys can be used as the user's digital signature when encrypting a document." transform="translate(686 2701.027)" fill="#707070" font-size="25" font-family="Helvetica">
          <tspan x="0.907" y="19">Are personal and shouldn't be shared with </tspan>
          <tspan x="10.251" y="49">anyone. Because of this, these keys can </tspan>
          <tspan x="24.54" y="79">be used as the user's digital signature </tspan>
          <tspan x="70.707" y="109">when encrypting a document.</tspan>
        </text>
      </g>
      <g id="Group_2079" data-name="Group 2079" transform="translate(41.156)">
        <text id="Private_Keys_" data-name="Private Keys " transform="translate(567 2689)" fill="#327495" font-size="35" font-family="Helvetica-Bold, Helvetica" font-weight="700">
          <tspan x="0" y="0">Private Keys </tspan>
        </text>
        <path id="Path_1572" data-name="Path 1572" d="M11.066,34.261a11.063,11.063,0,1,1,4.481-21.18L28.43.2a.678.678,0,0,1,.487-.2.257.257,0,0,1,.075.007L33.165.5a.691.691,0,0,1,.6.6l.493,4.166a.666.666,0,0,1-.192.562l-2.7,2.7a.678.678,0,0,1-.973,0l-.7-.7L28.115,9.415l.7.7a.678.678,0,0,1,.2.486.663.663,0,0,1-.2.48l-2.042,2.042a.682.682,0,0,1-.966,0l-.7-.7L23.524,14l.7.7a.685.685,0,0,1,.206.487.7.7,0,0,1-.206.486L21.18,18.714a10.93,10.93,0,0,1,.946,4.481,11.066,11.066,0,0,1-11.06,11.066Zm1.172-12.238a3.388,3.388,0,0,0-5.783,2.4,3.388,3.388,0,0,0,6.777,0A3.392,3.392,0,0,0,12.238,22.023Z" transform="translate(554.105 2657.823) rotate(90)" fill="#327495" />
      </g>
    </g>
    <line id="Line_463" data-name="Line 463" x2="144" transform="translate(596.5 3005.5)" fill="none" stroke="#327495" stroke-width="3" opacity="0.1" />
    <line id="Line_464" data-name="Line 464" x2="144" transform="translate(1143.5 3005.5)" fill="none" stroke="#327495" stroke-width="3" opacity="0.1" />
  </g>
</svg>
