<svg xmlns="http://www.w3.org/2000/svg" width="34" viewBox="0 0 40.641 40.641">
  <g id="noun_url_1146611" transform="translate(-9.3 -9.4)">
    <g id="Group_1861" data-name="Group 1861" transform="translate(24.147 24.397)">
      <path id="Path_1563" data-name="Path 1563" d="M39,56.746a2.352,2.352,0,0,0,.7,1.65l3.1,2.8a12.675,12.675,0,0,0,9.1,3.849,12.866,12.866,0,0,0,9.1-21.995L58.046,40.1a2.333,2.333,0,1,0-3.3,3.3L57.7,46.348a8.248,8.248,0,0,1-5.849,14.1A8.243,8.243,0,0,1,46,58.046L43.049,55.1a2.294,2.294,0,0,0-3.3,0A2.136,2.136,0,0,0,39,56.746Z" transform="translate(-39 -39.4)" fill="#888"/>
    </g>
    <g id="Group_1862" data-name="Group 1862" transform="translate(9.3 9.4)">
      <path id="Path_1564" data-name="Path 1564" d="M30.945,19.4a2.294,2.294,0,0,0,3.3,0,2.293,2.293,0,0,0,0-3.249L31.295,13.2a12.625,12.625,0,0,0-9.1-3.8,12.831,12.831,0,0,0-9.1,21.945l2.949,2.949a2.266,2.266,0,0,0,3.3,0,2.294,2.294,0,0,0,0-3.3L16.4,28.046a8.248,8.248,0,0,1,5.849-14.1,8.243,8.243,0,0,1,5.849,2.4Z" transform="translate(-9.3 -9.4)" fill="#888"/>
    </g>
    <g id="Group_1863" data-name="Group 1863" transform="translate(22.247 22.397)">
      <path id="Path_1565" data-name="Path 1565" d="M35.2,37.7a2.352,2.352,0,0,0,.7,1.65l9.948,9.9a2.266,2.266,0,0,0,3.3,0,2.293,2.293,0,0,0,0-3.249L39.2,36.1a2.294,2.294,0,0,0-3.3,0,2.741,2.741,0,0,0-.7,1.6Z" transform="translate(-35.2 -35.4)" fill="#888"/>
    </g>
  </g>
</svg>
