<svg xmlns="http://www.w3.org/2000/svg" width="59.749" height="59.749" viewBox="0 0 59.749 59.749">
  <g id="Group_2777" data-name="Group 2777" transform="translate(-11.665 -11.666)">
    <rect id="Rectangle_1394" data-name="Rectangle 1394" width="18.596" height="2.066" transform="translate(32.241 47.672)" fill="#fff"/>
    <rect id="Rectangle_1395" data-name="Rectangle 1395" width="18.596" height="2.066" transform="translate(32.241 43.089)" fill="#fff"/>
    <rect id="Rectangle_1397" data-name="Rectangle 1397" width="18.596" height="2.066" transform="translate(32.241 38.506)" fill="#fff"/>
    <path id="Path_1741" data-name="Path 1741" d="M41.539,11.666A29.875,29.875,0,1,0,71.414,41.54,29.874,29.874,0,0,0,41.539,11.666Zm13.386,43.26a3.63,3.63,0,0,1-3.629,3.63H31.784a3.63,3.63,0,0,1-3.63-3.63V28.155a3.63,3.63,0,0,1,3.63-3.63H47.1v7.26h7.827ZM48.648,30.235V24.525l6.277,5.71H48.648Z" fill="#fff"/>
  </g>
</svg>
