<svg id="Group_2776" data-name="Group 2776" xmlns="http://www.w3.org/2000/svg" width="60" height="60" viewBox="0 0 60 60">
  <circle id="Ellipse_549" data-name="Ellipse 549" cx="30" cy="30" r="30" fill="#fff"/>
  <g id="noun_signature_1745297" transform="translate(7.894 17.273)">
    <g id="Group_1912" data-name="Group 1912">
      <g id="Group_1911" data-name="Group 1911">
        <g id="Group_1910" data-name="Group 1910">
          <path id="Path_1575" data-name="Path 1575" d="M29.026,38.308a42.148,42.148,0,0,0,11.885-7.731A1.479,1.479,0,0,0,39.872,28.1c-2.885-.115-5.077,1.673-7.212,3.346a64.441,64.441,0,0,0-5.308,4.5,106.365,106.365,0,0,1-13.9,4.673,1.435,1.435,0,0,0,.75,2.769c2.885-.808,5.769-1.673,8.6-2.654a63.027,63.027,0,0,0-7.269,10.5,1.435,1.435,0,0,0,2.481,1.442,62.631,62.631,0,0,1,9-12.346C27.642,39.635,28.334,38.942,29.026,38.308Z" transform="translate(-12.426 -28.091)" fill="#327495" stroke="#327495" stroke-width="1"/>
          <path id="Path_1576" data-name="Path 1576" d="M64.67,45.7a35.9,35.9,0,0,1-5.077.635,2.539,2.539,0,0,0-.115-.577,1.432,1.432,0,0,0-1.788-.981c-.462.173-3.808,1.558-4.1,1.038a1.423,1.423,0,0,0-1.962-.519,11.24,11.24,0,0,1-5.365,2.077,10.025,10.025,0,0,1,.577-1.1c.635-.981-.462-2.6-1.615-2.135a57.164,57.164,0,0,0-7.846,3.692,1.435,1.435,0,0,0,1.442,2.481c1.385-.75,2.769-1.5,4.212-2.135,0,.115-.058.173-.058.288a1.5,1.5,0,0,0,1.385,1.846,13.97,13.97,0,0,0,7.788-1.9c1.327.865,3.173.288,4.846-.288a1.513,1.513,0,0,0,.981.981c2.135.346,4.558-.231,6.692-.462C66.459,48.41,66.516,45.525,64.67,45.7Z" transform="translate(-22.685 -34.847)" fill="#327495" stroke="#327495" stroke-width="1"/>
        </g>
      </g>
    </g>
  </g>
</svg>
