<svg xmlns="http://www.w3.org/2000/svg" width="60" height="60" viewBox="0 0 60 60">
  <g id="Group_2807" data-name="Group 2807" transform="translate(-41 -34)">
    <circle id="Ellipse_549" data-name="Ellipse 549" cx="30" cy="30" r="30" transform="translate(41 34)" fill="#fff"/>
    <g id="noun_clipboard_534026" transform="translate(56.119 47.851)">
      <g id="Group_2786" data-name="Group 2786" transform="translate(1.5)">
        <path id="Path_1968" data-name="Path 1968" d="M7.478,5.314H19.435A.665.665,0,0,0,20.1,4.65V3.321a2,2,0,0,0-1.993-1.993H15.75a2.643,2.643,0,0,0-4.586,0H8.807A2,2,0,0,0,6.814,3.321V4.65A.665.665,0,0,0,7.478,5.314ZM22.092,17.271A7.307,7.307,0,1,0,29.4,24.578,7.316,7.316,0,0,0,22.092,17.271Zm3.127,6.449a.667.667,0,0,1-.941,0L22.756,22.2v6.368a.664.664,0,1,1-1.329,0V22.2l-1.522,1.522a.664.664,0,0,1-.939-.939l2.656-2.656a.688.688,0,0,1,.217-.145.659.659,0,0,1,.507,0,.633.633,0,0,1,.217.145l2.656,2.656A.665.665,0,0,1,25.219,23.719Zm-11.763.858a8.627,8.627,0,0,1,11.1-8.273.651.651,0,0,0,.586-.1.662.662,0,0,0,.267-.533V4.65a1.993,1.993,0,0,0-1.991-1.993H22.092a.665.665,0,0,0-.664.664V4.65a2,2,0,0,1-1.993,1.993H7.478A2,2,0,0,1,5.486,4.65V3.321a.665.665,0,0,0-.664-.664H3.493A2,2,0,0,0,1.5,4.65V29.892a2,2,0,0,0,1.993,1.993h12.1a.177.177,0,0,0,.027,0,.665.665,0,0,0,.344-1.233A8.564,8.564,0,0,1,13.457,24.578Z" transform="translate(-1.5)" fill="#327495"/>
      </g>
    </g>
  </g>
</svg>
