<svg xmlns="http://www.w3.org/2000/svg" width="60" height="60" viewBox="0 0 60 60">
  <g id="Group_2776" data-name="Group 2776" transform="translate(-401 -1636)">
    <circle id="Ellipse_549" data-name="Ellipse 549" cx="30" cy="30" r="30" transform="translate(401 1636)" fill="#fff"/>
    <g id="Group_2779" data-name="Group 2779" transform="translate(416.449 1646.829)">
      <path id="Union_55" data-name="Union 55" d="M5.9,34.467a5.84,5.84,0,0,1-4.252-1.6A5.814,5.814,0,0,1,0,28.539c0-.692.023-1.377.067-2.035a20.967,20.967,0,0,1,.271-2.179,17.625,17.625,0,0,1,.52-2.189,11,11,0,0,1,.874-2.042,7.681,7.681,0,0,1,1.317-1.769A5.783,5.783,0,0,1,4.942,17.1a6.367,6.367,0,0,1,2.416-.451,2.41,2.41,0,0,1,1.309.572c.4.267.858.572,1.366.907a7.69,7.69,0,0,0,1.764.8,6.668,6.668,0,0,0,4.319,0,7.707,7.707,0,0,0,1.766-.8c.513-.337.972-.642,1.365-.906a2.413,2.413,0,0,1,1.31-.572,6.373,6.373,0,0,1,2.417.451,5.788,5.788,0,0,1,1.893,1.225,7.675,7.675,0,0,1,1.318,1.769,10.993,10.993,0,0,1,.874,2.042,17.638,17.638,0,0,1,.52,2.19,21.142,21.142,0,0,1,.271,2.178h0c.045.656.067,1.341.068,2.036a5.581,5.581,0,0,1-5.9,5.928Zm2.146-20.3A8.156,8.156,0,0,1,5.688,8.3,8.156,8.156,0,0,1,8.049,2.432,7.686,7.686,0,0,1,13.747,0a7.688,7.688,0,0,1,5.7,2.432A8.157,8.157,0,0,1,21.807,8.3a8.157,8.157,0,0,1-2.361,5.869,7.686,7.686,0,0,1-5.7,2.432A7.689,7.689,0,0,1,8.049,14.171ZM9.436,3.86A6.093,6.093,0,0,0,7.649,8.3a6.092,6.092,0,0,0,1.787,4.441,5.743,5.743,0,0,0,4.312,1.84,5.742,5.742,0,0,0,4.312-1.84A6.093,6.093,0,0,0,19.846,8.3,6.094,6.094,0,0,0,18.059,3.86a5.743,5.743,0,0,0-4.312-1.84A5.741,5.741,0,0,0,9.436,3.86Z" fill="#327495"/>
      <path id="Path_1473" data-name="Path 1473" d="M4893.073,857.438l-2.7-2.336-.767-3.264.5-3.848,2.969-3.161,3.636-.893,3.736.893,2.168,2.371,1.2,3.5-.734,4.4-3.435,2.989-3.736.618Z" transform="translate(-4882.924 -842.963)" fill="#327495"/>
    </g>
  </g>
</svg>
