<svg xmlns="http://www.w3.org/2000/svg" width="87.897" height="91.303" viewBox="0 0 87.897 91.303">
  <path id="noun_Stamp_831862" d="M136.375,53.568a9.387,9.387,0,0,0,0,11.21,9.387,9.387,0,0,1-4.784,14.586A9.387,9.387,0,0,0,125,88.389a9.369,9.369,0,0,1-12.383,9.026,9.387,9.387,0,0,0-10.65,3.466,9.387,9.387,0,0,1-15.308,0,9.387,9.387,0,0,0-10.65-3.466,9.369,9.369,0,0,1-12.383-9.026,9.387,9.387,0,0,0-6.679-9.026,9.387,9.387,0,0,1-4.729-14.55,9.387,9.387,0,0,0,0-11.21A9.387,9.387,0,0,1,56.948,39a9.387,9.387,0,0,0,6.589-9.026,9.369,9.369,0,0,1,12.383-9.026,9.387,9.387,0,0,0,10.65-3.466,9.387,9.387,0,0,1,15.308,0,9.387,9.387,0,0,0,10.65,3.466,9.369,9.369,0,0,1,12.383,9.026A9.387,9.387,0,0,0,131.5,39a9.387,9.387,0,0,1,4.874,14.568ZM108.089,48.5a5.524,5.524,0,0,0-7.816,0l-9.6,9.6-2.293-2.293a5.527,5.527,0,1,0-7.816,7.816l2.293,2.293,3.917,3.917a5.542,5.542,0,0,0,7.816,0l3.881-3.917,9.6-9.6a5.524,5.524,0,0,0,.018-7.816Z" transform="translate(-50.338 -13.53)" fill="#327495"/>
</svg>
