<svg xmlns="http://www.w3.org/2000/svg" width="362" height="499.138" viewBox="0 0 362 499.138">
  <g id="Group_2106" data-name="Group 2106" transform="translate(-496 -2534.862)">
    <text id="_x2" data-name=" x2" transform="translate(593 2735)" fill="#484848" font-size="30" font-family="Helvetica-Bold, Helvetica" font-weight="700"><tspan x="0" y="0" xml:space="preserve"> x2</tspan></text>
    <g id="Group_2105" data-name="Group 2105">
      <g id="Group_1870" data-name="Group 1870" transform="translate(-7 484)">
        <g id="Group_1550" data-name="Group 1550" transform="translate(632.084 2162.561)">
          <g id="Group_1547" data-name="Group 1547" transform="translate(0 0)">
            <g id="noun_Key_3192361" transform="translate(98.936 0) rotate(45)">
              <path id="Path_1345" data-name="Path 1345" d="M45.193,139.917a45.179,45.179,0,1,1,18.3-86.5L116.1.812A2.771,2.771,0,0,1,118.09,0a1.048,1.048,0,0,1,.308.028L135.44,2.043a2.822,2.822,0,0,1,2.435,2.463l2.015,17.014a2.718,2.718,0,0,1-.783,2.295L128.08,34.839a2.77,2.77,0,0,1-3.974,0l-2.854-2.854-6.436,6.464,2.854,2.854a2.77,2.77,0,0,1,.811,1.987,2.707,2.707,0,0,1-.811,1.959l-8.339,8.339a2.787,2.787,0,0,1-3.946,0l-2.854-2.854L96.067,57.17l2.854,2.854a2.8,2.8,0,0,1,.839,1.987A2.846,2.846,0,0,1,98.922,64L86.5,76.423a44.636,44.636,0,0,1,3.862,18.3,45.191,45.191,0,0,1-45.165,45.193Zm4.785-49.978a13.838,13.838,0,0,0-23.618,9.794,13.838,13.838,0,0,0,27.675,0A13.854,13.854,0,0,0,49.979,89.939Z" transform="translate(0 0)" fill="#484848"/>
            </g>
            <text id="Private" transform="translate(103.916 71.439)" fill="#484848" font-size="20" font-family="Helvetica"><tspan x="0" y="0">Private</tspan></text>
          </g>
          <g id="Group_1546" data-name="Group 1546" transform="translate(11.193 153.908)">
            <g id="noun_Key_3192361-2" data-name="noun_Key_3192361" transform="translate(197.87 98.936) rotate(135)">
              <path id="Path_1345-2" data-name="Path 1345" d="M45.193,0A45.174,45.174,0,0,0,13.236,77.123,45.229,45.229,0,0,0,63.494,86.5L116.1,139.105a2.771,2.771,0,0,0,1.987.812,1.048,1.048,0,0,0,.308-.028l17.042-2.015a2.822,2.822,0,0,0,2.435-2.463l2.015-17.014a2.718,2.718,0,0,0-.783-2.295L128.08,105.078a2.77,2.77,0,0,0-3.974,0l-2.854,2.854-6.436-6.464,2.854-2.854a2.77,2.77,0,0,0,.811-1.987,2.707,2.707,0,0,0-.811-1.959l-8.339-8.339a2.787,2.787,0,0,0-3.946,0l-2.854,2.854-6.464-6.436,2.854-2.854a2.8,2.8,0,0,0,.839-1.987,2.846,2.846,0,0,0-.839-1.987L86.5,63.494a44.636,44.636,0,0,0,3.862-18.3A45.191,45.191,0,0,0,45.193,0Zm4.785,49.978a13.838,13.838,0,0,1-23.618-9.794,13.838,13.838,0,0,1,27.675,0A13.854,13.854,0,0,1,49.979,49.978Z" transform="translate(0 0)" fill="#9a9a9a"/>
            </g>
            <text id="Public" transform="translate(17.722 73.531)" fill="#9a9a9a" font-size="20" font-family="Helvetica"><tspan x="0" y="0">Public</tspan></text>
          </g>
        </g>
        <text id="Julia_Notary_" data-name="Julia 
(Notary)" transform="translate(540 2107)" fill="#484848" font-size="30" font-family="Helvetica"><tspan x="0" y="0">Julia</tspan><tspan y="0" font-family="Helvetica-Bold, Helvetica" font-weight="700"> </tspan><tspan font-family="Helvetica-Bold, Helvetica" font-weight="700"><tspan x="0" y="40">(Notary)</tspan></tspan></text>
        <g id="Group_1553" data-name="Group 1553" transform="translate(635.875 2264.283) rotate(90)">
          <line id="Line_371" data-name="Line 371" x2="75.555" transform="translate(12.605 9.794)" fill="none" stroke="#484848" stroke-width="1"/>
          <path id="Path_1392" data-name="Path 1392" d="M0,0H58.765" transform="translate(71.37 9.794)" fill="none" stroke="#9a9a9a" stroke-width="1"/>
          <ellipse id="Ellipse_458" data-name="Ellipse 458" cx="10" cy="10.5" rx="10" ry="10.5" transform="translate(-0.283 -0.126)" fill="#484848"/>
          <path id="Path_1393" data-name="Path 1393" d="M9.794,0A9.794,9.794,0,1,1,0,9.794,9.794,9.794,0,0,1,9.794,0Z" transform="translate(123.139)" fill="#9a9a9a"/>
        </g>
        <g id="noun_Happy_2199103" transform="translate(672.326 2050.862)">
          <g id="Group_1749" data-name="Group 1749" transform="translate(0 0)">
            <g id="Group_1748" data-name="Group 1748">
              <circle id="Ellipse_510" data-name="Ellipse 510" cx="5.917" cy="5.917" r="5.917" transform="translate(37.812 39.689)" fill="#484848"/>
              <circle id="Ellipse_511" data-name="Ellipse 511" cx="5.917" cy="5.917" r="5.917" transform="translate(62.636 39.689)" fill="#484848"/>
              <path id="Path_1510" data-name="Path 1510" d="M54.655,56.8c5.917,0,11.4-2.742,14.288-7.216a3.343,3.343,0,1,0-5.629-3.608c-1.588,2.6-4.907,4.041-8.659,4.041A10.433,10.433,0,0,1,46,45.977a3.343,3.343,0,0,0-5.629,3.608C43.253,54.059,48.738,56.8,54.655,56.8Z" transform="translate(1.631 16.082)" fill="#484848"/>
              <path id="Path_1511" data-name="Path 1511" d="M101.734,98.619H88.168L86.436,91.98c15.154,1.3,26.555.577,23.38-31.318,2.021-2.165,3.031-5.2,3.031-9.525,0-5.34-1.3-9.092-3.9-11.546a15.1,15.1,0,0,0-2.742-1.732C98.415,1.923,72.148,2.5,67.386,2.5S36.212,2.067,28.563,38a8.978,8.978,0,0,0-2.886,1.732c-2.6,2.309-3.9,6.062-3.9,11.546q0,6.494,3.031,9.525C21.635,92.413,33.037,93.279,48.046,91.98l-1.732,6.639H32.748A21.619,21.619,0,0,0,11.1,120.267v13.566a5.762,5.762,0,0,0,5.629,5.773H117.754a5.668,5.668,0,0,0,5.629-5.773V120.267A21.619,21.619,0,0,0,101.734,98.619ZM36.645,61.239a4.313,4.313,0,0,0-3.9-3.9c-2.453-.289-4.33-.433-4.33-6.062,0-4.33,1.01-5.917,1.588-6.494a1.543,1.543,0,0,1,.722-.433,3.4,3.4,0,0,0,2.742,2.6,3.323,3.323,0,0,0,3.9-2.742,52.273,52.273,0,0,1,2.453-8.8c5.629.577,14.144-1.3,22.947-5.484a73.675,73.675,0,0,0,11.69-7.072c1.3,1.3,2.742,2.742,4.33,4.041,5.629,4.618,11.546,7.649,15.875,8.371a50.223,50.223,0,0,1,2.6,8.948,3.4,3.4,0,0,0,3.319,2.742h.577a3.4,3.4,0,0,0,2.742-2.6,1.543,1.543,0,0,1,.722.433c.577.577,1.588,2.165,1.588,6.494,0,5.629-1.876,5.773-4.33,6.062a4.313,4.313,0,0,0-3.9,3.9c-.866,8.659-6.35,16.453-16.02,23.236a25.642,25.642,0,0,1-29.153,0C42.851,77.548,37.511,69.754,36.645,61.239ZM79.8,107.855l-8.948,6.639a6.062,6.062,0,0,1-7.216,0l-8.948-6.639a5.758,5.758,0,0,1-2.165-6.35l2.309-8.371a30.381,30.381,0,0,0,12.412,2.6,32.938,32.938,0,0,0,12.412-2.6l2.309,8.371A6.16,6.16,0,0,1,79.8,107.855Z" transform="translate(-11.1 -2.5)" fill="#484848"/>
            </g>
          </g>
        </g>
      </g>
      <text id="_" data-name="*" transform="translate(652 2623)" fill="#484848" font-size="30" font-family="Helvetica-Bold, Helvetica" font-weight="700"><tspan x="0" y="0">*</tspan></text>
      <g id="Group_1893" data-name="Group 1893" transform="translate(6 330)">
        <text id="Note:_Notaries_have_two_sets_of_Private_Public_Keys_PEM_keys_and_Blockchain_keys_" data-name="Note: Notaries have two sets of Private/Public Keys (PEM keys and Blockchain keys)" transform="translate(497 2643)" fill="#707070" font-size="15" font-family="Helvetica"><tspan x="6.589" y="12">Note: Notaries have two sets of Private/Public Keys </tspan><tspan x="68.292" y="30">(PEM keys and Blockchain keys)</tspan></text>
      </g>
      <text id="_2" data-name="*" transform="translate(496 2996)" fill="#484848" font-size="31" font-family="Helvetica-Bold, Helvetica" font-weight="700"><tspan x="0" y="0">*</tspan></text>
    </g>
  </g>
</svg>
