<svg xmlns="http://www.w3.org/2000/svg" width="34" viewBox="0 0 49 49">
  <g id="noun_text_box_660638" data-name="noun_text box_660638" transform="translate(-5 -5)">
    <path id="Path_1556" data-name="Path 1556" d="M48.435,38.772V20.228a7.774,7.774,0,1,0-9.666-9.65H20.231a7.774,7.774,0,1,0-9.661,9.651V38.771a7.774,7.774,0,1,0,9.654,9.671H38.774a7.774,7.774,0,1,0,9.661-9.669Zm-9.666,5.215H20.231a7.757,7.757,0,0,0-5.206-5.215V20.228a7.758,7.758,0,0,0,5.2-5.2H38.775a7.757,7.757,0,0,0,5.205,5.2V38.771A7.757,7.757,0,0,0,38.769,43.987ZM46.2,9.455a3.34,3.34,0,0,1,.014,6.679l-.011,0-.014,0a3.34,3.34,0,0,1,.011-6.68ZM9.454,12.8a3.339,3.339,0,0,1,6.677-.026l-.007.035,0,.026a3.341,3.341,0,0,1-3.32,3.3l-.011,0-.014,0A3.345,3.345,0,0,1,9.454,12.8ZM12.8,49.545a3.341,3.341,0,1,1,3.336-3.366l-.007.035,0,.026A3.342,3.342,0,0,1,12.8,49.545Zm33.409,0A3.341,3.341,0,1,1,49.545,46.2,3.347,3.347,0,0,1,46.2,49.545Z" fill="#888"/>
    <path id="Path_1557" data-name="Path 1557" d="M49.349,32.273H34.5a2.227,2.227,0,0,0,0,4.455H49.349a2.227,2.227,0,0,0,0-4.455Z" transform="translate(-12.424 -12.424)" fill="#888"/>
    <path id="Path_1558" data-name="Path 1558" d="M49.349,45.909H34.5a2.227,2.227,0,0,0,0,4.455H49.349a2.227,2.227,0,0,0,0-4.455Z" transform="translate(-12.424 -18.636)" fill="#888"/>
    <path id="Path_1559" data-name="Path 1559" d="M49.349,59.546H34.5A2.227,2.227,0,1,0,34.5,64H49.349a2.227,2.227,0,1,0,0-4.455Z" transform="translate(-12.424 -24.849)" fill="#888"/>
  </g>
</svg>
