<svg xmlns="http://www.w3.org/2000/svg" width="34" viewBox="0 0 45.944 45.035">
  <g id="_5ebeb73b2ec1c7494ab0e98d_noun_shape_1992898" data-name="5ebeb73b2ec1c7494ab0e98d_noun_shape_1992898" transform="translate(-3 -3.275)">
    <g id="Group_2012" data-name="Group 2012" transform="translate(3 3.275)">
      <path id="Path_1706" data-name="Path 1706" d="M25.972,48.31a9.416,9.416,0,0,1-3.829-.957L7.02,39.312A7.9,7.9,0,0,1,3,32.229V19.212A7.625,7.625,0,0,1,7.212,12.32L22.143,4.28a7.435,7.435,0,0,1,7.466,0l15.123,8.04h0A7.705,7.705,0,0,1,48.944,19.4V32.8a7.875,7.875,0,0,1-4.4,7.083L29.609,47.544A11.194,11.194,0,0,1,25.972,48.31ZM25.78,6.96a3.234,3.234,0,0,0-1.914.574L8.934,15.575a4.1,4.1,0,0,0-2.106,3.637V32.229a4.1,4.1,0,0,0,2.106,3.637l15.123,8.04a4.469,4.469,0,0,0,3.829,0l14.932-7.657a4.289,4.289,0,0,0,2.3-3.637v-13.4a4.1,4.1,0,0,0-2.106-3.637L27.886,7.534A4.363,4.363,0,0,0,25.78,6.96Z" transform="translate(-3 -3.275)" fill="#888"/>
    </g>
    <g id="Group_2013" data-name="Group 2013" transform="translate(23.866 14.279)">
      <path id="Path_1707" data-name="Path 1707" d="M16.006,42.671a1.918,1.918,0,0,1-1.914-1.914L13.9,24.293a8,8,0,0,1,4.594-7.274L34.958,9.17a1.885,1.885,0,1,1,1.531,3.446L20.217,20.465a4.354,4.354,0,0,0-2.3,3.829l.191,16.655a2.083,2.083,0,0,1-2.106,1.723Z" transform="translate(-13.9 -9.023)" fill="#888"/>
    </g>
    <g id="Group_2014" data-name="Group 2014" transform="translate(4.193 14.279)">
      <path id="Path_1708" data-name="Path 1708" d="M26.168,22.953a1.151,1.151,0,0,1-.766-.191L4.727,12.616a1.9,1.9,0,0,1-.957-2.489A2.2,2.2,0,0,1,6.45,9.17L27.125,19.316a1.9,1.9,0,0,1,.957,2.489A2.33,2.33,0,0,1,26.168,22.953Z" transform="translate(-3.623 -9.023)" fill="#888"/>
    </g>
  </g>
</svg>
