<svg xmlns="http://www.w3.org/2000/svg" width="270.409" height="488.544" viewBox="0 0 270.409 488.544">
  <g id="Group_1871" data-name="Group 1871" transform="translate(-1065 -2025.795)">
    <g id="Group_1551" data-name="Group 1551" transform="translate(1126.346 2162.561)">
      <g id="Group_1548" data-name="Group 1548" transform="translate(0 0)">
        <g id="noun_Key_3192361" transform="translate(98.936 0) rotate(45)">
          <path id="Path_1345" data-name="Path 1345" d="M45.193,139.917a45.179,45.179,0,1,1,18.3-86.5L116.1.812A2.771,2.771,0,0,1,118.09,0a1.048,1.048,0,0,1,.308.028L135.44,2.043a2.822,2.822,0,0,1,2.435,2.463l2.015,17.014a2.718,2.718,0,0,1-.783,2.295L128.08,34.839a2.77,2.77,0,0,1-3.974,0l-2.854-2.854-6.436,6.464,2.854,2.854a2.77,2.77,0,0,1,.811,1.987,2.707,2.707,0,0,1-.811,1.959l-8.339,8.339a2.787,2.787,0,0,1-3.946,0l-2.854-2.854L96.067,57.17l2.854,2.854a2.8,2.8,0,0,1,.839,1.987A2.846,2.846,0,0,1,98.922,64L86.5,76.423a44.636,44.636,0,0,1,3.862,18.3,45.191,45.191,0,0,1-45.165,45.193Zm4.785-49.978a13.838,13.838,0,0,0-23.618,9.794,13.838,13.838,0,0,0,27.675,0A13.854,13.854,0,0,0,49.979,89.939Z" transform="translate(0 0)" fill="#327495"/>
        </g>
        <text id="Private" transform="translate(105.654 71.439)" fill="#327495" font-size="20" font-family="Helvetica"><tspan x="0" y="0">Private</tspan></text>
      </g>
      <g id="Group_1549" data-name="Group 1549" transform="translate(11.193 153.908)">
        <g id="noun_Key_3192361-2" data-name="noun_Key_3192361" transform="translate(197.87 98.936) rotate(135)">
          <path id="Path_1345-2" data-name="Path 1345" d="M45.193,0A45.174,45.174,0,0,0,13.236,77.123,45.229,45.229,0,0,0,63.494,86.5L116.1,139.105a2.771,2.771,0,0,0,1.987.812,1.048,1.048,0,0,0,.308-.028l17.042-2.015a2.822,2.822,0,0,0,2.435-2.463l2.015-17.014a2.718,2.718,0,0,0-.783-2.295L128.08,105.078a2.77,2.77,0,0,0-3.974,0l-2.854,2.854-6.436-6.464,2.854-2.854a2.77,2.77,0,0,0,.811-1.987,2.707,2.707,0,0,0-.811-1.959l-8.339-8.339a2.787,2.787,0,0,0-3.946,0l-2.854,2.854-6.464-6.436,2.854-2.854a2.8,2.8,0,0,0,.839-1.987,2.846,2.846,0,0,0-.839-1.987L86.5,63.494a44.636,44.636,0,0,0,3.862-18.3A45.191,45.191,0,0,0,45.193,0Zm4.785,49.978a13.838,13.838,0,0,1-23.618-9.794,13.838,13.838,0,0,1,27.675,0A13.854,13.854,0,0,1,49.979,49.978Z" transform="translate(0 0)" fill="#6ac"/>
        </g>
        <text id="Public" transform="translate(13.461 73.531)" fill="#6ac" font-size="20" font-family="Helvetica"><tspan x="0" y="0">Public</tspan></text>
      </g>
    </g>
    <text id="Bob_Owner_" data-name="Bob 
(Owner)" transform="translate(1065 2099)" fill="#327495" font-size="30" font-family="Helvetica"><tspan x="0" y="0">Bob</tspan><tspan y="0" font-family="Helvetica-Bold, Helvetica" font-weight="700"> </tspan><tspan font-family="Helvetica-Bold, Helvetica" font-weight="700"><tspan x="0" y="40">(Owner)</tspan></tspan></text>
    <g id="Group_1554" data-name="Group 1554" transform="translate(1135.733 2264.283) rotate(90)">
      <path id="Path_1394" data-name="Path 1394" d="M0,0H75.555" transform="translate(12.605 9.794)" fill="none" stroke="#327495" stroke-width="1"/>
      <path id="Path_1392" data-name="Path 1392" d="M0,0H58.765" transform="translate(71.37 9.794)" fill="none" stroke="#6ac" stroke-width="1"/>
      <ellipse id="Ellipse_458" data-name="Ellipse 458" cx="10" cy="9.5" rx="10" ry="9.5" transform="translate(-0.283 0.733)" fill="#327495"/>
      <path id="Path_1393" data-name="Path 1393" d="M9.794,0A9.794,9.794,0,1,1,0,9.794,9.794,9.794,0,0,1,9.794,0Z" transform="translate(123.139)" fill="#6ac"/>
    </g>
    <g id="noun_person_2200675" transform="translate(1191.006 2025.795)">
      <g id="Group_1744" data-name="Group 1744" transform="translate(0 0)">
        <g id="Group_1743" data-name="Group 1743">
          <path id="Path_1508" data-name="Path 1508" d="M118.941,111.075H102.455l-2-7.66a26.069,26.069,0,0,0,17.818-24.646V69.444c6.994-1.166,12.323-7.66,12.323-15.32A15.737,15.737,0,0,0,121.772,39.8q0-5-.5-11.49C119.274,6.33,100.456,2.5,77.143,2.5S34.845,6.33,33.18,28.312q-.5,6.495-.5,11.49a15.555,15.555,0,0,0-8.826,14.321c0,7.827,5.329,14.321,12.323,15.32v9.325A26.069,26.069,0,0,0,54,103.415l-2,7.66H35.511A26.367,26.367,0,0,0,9.2,137.386v16.486a6.858,6.858,0,0,0,6.828,6.828h122.23a6.858,6.858,0,0,0,6.828-6.828V137.386A26.119,26.119,0,0,0,118.941,111.075Zm-74.6-32.306V65.28a3.657,3.657,0,0,0-1.5-3.164,3.811,3.811,0,0,0-3.5-.666h-1c-3.5,0-6.328-3.331-6.328-7.494a7.4,7.4,0,0,1,4.163-6.828v.833a4,4,0,1,0,7.993,0V39.8a17.573,17.573,0,0,1,2.5-8.826C54,33.807,64.82,35.639,77.143,35.639c12.156,0,23.147-1.832,30.474-4.663a18.066,18.066,0,0,1,2.5,8.826v8.16a4,4,0,0,0,7.993,0v-.833a7.136,7.136,0,0,1,4.163,6.828c0,4.163-2.831,7.494-6.328,7.494h-1a4.361,4.361,0,0,0-3.5.666,4.1,4.1,0,0,0-1.5,3.164V78.769A18.016,18.016,0,0,1,91.964,96.754H62.322A17.91,17.91,0,0,1,44.337,78.769ZM92.3,122.232l-10.824,8.16a7,7,0,0,1-8.659,0l-10.824-8.16a7.232,7.232,0,0,1-2.664-7.66l2.5-9.659H92.13l2.5,9.659A6.559,6.559,0,0,1,92.3,122.232Z" transform="translate(-9.2 -2.5)" fill="#327495"/>
          <circle id="Ellipse_508" data-name="Ellipse 508" cx="7.161" cy="7.161" r="7.161" transform="translate(45.628 43.13)" fill="#327495"/>
          <circle id="Ellipse_509" data-name="Ellipse 509" cx="7.161" cy="7.161" r="7.161" transform="translate(75.603 43.13)" fill="#327495"/>
          <path id="Path_1509" data-name="Path 1509" d="M52.6,54.7c3.83-.5,5.995-1.832,7.161-3.664,1.166,1.832,3.331,3.164,7.161,3.664,5.329.666,11.324-.666,16.32-3a2.147,2.147,0,0,0-.333-4c-6.495-1.5-12.989-5-15.987-6.495a6.206,6.206,0,0,0-6.994.666,6.206,6.206,0,0,0-6.994-.666c-3,1.5-9.492,5-15.987,6.495a2.115,2.115,0,0,0-.333,4A29.31,29.31,0,0,0,52.6,54.7Z" transform="translate(8.186 22.737)" fill="#327495"/>
        </g>
      </g>
    </g>
  </g>
</svg>
