<svg xmlns="http://www.w3.org/2000/svg" width="100%" viewBox="0 0 1019 289.075">
  <g id="Group_2121" data-name="Group 2121" transform="translate(-455 -8166.925)">
    <g id="Group_1995" data-name="Group 1995" transform="translate(20.662 537)">
      <g id="Group_1777" data-name="Group 1777" transform="translate(576.514 7629.925)">
        <g id="noun_Key_3192361" transform="translate(65.665 0) rotate(45)">
          <path id="Path_1345" data-name="Path 1345" d="M30,92.865A29.986,29.986,0,1,1,42.142,35.456L77.059.539A1.839,1.839,0,0,1,78.378,0a.7.7,0,0,1,.2.019L89.893,1.356A1.873,1.873,0,0,1,91.509,2.99l1.337,11.292a1.8,1.8,0,0,1-.52,1.523l-7.318,7.318a1.839,1.839,0,0,1-2.637,0l-1.894-1.894-4.272,4.29L78.1,27.414a1.838,1.838,0,0,1,.539,1.319,1.8,1.8,0,0,1-.539,1.3l-5.535,5.535a1.849,1.849,0,0,1-2.619,0l-1.894-1.894-4.29,4.272,1.894,1.894a1.856,1.856,0,0,1,.557,1.319,1.889,1.889,0,0,1-.557,1.319l-8.246,8.247A29.626,29.626,0,0,1,59.972,62.87,29.994,29.994,0,0,1,30,92.865Zm3.176-33.171a9.184,9.184,0,0,0-15.676,6.5,9.184,9.184,0,0,0,18.369,0A9.2,9.2,0,0,0,33.171,59.694Z" transform="translate(0)" fill="#9a9a9a"/>
        </g>
        <text id="Julia_s_Public_PEM_Key" data-name="Julia's Public PEM Key" transform="translate(7.487 113.075)" fill="#9a9a9a" font-size="14" font-family="Helvetica"><tspan x="0" y="0">Julia's Public PEM Key</tspan></text>
      </g>
      <g id="Group_1780" data-name="Group 1780" transform="translate(304 7221)">
        <path id="noun_identification_9042" d="M106.387,22.683A3.683,3.683,0,0,0,102.7,19H5.684A3.683,3.683,0,0,0,2,22.683V81.648a3.684,3.684,0,0,0,3.684,3.682H102.7a3.684,3.684,0,0,0,3.683-3.683ZM40.058,64.669H10.7c-.973-3.85,1.511-5.974,5.538-6.9,3.942-.907,6.716-2.7,4.248-5.165-7.214-7.215-1.821-15.994,4.864-15.994s12.136,8.78,4.923,15.994c-2.467,2.468.249,4.258,4.189,5.165C38.488,58.7,41.032,60.819,40.058,64.669Zm57.63,0H46.582V60.32H97.688Zm0-10.874H46.582V49.446H97.688Zm0-10.874H46.582V38.573H97.688Z" transform="translate(161 439)" fill="#327495"/>
        <g id="Group_1779" data-name="Group 1779" transform="translate(75 10)">
          <g id="Rectangle_1253" data-name="Rectangle 1253" transform="translate(79 438)" fill="#fff" stroke="#707070" stroke-width="1">
            <rect width="27" height="20" stroke="none"/>
            <rect x="0.5" y="0.5" width="26" height="19" fill="none"/>
          </g>
          <g id="Group_1750" data-name="Group 1750" transform="translate(-52 423.399)">
            <path id="noun_Stamp_831862" d="M98,35.71a5.2,5.2,0,0,0,0,6.21A5.2,5.2,0,0,1,95.35,50a5.2,5.2,0,0,0-3.65,5,5.19,5.19,0,0,1-6.86,5,5.2,5.2,0,0,0-5.9,1.92,5.2,5.2,0,0,1-8.48,0A5.2,5.2,0,0,0,64.56,60a5.19,5.19,0,0,1-6.86-5A5.2,5.2,0,0,0,54,50a5.2,5.2,0,0,1-2.62-8.06,5.2,5.2,0,0,0,0-6.21A5.2,5.2,0,0,1,54,27.64a5.2,5.2,0,0,0,3.65-5,5.19,5.19,0,0,1,6.86-5,5.2,5.2,0,0,0,5.9-1.92,5.2,5.2,0,0,1,8.48,0,5.2,5.2,0,0,0,5.9,1.92,5.19,5.19,0,0,1,6.86,5,5.2,5.2,0,0,0,3.65,5A5.2,5.2,0,0,1,98,35.71ZM82.33,32.9a3.06,3.06,0,0,0-4.33,0l-5.32,5.32-1.27-1.27a3.062,3.062,0,1,0-4.33,4.33l1.27,1.27,2.17,2.17a3.07,3.07,0,0,0,4.33,0L77,42.55l5.32-5.32a3.06,3.06,0,0,0,.01-4.33Z" transform="translate(69 -13.53)" fill="#4ba9d9"/>
          </g>
        </g>
      </g>
      <g id="Group_1778" data-name="Group 1778" transform="translate(503.717 7673.136)">
        <ellipse id="Ellipse_512" data-name="Ellipse 512" cx="11.809" cy="17.714" rx="11.809" ry="17.714" transform="translate(7.439 31.492)" fill="#fff"/>
        <g id="noun_locked_809428" transform="translate(-6 -13)">
          <path id="Path_1347" data-name="Path 1347" d="M64.044,38.09V17.571a17.251,17.251,0,0,0-34.5,0V38.088a28.682,28.682,0,1,0,34.5,0ZM50.222,61.11v8.982a3.429,3.429,0,1,1-6.859,0V61.11a5.819,5.819,0,1,1,6.859,0Zm7.587-26.593a28.733,28.733,0,0,0-22.031,0V17.571a11.016,11.016,0,0,1,22.032,0V34.517Z" transform="translate(-18.11 -0.321)" fill="#9a9a9a"/>
        </g>
      </g>
      <g id="noun_Happy_2199103" transform="translate(733.149 7651.9)">
        <g id="Group_1749" data-name="Group 1749" transform="translate(11.1 2.5)">
          <g id="Group_1748" data-name="Group 1748">
            <circle id="Ellipse_510" data-name="Ellipse 510" cx="4.333" cy="4.333" r="4.333" transform="translate(27.689 29.064)" fill="#484848"/>
            <circle id="Ellipse_511" data-name="Ellipse 511" cx="4.333" cy="4.333" r="4.333" transform="translate(45.867 29.064)" fill="#484848"/>
            <path id="Path_1510" data-name="Path 1510" d="M50.684,53.488A12.394,12.394,0,0,0,61.147,48.2a2.448,2.448,0,1,0-4.122-2.642c-1.163,1.9-3.593,2.959-6.341,2.959a7.64,7.64,0,0,1-6.341-2.959A2.448,2.448,0,0,0,40.221,48.2,12.394,12.394,0,0,0,50.684,53.488Z" transform="translate(-9.467 -0.116)" fill="#484848"/>
            <path id="Path_1511" data-name="Path 1511" d="M77.47,72.886H67.536l-1.268-4.861c11.1.951,19.446.423,17.121-22.934,1.48-1.585,2.219-3.8,2.219-6.975,0-3.91-.951-6.658-2.853-8.455a11.057,11.057,0,0,0-2.008-1.268C75.039,2.077,55.8,2.5,52.317,2.5s-22.828-.317-28.429,26a6.574,6.574,0,0,0-2.114,1.268c-1.9,1.691-2.853,4.439-2.853,8.455q0,4.756,2.219,6.975c-2.325,23.145,6.024,23.779,17.015,22.828l-1.268,4.861H26.953A15.831,15.831,0,0,0,11.1,88.739v9.934a4.219,4.219,0,0,0,4.122,4.227H89.2a4.151,4.151,0,0,0,4.122-4.227V88.739A15.831,15.831,0,0,0,77.47,72.886ZM29.806,45.514a3.158,3.158,0,0,0-2.853-2.853c-1.8-.211-3.171-.317-3.171-4.439,0-3.171.74-4.333,1.163-4.756a1.13,1.13,0,0,1,.528-.317,2.488,2.488,0,0,0,2.008,1.9,2.433,2.433,0,0,0,2.853-2.008,38.279,38.279,0,0,1,1.8-6.447c4.122.423,10.357-.951,16.8-4.016A53.952,53.952,0,0,0,57.5,17.4c.951.951,2.008,2.008,3.171,2.959,4.122,3.382,8.455,5.6,11.625,6.13a36.777,36.777,0,0,1,1.9,6.552,2.488,2.488,0,0,0,2.431,2.008h.423a2.488,2.488,0,0,0,2.008-1.9,1.13,1.13,0,0,1,.528.317c.423.423,1.163,1.585,1.163,4.756,0,4.122-1.374,4.227-3.171,4.439a3.158,3.158,0,0,0-2.853,2.853c-.634,6.341-4.65,12.048-11.731,17.015a18.777,18.777,0,0,1-21.348,0C34.351,57.456,30.44,51.749,29.806,45.514Zm31.6,34.136-6.552,4.861a4.439,4.439,0,0,1-5.284,0L43.017,79.65A4.216,4.216,0,0,1,41.431,75l1.691-6.13a22.248,22.248,0,0,0,9.089,1.9,24.12,24.12,0,0,0,9.089-1.9L62.991,75A4.511,4.511,0,0,1,61.406,79.65Z" transform="translate(-11.1 -2.5)" fill="#484848"/>
          </g>
        </g>
      </g>
    </g>
    <g id="Group_1996" data-name="Group 1996" transform="translate(11.751 537)">
      <g id="Group_1846" data-name="Group 1846" transform="translate(1180.514 7638.925)">
        <g id="noun_Key_3192361-2" data-name="noun_Key_3192361" transform="translate(65.665 0) rotate(45)">
          <path id="Path_1345-2" data-name="Path 1345" d="M30,92.865A29.986,29.986,0,1,1,42.142,35.456L77.059.539A1.839,1.839,0,0,1,78.378,0a.7.7,0,0,1,.2.019L89.893,1.356A1.873,1.873,0,0,1,91.509,2.99l1.337,11.292a1.8,1.8,0,0,1-.52,1.523l-7.318,7.318a1.839,1.839,0,0,1-2.637,0l-1.894-1.894-4.272,4.29L78.1,27.414a1.838,1.838,0,0,1,.539,1.319,1.8,1.8,0,0,1-.539,1.3l-5.535,5.535a1.849,1.849,0,0,1-2.619,0l-1.894-1.894-4.29,4.272,1.894,1.894a1.856,1.856,0,0,1,.557,1.319,1.889,1.889,0,0,1-.557,1.319l-8.246,8.247A29.626,29.626,0,0,1,59.972,62.87,29.994,29.994,0,0,1,30,92.865Zm3.176-33.171a9.184,9.184,0,0,0-15.676,6.5,9.184,9.184,0,0,0,18.369,0A9.2,9.2,0,0,0,33.171,59.694Z" transform="translate(0)" fill="#9a9a9a"/>
        </g>
        <text id="Julia_s_Public_PEM_Key-2" data-name="Julia's Public PEM Key" transform="translate(7.487 113.075)" fill="#9a9a9a" font-size="14" font-family="Helvetica"><tspan x="0" y="0">Julia's Public PEM Key</tspan></text>
      </g>
      <g id="noun_Happy_2199103-2" data-name="noun_Happy_2199103" transform="translate(1076.149 7651.9)">
        <g id="Group_1749-2" data-name="Group 1749" transform="translate(11.1 2.5)">
          <g id="Group_1748-2" data-name="Group 1748">
            <circle id="Ellipse_510-2" data-name="Ellipse 510" cx="4.333" cy="4.333" r="4.333" transform="translate(27.689 29.064)" fill="#484848"/>
            <circle id="Ellipse_511-2" data-name="Ellipse 511" cx="4.333" cy="4.333" r="4.333" transform="translate(45.867 29.064)" fill="#484848"/>
            <path id="Path_1510-2" data-name="Path 1510" d="M50.684,53.488A12.394,12.394,0,0,0,61.147,48.2a2.448,2.448,0,1,0-4.122-2.642c-1.163,1.9-3.593,2.959-6.341,2.959a7.64,7.64,0,0,1-6.341-2.959A2.448,2.448,0,0,0,40.221,48.2,12.394,12.394,0,0,0,50.684,53.488Z" transform="translate(-9.467 -0.116)" fill="#484848"/>
            <path id="Path_1511-2" data-name="Path 1511" d="M77.47,72.886H67.536l-1.268-4.861c11.1.951,19.446.423,17.121-22.934,1.48-1.585,2.219-3.8,2.219-6.975,0-3.91-.951-6.658-2.853-8.455a11.057,11.057,0,0,0-2.008-1.268C75.039,2.077,55.8,2.5,52.317,2.5s-22.828-.317-28.429,26a6.574,6.574,0,0,0-2.114,1.268c-1.9,1.691-2.853,4.439-2.853,8.455q0,4.756,2.219,6.975c-2.325,23.145,6.024,23.779,17.015,22.828l-1.268,4.861H26.953A15.831,15.831,0,0,0,11.1,88.739v9.934a4.219,4.219,0,0,0,4.122,4.227H89.2a4.151,4.151,0,0,0,4.122-4.227V88.739A15.831,15.831,0,0,0,77.47,72.886ZM29.806,45.514a3.158,3.158,0,0,0-2.853-2.853c-1.8-.211-3.171-.317-3.171-4.439,0-3.171.74-4.333,1.163-4.756a1.13,1.13,0,0,1,.528-.317,2.488,2.488,0,0,0,2.008,1.9,2.433,2.433,0,0,0,2.853-2.008,38.279,38.279,0,0,1,1.8-6.447c4.122.423,10.357-.951,16.8-4.016A53.952,53.952,0,0,0,57.5,17.4c.951.951,2.008,2.008,3.171,2.959,4.122,3.382,8.455,5.6,11.625,6.13a36.777,36.777,0,0,1,1.9,6.552,2.488,2.488,0,0,0,2.431,2.008h.423a2.488,2.488,0,0,0,2.008-1.9,1.13,1.13,0,0,1,.528.317c.423.423,1.163,1.585,1.163,4.756,0,4.122-1.374,4.227-3.171,4.439a3.158,3.158,0,0,0-2.853,2.853c-.634,6.341-4.65,12.048-11.731,17.015a18.777,18.777,0,0,1-21.348,0C34.351,57.456,30.44,51.749,29.806,45.514Zm31.6,34.136-6.552,4.861a4.439,4.439,0,0,1-5.284,0L43.017,79.65A4.216,4.216,0,0,1,41.431,75l1.691-6.13a22.248,22.248,0,0,0,9.089,1.9,24.12,24.12,0,0,0,9.089-1.9L62.991,75A4.511,4.511,0,0,1,61.406,79.65Z" transform="translate(-11.1 -2.5)" fill="#484848"/>
          </g>
        </g>
      </g>
      <g id="noun_Government_2129596" transform="translate(1332.764 7653.5)">
        <path id="Path_1539" data-name="Path 1539" d="M93.481,45.388H85.57c-2.636-12.521-14.565-21.653-29.4-22.958V17.01H68.256L65.1,11.755,68.256,6.5H48.812V22.429c-14.835,1.305-26.766,10.438-29.4,22.959H11.5v7.357H93.481Z" transform="translate(0.306)" fill="#888"/>
        <path id="Path_1540" data-name="Path 1540" d="M93.787,88.082V80.725H86.429V55.5H76.97V80.725H67.511V55.5H58.052V80.725H48.592V55.5H39.133V80.725H28.623V55.5H19.163V80.725H11.806v7.357H5.5v7.357H99.042V88.082Z" transform="translate(0 2.501)" fill="#888"/>
      </g>
    </g>
    <g id="Group_1997" data-name="Group 1997" transform="translate(12 537)">
      <g id="noun_Compare_2794347" transform="translate(1023.688 7692.348) rotate(90)">
        <g id="Group_1744" data-name="Group 1744" transform="translate(30.772 36.088)">
          <g id="Group_1743" data-name="Group 1743" transform="translate(0 0)">
            <path id="Path_1504" data-name="Path 1504" d="M33.7,50.521l3.847-3.847L43.624,40.6l1.4-1.4H42.584l3.847,3.847,6.075,6.075,1.4,1.4a1.721,1.721,0,0,0,2.434-2.434L52.489,44.24l-6.075-6.075-1.4-1.4a1.744,1.744,0,0,0-2.434,0l-3.847,3.847-6.075,6.075-1.4,1.4A1.721,1.721,0,0,0,33.7,50.521Z" transform="translate(-30.772 -36.275)" fill="#6ab04c"/>
          </g>
        </g>
        <g id="Group_1746" data-name="Group 1746" transform="translate(42.077 36.076)">
          <g id="Group_1745" data-name="Group 1745" transform="translate(0 0)">
            <path id="Path_1505" data-name="Path 1505" d="M227.658,37.8V78.112c0,.545-.006,1.1,0,1.642v.069a1.722,1.722,0,0,0,3.445,0V39.511c0-.545.006-1.1,0-1.642V37.8a1.722,1.722,0,0,0-3.445,0Z" transform="translate(-227.656 -36.076)" fill="#6ab04c"/>
          </g>
        </g>
        <g id="Group_1748-3" data-name="Group 1748" transform="translate(49.727 75.974)">
          <g id="Group_1747" data-name="Group 1747">
            <path id="Path_1506" data-name="Path 1506" d="M539.938,733.9l3.847,3.847,6.075,6.075,1.4,1.4a1.744,1.744,0,0,0,2.434,0l3.847-3.847,6.075-6.075,1.4-1.4a1.721,1.721,0,0,0-2.435-2.434l-3.847,3.847-6.075,6.075-1.4,1.4h2.434l-3.847-3.847-6.075-6.075-1.4-1.4a1.721,1.721,0,0,0-2.434,2.434Z" transform="translate(-539.447 -730.972)" fill="#6ab04c"/>
          </g>
        </g>
        <g id="Group_1750-2" data-name="Group 1750" transform="translate(61.027 45.257)">
          <g id="Group_1749-3" data-name="Group 1749" transform="translate(0)">
            <path id="Path_1507" data-name="Path 1507" d="M739.7,239.723V199.411c0-.545.006-1.1,0-1.642V197.7a1.723,1.723,0,0,0-3.445,0v40.312c0,.545-.006,1.1,0,1.642v.069a1.723,1.723,0,0,0,3.445,0Z" transform="translate(-736.256 -195.976)" fill="#6ab04c"/>
          </g>
        </g>
      </g>
      <text id="PEM_Keys_Match" data-name="PEM Keys Match" transform="translate(895 7661)" fill="#6ab04c" font-size="18" font-family="Helvetica-Bold, Helvetica" font-weight="700"><tspan x="0" y="0">PEM Keys Match</tspan></text>
      <g id="Group_1950" data-name="Group 1950" transform="translate(792.063 7138.392)">
        <rect id="Rectangle_1074" data-name="Rectangle 1074" width="35" height="34" rx="17" transform="translate(148.938 543.608)" fill="#6ab04c"/>
        <path id="Path_1291" data-name="Path 1291" d="M25.346,10.181,14.61,20.917,9.763,16.07a1.472,1.472,0,0,0-2.082,2.082L13.57,24.04a1.472,1.472,0,0,0,2.082,0L27.428,12.263a1.472,1.472,0,1,0-2.082-2.082Z" transform="translate(149.111 543.377)" fill="#fff"/>
      </g>
      <text id="Julia_is_a_legally_licensed_notary_recognized_in_the_state_of_Texas." data-name="Julia is a legally licensed notary recognized in the state of Texas." transform="translate(880 7784)" fill="#6ab04c" font-size="15" font-family="Helvetica-Bold, Helvetica" font-weight="700" opacity="0.73"><tspan x="22.886" y="12">Julia is a legally </tspan><tspan x="24.98" y="30">licensed notary </tspan><tspan x="18.326" y="48">recognized in the </tspan><tspan x="28.448" y="66">state of Texas.</tspan></text>
    </g>
    <text id="First_we_extract_Julia_s_PEM_public_Key_in_the_digitally_notarized_copy." data-name="First, we extract Julia's PEM public Key in the digitally notarized copy." transform="translate(455 8337)" fill="#707070" font-size="25" font-family="Helvetica"><tspan x="9.781" y="19">First, we extract Julia's PEM public </tspan><tspan x="14.426" y="49">Key in the digitally notarized copy.</tspan></text>
    <text id="Then_we_compare_it_with_the_PEM_public_key_listed_on_the_Secretary_of_State_official_Website_" data-name="Then we compare it with the PEM public key listed on the Secretary of State official Website " transform="translate(1069 8337)" fill="#707070" font-size="25" font-family="Helvetica"><tspan x="15.616" y="19">Then we compare it with the PEM </tspan><tspan x="5.173" y="49">public key listed on the Secretary of </tspan><tspan x="86.002" y="79">State official Website </tspan></text>
  </g>
</svg>
