<svg xmlns="http://www.w3.org/2000/svg" width="109" height="109" viewBox="0 0 109 109">
  <g id="Group_2113" data-name="Group 2113" transform="translate(-1248 -652)">
    <g id="Group_1741" data-name="Group 1741" transform="translate(318.556 -504.444)">
      <circle id="Ellipse_495" data-name="Ellipse 495" cx="54.5" cy="54.5" r="54.5" transform="translate(929.444 1156.444)" fill="#fff"/>
      <path id="noun_question_mark_1156193" data-name="noun_question mark_1156193" d="M29.342,42.731h0a4.816,4.816,0,0,1-9.631,0h0c-.025-1.387-.039-2.222-.039-2.529a16.708,16.708,0,0,1,1.554-7.68q1.539-3,6.175-6.781a45.134,45.134,0,0,0,5.549-4.931,6.584,6.584,0,0,0,1.4-4.071,6.751,6.751,0,0,0-2.481-5.253,9.644,9.644,0,0,0-6.662-2.2,10.158,10.158,0,0,0-6.767,2.3A12.3,12.3,0,0,0,14.7,18.613h0a4.894,4.894,0,0,1-9.71-1.232h0A16.164,16.164,0,0,1,10.747,5.914Q16.084,1.19,24.757,1.2q9.131,0,14.523,4.765c3.595,3.172,5.394,6.857,5.394,11.083A12.171,12.171,0,0,1,42.7,23.674q-1.983,3.117-8.464,8.515a16.1,16.1,0,0,0-4.162,4.48c-.539,1.131-.781,3.147-.73,6.062Zm-4.816,8.416a5.475,5.475,0,1,1-5.475,5.475A5.476,5.476,0,0,1,24.526,51.147Z" transform="translate(958.661 1178.973)" fill="#53aa56" fill-rule="evenodd"/>
    </g>
  </g>
</svg>
