<svg xmlns="http://www.w3.org/2000/svg" width="100%" viewBox="0 0 518 201.185">
  <g id="Group_2115" data-name="Group 2115" transform="translate(-937 -4317)">
    <g id="Group_1917" data-name="Group 1917" transform="translate(127 771)">
      <g id="Group_1924" data-name="Group 1924">
        <g id="Path_1578" data-name="Path 1578" transform="translate(1112 3546)" fill="#cecece">
          <path d="M 198 182.5 L 18 182.5 C 13.59269428253174 182.5 9.44919490814209 180.78369140625 6.332749843597412 177.6672821044922 C 3.216305494308472 174.5508270263672 1.5 170.4073028564453 1.5 166 L 1.5 18 C 1.5 13.59269428253174 3.216305494308472 9.44919490814209 6.332749843597412 6.332749843597412 C 9.44919490814209 3.216305494308472 13.59269428253174 1.5 18 1.5 L 198 1.5 C 202.4073028564453 1.5 206.5508270263672 3.216305494308472 209.6672821044922 6.332749843597412 C 212.78369140625 9.44919490814209 214.5 13.59269428253174 214.5 18 L 214.5 166 C 214.5 170.4073028564453 212.78369140625 174.5508270263672 209.6672821044922 177.6672821044922 C 206.5508270263672 180.78369140625 202.4073028564453 182.5 198 182.5 Z" stroke="none"/>
          <path d="M 18 3 C 13.99334716796875 3 10.22650146484375 4.560272216796875 7.393386840820312 7.393386840820312 C 4.560272216796875 10.22650146484375 3 13.99334716796875 3 18 L 3 166 C 3 170.0066528320312 4.560272216796875 173.7734680175781 7.393386840820312 176.6065826416016 C 10.22653198242188 179.4397277832031 13.99334716796875 181 18 181 L 198 181 C 202.0066528320312 181 205.7734680175781 179.4397277832031 208.6065826416016 176.6065826416016 C 211.4397277832031 173.7734680175781 213 170.0066528320312 213 166 L 213 18 C 213 13.99334716796875 211.4397277832031 10.22653198242188 208.6065826416016 7.393386840820312 C 205.7734680175781 4.560272216796875 202.0066528320312 3 198 3 L 18 3 M 18 0 L 198 0 C 207.9411163330078 0 216 8.058853149414062 216 18 L 216 166 C 216 175.9411163330078 207.9411163330078 184 198 184 L 18 184 C 8.058853149414062 184 0 175.9411163330078 0 166 L 0 18 C 0 8.058853149414062 8.058853149414062 0 18 0 Z" stroke="none" fill="#484848"/>
        </g>
        <g id="Group_1915" data-name="Group 1915" transform="translate(1019 299)">
          <g id="Group_1907" data-name="Group 1907" transform="translate(-640 -121)">
            <g id="Group_1906" data-name="Group 1906" transform="translate(772.171 3379.973)">
              <g id="Rectangle_1264" data-name="Rectangle 1264" transform="translate(-0.171 31.027)" fill="#fff" stroke="#484848" stroke-width="3">
                <rect width="138" height="104" rx="18" stroke="none"/>
                <rect x="1.5" y="1.5" width="135" height="101" rx="16.5" fill="none"/>
              </g>
              <g id="Group_1878" data-name="Group 1878" transform="translate(55.511 0)">
                <g id="Path_1577" data-name="Path 1577" transform="translate(6.317 21.027)" fill="#fff">
                  <path d="M 7 15.5 C 3.415889978408813 15.5 0.5 12.13551044464111 0.5 8 C 0.5 3.864490032196045 3.415889978408813 0.5 7 0.5 C 10.58411026000977 0.5 13.5 3.864490032196045 13.5 8 C 13.5 12.13551044464111 10.58411026000977 15.5 7 15.5 Z" stroke="none"/>
                  <path d="M 7 1 C 3.691590309143066 1 1 4.140190124511719 1 8 C 1 11.85980987548828 3.691590309143066 15 7 15 C 10.30840969085693 15 13 11.85980987548828 13 8 C 13 4.140190124511719 10.30840969085693 1 7 1 M 7 0 C 10.86598968505859 0 14 3.581720352172852 14 8 C 14 12.41827964782715 10.86598968505859 16 7 16 C 3.134010314941406 16 0 12.41827964782715 0 8 C 0 3.581720352172852 3.134010314941406 0 7 0 Z" stroke="none" fill="#707070"/>
                </g>
                <g id="noun_locked_809428" transform="translate(0 0)">
                  <path id="Path_1347" data-name="Path 1347" d="M40.321,18.584V8.662a8.342,8.342,0,0,0-16.684,0v9.921a13.869,13.869,0,1,0,16.684,0ZM33.638,29.715v4.343a1.658,1.658,0,1,1-3.317,0V29.715a2.814,2.814,0,1,1,3.317,0Zm3.668-12.859a13.893,13.893,0,0,0-10.653,0V8.662a5.327,5.327,0,0,1,10.654,0v8.194Z" transform="translate(-18.11 -0.321)" fill="#484848"/>
                </g>
              </g>
            </g>
          </g>
          <g id="noun_signature_1745297" transform="translate(150.574 3343.909)">
            <g id="Group_1912" data-name="Group 1912">
              <g id="Group_1911" data-name="Group 1911">
                <g id="Group_1910" data-name="Group 1910">
                  <path id="Path_1575" data-name="Path 1575" d="M41.2,45.8A73.057,73.057,0,0,0,61.8,32.4,2.563,2.563,0,0,0,60,28.1c-5-.2-8.8,2.9-12.5,5.8a111.7,111.7,0,0,0-9.2,7.8c-7.7,3.4-16,5.8-24.1,8.1-3.1.9-1.8,5.7,1.3,4.8,5-1.4,10-2.9,14.9-4.6A109.248,109.248,0,0,0,17.8,68.2c-1.6,2.8,2.7,5.3,4.3,2.5A108.561,108.561,0,0,1,37.7,49.3C38.8,48.1,40,46.9,41.2,45.8Z" fill="#484848"/>
                  <path id="Path_1576" data-name="Path 1576" d="M85.2,46.9c-2.6.3-6,1.2-8.8,1.1a4.4,4.4,0,0,0-.2-1,2.483,2.483,0,0,0-3.1-1.7c-.8.3-6.6,2.7-7.1,1.8a2.467,2.467,0,0,0-3.4-.9,19.483,19.483,0,0,1-9.3,3.6,17.377,17.377,0,0,1,1-1.9c1.1-1.7-.8-4.5-2.8-3.7a99.085,99.085,0,0,0-13.6,6.4c-2.8,1.6-.3,5.9,2.5,4.3,2.4-1.3,4.8-2.6,7.3-3.7,0,.2-.1.3-.1.5A2.6,2.6,0,0,0,50,54.9a24.215,24.215,0,0,0,13.5-3.3c2.3,1.5,5.5.5,8.4-.5a2.622,2.622,0,0,0,1.7,1.7c3.7.6,7.9-.4,11.6-.8C88.3,51.6,88.4,46.6,85.2,46.9Z" fill="#484848"/>
                </g>
              </g>
            </g>
          </g>
          <g id="Group_1914" data-name="Group 1914" transform="translate(-616 -298)">
            <g id="Group_1914-2" data-name="Group 1914" transform="translate(772.837 3608.027)" opacity="0.1">
              <path id="noun_identification_9042" d="M90.942,22.138A3.138,3.138,0,0,0,87.8,19H5.139A3.138,3.138,0,0,0,2,22.138v50.24a3.139,3.139,0,0,0,3.139,3.137H87.8a3.139,3.139,0,0,0,3.138-3.138ZM34.427,57.912H9.412c-.829-3.281,1.288-5.09,4.719-5.881,3.358-.773,5.722-2.3,3.62-4.4C11.6,41.483,16.2,34,21.894,34s10.34,7.481,4.194,13.628c-2.1,2.1.212,3.628,3.569,4.4C33.089,52.822,35.257,54.632,34.427,57.912Zm49.1,0H39.986V54.206H83.53Zm0-9.265H39.986V44.941H83.53Zm0-9.265H39.986V35.677H83.53Z" transform="translate(-2 -19)" fill="#327495"/>
            </g>
            <text id="_6C7D_2CDB_FE3D_79A9_EE82_90B1_FB99_BB41_F97C_DB2C_0488_91DC_EC82_4F8C_2184_1337_825D_FFE4_77C6_662B_BB8D_8A6C_72EA_D0919D42_4FB4_1867_C696_91C0_F8BA" data-name="6C7D 2CDB FE3D 79A9 EE82
90B1 FB99 BB41 F97C DB2C
0488 91DC  EC82 4F8C 2184
1337 825D FFE4 77C6 662B
BB8D 8A6C 72EA D0919D42
4FB4 1867 C696 91C0 F8BA" transform="translate(778 3619)" fill="#9bcfe9" font-size="6" font-family="Helvetica-Bold, Helvetica" font-weight="700"><tspan x="0" y="0">6C7D 2CDB FE3D 79A9 EE82 </tspan><tspan x="0" y="7">90B1 FB99 BB41 F97C DB2C </tspan><tspan x="0" y="14" xml:space="preserve">0488 91DC  EC82 4F8C 2184 </tspan><tspan x="0" y="21">1337 825D FFE4 77C6 662B </tspan><tspan x="0" y="28">BB8D 8A6C 72EA D0919D42 </tspan><tspan x="0" y="35">4FB4 1867 C696 91C0 F8BA</tspan></text>
          </g>
        </g>
        <g id="Group_1916" data-name="Group 1916" transform="translate(1206.683 3703.973)">
          <g id="Path_1577-2" data-name="Path 1577" transform="translate(6.317 21.027)" fill="#fff">
            <path d="M 7 15.5 C 3.415889978408813 15.5 0.5 12.13551044464111 0.5 8 C 0.5 3.864490032196045 3.415889978408813 0.5 7 0.5 C 10.58411026000977 0.5 13.5 3.864490032196045 13.5 8 C 13.5 12.13551044464111 10.58411026000977 15.5 7 15.5 Z" stroke="none"/>
            <path d="M 7 1 C 3.691590309143066 1 1 4.140190124511719 1 8 C 1 11.85980987548828 3.691590309143066 15 7 15 C 10.30840969085693 15 13 11.85980987548828 13 8 C 13 4.140190124511719 10.30840969085693 1 7 1 M 7 0 C 10.86598968505859 0 14 3.581720352172852 14 8 C 14 12.41827964782715 10.86598968505859 16 7 16 C 3.134010314941406 16 0 12.41827964782715 0 8 C 0 3.581720352172852 3.134010314941406 0 7 0 Z" stroke="none" fill="#707070"/>
          </g>
          <g id="noun_locked_809428-2" data-name="noun_locked_809428" transform="translate(0 0)">
            <path id="Path_1347-2" data-name="Path 1347" d="M40.321,18.584V8.662a8.342,8.342,0,0,0-16.684,0v9.921a13.869,13.869,0,1,0,16.684,0ZM33.638,29.715v4.343a1.658,1.658,0,1,1-3.317,0V29.715a2.814,2.814,0,1,1,3.317,0Zm3.668-12.859a13.893,13.893,0,0,0-10.653,0V8.662a5.327,5.327,0,0,1,10.654,0v8.194Z" transform="translate(-18.11 -0.321)" fill="#484848"/>
          </g>
        </g>
        <text id="Verifiable_Credential" data-name="Verifiable
Credential" transform="translate(1125 3567)" fill="#484848" font-size="15" font-family="Helvetica-Bold, Helvetica" font-weight="700"><tspan x="0" y="0">Verifiable </tspan><tspan x="0" y="15">Credential</tspan></text>
      </g>
    </g>
    <g id="Group_1918" data-name="Group 1918" transform="translate(1079.084 4351.561)">
      <g id="noun_Key_3192361" transform="translate(79.215 0) rotate(45)">
        <path id="Path_1345" data-name="Path 1345" d="M29.79,92.229A29.781,29.781,0,1,1,41.853,35.213L76.531.535A1.826,1.826,0,0,1,77.841,0a.691.691,0,0,1,.2.018L89.277,1.346a1.86,1.86,0,0,1,1.6,1.623L92.21,14.185a1.792,1.792,0,0,1-.516,1.513l-7.268,7.268a1.826,1.826,0,0,1-2.619,0l-1.882-1.882-4.243,4.261,1.881,1.881a1.826,1.826,0,0,1,.535,1.31,1.784,1.784,0,0,1-.535,1.291l-5.5,5.5a1.837,1.837,0,0,1-2.6,0l-1.882-1.882-4.261,4.242,1.882,1.882a1.844,1.844,0,0,1,.553,1.31,1.876,1.876,0,0,1-.553,1.31l-8.19,8.19a29.423,29.423,0,0,1,2.545,12.064A29.789,29.789,0,0,1,29.79,92.229Zm3.154-32.944a9.121,9.121,0,0,0-15.568,6.456,9.121,9.121,0,0,0,18.243,0A9.132,9.132,0,0,0,32.944,59.285Z" transform="translate(0 0)" fill="#484848"/>
        <g id="Group_1919" data-name="Group 1919" transform="translate(-70.006 183.443) rotate(-45)">
          <text id="Julia_s_ETH_Key" data-name="Julia's ETH Key" transform="translate(131.916 43.227)" fill="#484848" font-size="15" font-family="Helvetica"><tspan x="0" y="0">Julia's ETH Key</tspan></text>
        </g>
      </g>
      <text id="Private" transform="translate(82.916 46.439)" fill="#484848" font-size="13" font-family="Helvetica"><tspan x="0" y="0">Private</tspan></text>
    </g>
    <g id="noun_Happy_2199103" transform="translate(952.9 4344.5)">
      <g id="Group_1749" data-name="Group 1749" transform="translate(11.1 2.5)">
        <g id="Group_1748" data-name="Group 1748">
          <circle id="Ellipse_510" data-name="Ellipse 510" cx="5.835" cy="5.835" r="5.835" transform="translate(37.286 39.137)" fill="#484848"/>
          <circle id="Ellipse_511" data-name="Ellipse 511" cx="5.835" cy="5.835" r="5.835" transform="translate(61.765 39.137)" fill="#484848"/>
          <path id="Path_1510" data-name="Path 1510" d="M54.448,56.629c5.835,0,11.243-2.7,14.089-7.116a3.3,3.3,0,0,0-5.55-3.558c-1.565,2.562-4.839,3.985-8.539,3.985a10.288,10.288,0,0,1-8.539-3.985,3.3,3.3,0,0,0-5.55,3.558C43.206,53.925,48.614,56.629,54.448,56.629Z" transform="translate(1.054 15.24)" fill="#484848"/>
          <path id="Path_1511" data-name="Path 1511" d="M100.474,97.282H87.1l-1.708-6.546c14.943,1.281,26.186.569,23.055-30.882,1.992-2.135,2.989-5.123,2.989-9.393,0-5.266-1.281-8.966-3.842-11.385a14.89,14.89,0,0,0-2.7-1.708C97.2,1.931,71.3,2.5,66.6,2.5S35.863,2.073,28.32,37.51a8.853,8.853,0,0,0-2.846,1.708c-2.562,2.277-3.842,5.977-3.842,11.385q0,6.4,2.989,9.393c-3.131,31.167,8.112,32.021,22.913,30.74l-1.708,6.546H32.447A21.319,21.319,0,0,0,11.1,118.629v13.378a5.681,5.681,0,0,0,5.55,5.693h99.62a5.589,5.589,0,0,0,5.55-5.693V118.629A21.319,21.319,0,0,0,100.474,97.282ZM36.29,60.422a4.253,4.253,0,0,0-3.842-3.842c-2.419-.285-4.269-.427-4.269-5.977,0-4.269,1-5.835,1.565-6.4a1.521,1.521,0,0,1,.712-.427,3.351,3.351,0,0,0,2.7,2.562A3.276,3.276,0,0,0,37,43.629a51.546,51.546,0,0,1,2.419-8.681c5.55.569,13.947-1.281,22.628-5.408a72.651,72.651,0,0,0,11.527-6.973c1.281,1.281,2.7,2.7,4.269,3.985,5.55,4.554,11.385,7.543,15.655,8.254a49.523,49.523,0,0,1,2.562,8.824,3.35,3.35,0,0,0,3.273,2.7H99.9a3.351,3.351,0,0,0,2.7-2.562,1.521,1.521,0,0,1,.712.427c.569.569,1.565,2.135,1.565,6.4,0,5.55-1.85,5.693-4.269,5.977a4.253,4.253,0,0,0-3.842,3.842c-.854,8.539-6.262,16.224-15.8,22.913a25.285,25.285,0,0,1-28.748,0C42.409,76.5,37.144,68.819,36.29,60.422ZM78.842,106.39l-8.824,6.546a5.978,5.978,0,0,1-7.116,0l-8.824-6.546a5.678,5.678,0,0,1-2.135-6.262l2.277-8.254A29.959,29.959,0,0,0,66.46,94.435,32.48,32.48,0,0,0,78.7,91.874l2.277,8.254A6.075,6.075,0,0,1,78.842,106.39Z" transform="translate(-11.1 -2.5)" fill="#484848"/>
        </g>
      </g>
    </g>
    <g id="Group_1932" data-name="Group 1932" transform="translate(499 771)">
      <circle id="Ellipse_532" data-name="Ellipse 532" cx="23" cy="23" r="23" transform="translate(438 3546)" fill="#327495"/>
      <text id="_4" data-name="4" transform="translate(459.5 3580)" fill="#fff" font-size="30" font-family="Helvetica-Bold, Helvetica" font-weight="700"><tspan x="-8.342" y="0">4</tspan></text>
    </g>
  </g>
</svg>
