<svg xmlns="http://www.w3.org/2000/svg" width="100%" viewBox="0 0 396.387 166.2">
  <g id="Group_2112" data-name="Group 2112" transform="translate(-438 -3989)">
    <g id="Group_1801" data-name="Group 1801" transform="translate(567 3604)">
      <path id="noun_identification_9042" d="M106.387,22.683A3.683,3.683,0,0,0,102.7,19H5.684A3.683,3.683,0,0,0,2,22.683V81.648a3.684,3.684,0,0,0,3.684,3.682H102.7a3.684,3.684,0,0,0,3.683-3.683ZM40.058,64.669H10.7c-.973-3.85,1.511-5.974,5.538-6.9,3.942-.907,6.716-2.7,4.248-5.165-7.214-7.215-1.821-15.994,4.864-15.994s12.136,8.78,4.923,15.994c-2.467,2.468.249,4.258,4.189,5.165C38.488,58.7,41.032,60.819,40.058,64.669Zm57.63,0H46.582V60.32H97.688Zm0-10.874H46.582V49.446H97.688Zm0-10.874H46.582V38.573H97.688Z" transform="translate(161 439)" fill="#327495"/>
      <g id="Group_1779" data-name="Group 1779" transform="translate(75 10)">
        <g id="Rectangle_1253" data-name="Rectangle 1253" transform="translate(79 438)" fill="#fff" stroke="#707070" stroke-width="1">
          <rect width="27" height="20" stroke="none"/>
          <rect x="0.5" y="0.5" width="26" height="19" fill="none"/>
        </g>
        <g id="Group_1750" data-name="Group 1750" transform="translate(-52 423.399)">
          <path id="noun_Stamp_831862" d="M98,35.71a5.2,5.2,0,0,0,0,6.21A5.2,5.2,0,0,1,95.35,50a5.2,5.2,0,0,0-3.65,5,5.19,5.19,0,0,1-6.86,5,5.2,5.2,0,0,0-5.9,1.92,5.2,5.2,0,0,1-8.48,0A5.2,5.2,0,0,0,64.56,60a5.19,5.19,0,0,1-6.86-5A5.2,5.2,0,0,0,54,50a5.2,5.2,0,0,1-2.62-8.06,5.2,5.2,0,0,0,0-6.21A5.2,5.2,0,0,1,54,27.64a5.2,5.2,0,0,0,3.65-5,5.19,5.19,0,0,1,6.86-5,5.2,5.2,0,0,0,5.9-1.92,5.2,5.2,0,0,1,8.48,0,5.2,5.2,0,0,0,5.9,1.92,5.19,5.19,0,0,1,6.86,5,5.2,5.2,0,0,0,3.65,5A5.2,5.2,0,0,1,98,35.71ZM82.33,32.9a3.06,3.06,0,0,0-4.33,0l-5.32,5.32-1.27-1.27a3.062,3.062,0,1,0-4.33,4.33l1.27,1.27,2.17,2.17a3.07,3.07,0,0,0,4.33,0L77,42.55l5.32-5.32a3.06,3.06,0,0,0,.01-4.33Z" transform="translate(69 -13.53)" fill="#4ba9d9"/>
        </g>
      </g>
    </g>
    <g id="Group" transform="translate(601.4 4037.621)">
      <path id="Path" d="M12.7,79.6a3,3,0,0,0,3,3H84.3a3,3,0,0,0,3-3V69.4a10,10,0,0,0-10-10h-16V42.7A19.464,19.464,0,0,0,49.1,7.4,19.7,19.7,0,0,0,30.5,25.7a19.4,19.4,0,0,0,8.1,17V59.4h-16a10,10,0,0,0-10,10Z" fill="#9a9a9a"/>
      <rect id="Path-2" data-name="Path" width="74.7" height="6" transform="translate(12.7 86.6)" fill="#9a9a9a"/>
    </g>
    <g id="noun_Happy_2199103" transform="translate(459.9 4017.5)">
      <g id="Group_1749" data-name="Group 1749" transform="translate(11.1 2.5)">
        <g id="Group_1748" data-name="Group 1748">
          <circle id="Ellipse_510" data-name="Ellipse 510" cx="5.835" cy="5.835" r="5.835" transform="translate(37.286 39.137)" fill="#484848"/>
          <circle id="Ellipse_511" data-name="Ellipse 511" cx="5.835" cy="5.835" r="5.835" transform="translate(61.765 39.137)" fill="#484848"/>
          <path id="Path_1510" data-name="Path 1510" d="M54.448,56.629c5.835,0,11.243-2.7,14.089-7.116a3.3,3.3,0,0,0-5.55-3.558c-1.565,2.562-4.839,3.985-8.539,3.985a10.288,10.288,0,0,1-8.539-3.985,3.3,3.3,0,0,0-5.55,3.558C43.206,53.925,48.614,56.629,54.448,56.629Z" transform="translate(1.054 15.24)" fill="#484848"/>
          <path id="Path_1511" data-name="Path 1511" d="M100.474,97.282H87.1l-1.708-6.546c14.943,1.281,26.186.569,23.055-30.882,1.992-2.135,2.989-5.123,2.989-9.393,0-5.266-1.281-8.966-3.842-11.385a14.89,14.89,0,0,0-2.7-1.708C97.2,1.931,71.3,2.5,66.6,2.5S35.863,2.073,28.32,37.51a8.853,8.853,0,0,0-2.846,1.708c-2.562,2.277-3.842,5.977-3.842,11.385q0,6.4,2.989,9.393c-3.131,31.167,8.112,32.021,22.913,30.74l-1.708,6.546H32.447A21.319,21.319,0,0,0,11.1,118.629v13.378a5.681,5.681,0,0,0,5.55,5.693h99.62a5.589,5.589,0,0,0,5.55-5.693V118.629A21.319,21.319,0,0,0,100.474,97.282ZM36.29,60.422a4.253,4.253,0,0,0-3.842-3.842c-2.419-.285-4.269-.427-4.269-5.977,0-4.269,1-5.835,1.565-6.4a1.521,1.521,0,0,1,.712-.427,3.351,3.351,0,0,0,2.7,2.562A3.276,3.276,0,0,0,37,43.629a51.546,51.546,0,0,1,2.419-8.681c5.55.569,13.947-1.281,22.628-5.408a72.651,72.651,0,0,0,11.527-6.973c1.281,1.281,2.7,2.7,4.269,3.985,5.55,4.554,11.385,7.543,15.655,8.254a49.523,49.523,0,0,1,2.562,8.824,3.35,3.35,0,0,0,3.273,2.7H99.9a3.351,3.351,0,0,0,2.7-2.562,1.521,1.521,0,0,1,.712.427c.569.569,1.565,2.135,1.565,6.4,0,5.55-1.85,5.693-4.269,5.977a4.253,4.253,0,0,0-3.842,3.842c-.854,8.539-6.262,16.224-15.8,22.913a25.285,25.285,0,0,1-28.748,0C42.409,76.5,37.144,68.819,36.29,60.422ZM78.842,106.39l-8.824,6.546a5.978,5.978,0,0,1-7.116,0l-8.824-6.546a5.678,5.678,0,0,1-2.135-6.262l2.277-8.254A29.959,29.959,0,0,0,66.46,94.435,32.48,32.48,0,0,0,78.7,91.874l2.277,8.254A6.075,6.075,0,0,1,78.842,106.39Z" transform="translate(-11.1 -2.5)" fill="#484848"/>
        </g>
      </g>
    </g>
    <g id="Group_1930" data-name="Group 1930" transform="translate(0 443)">
      <circle id="Ellipse_532" data-name="Ellipse 532" cx="23" cy="23" r="23" transform="translate(438 3546)" fill="#327495"/>
      <text id="_1" data-name="1" transform="translate(461.5 3581)" fill="#fff" font-size="30" font-family="Helvetica-Bold, Helvetica" font-weight="700"><tspan x="-8.342" y="0">1</tspan></text>
    </g>
  </g>
</svg>
