<svg xmlns="http://www.w3.org/2000/svg" width="66.284" height="56.358" viewBox="0 0 66.284 56.358">
  <path id="noun_Warning_3107819" d="M68.057,52.7,40.313,7.8c-2.236-3.61-5.868-3.617-8.1,0h0L4.465,52.7c-3,4.847-.821,8.755,4.857,8.755H63.2c5.668,0,7.847-3.916,4.855-8.755Zm-31.8,1.037a2.573,2.573,0,1,1,2.573-2.573A2.57,2.57,0,0,1,36.261,53.734Zm2.573-12.856a2.573,2.573,0,0,1-5.145,0V25.427a2.579,2.579,0,0,1,2.573-2.565h0a2.564,2.564,0,0,1,2.573,2.565Z" transform="translate(-3.117 -5.094)" fill="#feb143"/>
</svg>
